<ttFont>
    <TTGlyph name=".notdef" xMin="256" yMin="0" xMax="1280" yMax="1280">
      <contour>
        <pt x="256" y="0" on="1"/>
        <pt x="256" y="1280" on="1"/>
        <pt x="1280" y="1280" on="1"/>
        <pt x="1280" y="0" on="1"/>
      </contour>
      <contour>
        <pt x="288" y="32" on="1"/>
        <pt x="1248" y="32" on="1"/>
        <pt x="1248" y="1248" on="1"/>
        <pt x="288" y="1248" on="1"/>
      </contour>
    </TTGlyph>
    <TTGlyph name="ampersand" xMin="106" yMin="-47" xMax="1304" yMax="1452">
      <contour>
        <pt x="1009" y="684" on="1"/>
        <pt x="1173" y="684" on="1"/>
        <pt x="1173" y="492" on="0"/>
        <pt x="1054" y="309" on="1"/>
        <pt x="1304" y="0" on="1"/>
        <pt x="1081" y="0" on="1"/>
        <pt x="954" y="160" on="1"/>
        <pt x="854" y="61" on="0"/>
        <pt x="796" y="27" on="1"/>
        <pt x="681" y="-47" on="0"/>
        <pt x="526" y="-47" on="1"/>
        <pt x="288" y="-47" on="0"/>
        <pt x="174" y="121" on="1"/>
        <pt x="106" y="221" on="0"/>
        <pt x="106" y="360" on="1"/>
        <pt x="106" y="526" on="0"/>
        <pt x="212" y="635" on="1"/>
        <pt x="286" y="709" on="0"/>
        <pt x="438" y="797" on="1"/>
        <pt x="294" y="977" on="0"/>
        <pt x="276" y="1075" on="1"/>
        <pt x="272" y="1102" on="0"/>
        <pt x="272" y="1130" on="1"/>
        <pt x="272" y="1288" on="0"/>
        <pt x="405" y="1384" on="1"/>
        <pt x="499" y="1452" on="0"/>
        <pt x="622" y="1452" on="1"/>
        <pt x="806" y="1452" on="0"/>
        <pt x="901" y="1317" on="1"/>
        <pt x="931" y="1260" on="1"/>
        <pt x="950" y="1217" on="0"/>
        <pt x="954" y="1167" on="1"/>
        <pt x="956" y="1149" on="0"/>
        <pt x="956" y="1130" on="1"/>
        <pt x="956" y="989" on="0"/>
        <pt x="843" y="889" on="1"/>
        <pt x="784" y="836" on="0"/>
        <pt x="673" y="774" on="1"/>
        <pt x="946" y="440" on="1"/>
        <pt x="1009" y="552" on="0"/>
        <pt x="1009" y="676" on="1"/>
      </contour>
      <contour>
        <pt x="583" y="883" on="1"/>
        <pt x="749" y="987" on="0"/>
        <pt x="780" y="1063" on="1"/>
        <pt x="794" y="1094" on="0"/>
        <pt x="794" y="1135" on="1"/>
        <pt x="794" y="1241" on="0"/>
        <pt x="702" y="1288" on="1"/>
        <pt x="663" y="1309" on="0"/>
        <pt x="616" y="1309" on="1"/>
        <pt x="493" y="1309" on="0"/>
        <pt x="452" y="1206" on="1"/>
        <pt x="440" y="1174" on="0"/>
        <pt x="440" y="1133" on="1"/>
        <pt x="440" y="1065" on="0"/>
        <pt x="491" y="993" on="1"/>
      </contour>
      <contour>
        <pt x="856" y="281" on="1"/>
        <pt x="528" y="690" on="1"/>
        <pt x="335" y="567" on="0"/>
        <pt x="294" y="465" on="1"/>
        <pt x="278" y="424" on="0"/>
        <pt x="278" y="375" on="1"/>
        <pt x="278" y="242" on="0"/>
        <pt x="389" y="164" on="1"/>
        <pt x="460" y="113" on="0"/>
        <pt x="546" y="113" on="1"/>
        <pt x="684" y="113" on="0"/>
        <pt x="823" y="246" on="1"/>
        <pt x="839" y="262" on="0"/>
      </contour>
    </TTGlyph>
    <TTGlyph name="asterisk" xMin="450" yMin="903" xMax="1071" yMax="1493">
      <contour>
        <pt x="696" y="1493" on="1"/>
        <pt x="825" y="1493" on="1"/>
        <pt x="815" y="1264" on="1"/>
        <pt x="1032" y="1341" on="1"/>
        <pt x="1071" y="1221" on="1"/>
        <pt x="849" y="1159" on="1"/>
        <pt x="993" y="977" on="1"/>
        <pt x="888" y="903" on="1"/>
        <pt x="761" y="1094" on="1"/>
        <pt x="632" y="903" on="1"/>
        <pt x="530" y="977" on="1"/>
        <pt x="671" y="1159" on="1"/>
        <pt x="450" y="1221" on="1"/>
        <pt x="489" y="1341" on="1"/>
        <pt x="706" y="1264" on="1"/>
      </contour>
    </TTGlyph>
    <TTGlyph name="at" xMin="69" yMin="-290" xMax="1947" yMax="1518">
      <contour>
        <pt x="1361" y="1026" on="1"/>
        <pt x="1531" y="1026" on="1"/>
        <pt x="1347" y="453" on="1"/>
        <pt x="1322" y="381" on="0"/>
        <pt x="1322" y="350" on="1"/>
        <pt x="1322" y="295" on="0"/>
        <pt x="1382" y="268" on="1"/>
        <pt x="1402" y="260" on="0"/>
        <pt x="1425" y="260" on="1"/>
        <pt x="1556" y="260" on="0"/>
        <pt x="1664" y="408" on="1"/>
        <pt x="1769" y="553" on="0"/>
        <pt x="1769" y="731" on="1"/>
        <pt x="1769" y="977" on="0"/>
        <pt x="1570" y="1159" on="1"/>
        <pt x="1367" y="1348" on="0"/>
        <pt x="1079" y="1360" on="1"/>
        <pt x="1048" y="1360" on="1"/>
        <pt x="747" y="1360" on="0"/>
        <pt x="515" y="1151" on="1"/>
        <pt x="446" y="1081" on="1"/>
        <pt x="243" y="850" on="0"/>
        <pt x="243" y="559" on="1"/>
        <pt x="243" y="270" on="0"/>
        <pt x="458" y="72" on="1"/>
        <pt x="679" y="-133" on="0"/>
        <pt x="1011" y="-133" on="1"/>
        <pt x="1173" y="-133" on="0"/>
        <pt x="1406" y="-67" on="1"/>
        <pt x="1464" y="-204" on="1"/>
        <pt x="1234" y="-290" on="0"/>
        <pt x="1001" y="-290" on="1"/>
        <pt x="632" y="-290" on="0"/>
        <pt x="364" y="-71" on="1"/>
        <pt x="114" y="133" on="0"/>
        <pt x="75" y="434" on="1"/>
        <pt x="69" y="481" on="0"/>
        <pt x="69" y="528" on="1"/>
        <pt x="69" y="844" on="0"/>
        <pt x="264" y="1110" on="1"/>
        <pt x="321" y="1190" on="0"/>
        <pt x="393" y="1253" on="1"/>
        <pt x="614" y="1454" on="0"/>
        <pt x="923" y="1505" on="1"/>
        <pt x="999" y="1518" on="0"/>
        <pt x="1075" y="1518" on="1"/>
        <pt x="1415" y="1518" on="0"/>
        <pt x="1666" y="1311" on="1"/>
        <pt x="1904" y="1118" on="0"/>
        <pt x="1941" y="842" on="1"/>
        <pt x="1947" y="799" on="0"/>
        <pt x="1947" y="756" on="1"/>
        <pt x="1947" y="508" on="0"/>
        <pt x="1771" y="299" on="1"/>
        <pt x="1615" y="117" on="0"/>
        <pt x="1390" y="117" on="1"/>
        <pt x="1193" y="117" on="0"/>
        <pt x="1165" y="274" on="1"/>
        <pt x="1030" y="127" on="0"/>
        <pt x="874" y="127" on="1"/>
        <pt x="706" y="127" on="0"/>
        <pt x="610" y="268" on="1"/>
        <pt x="540" y="369" on="0"/>
        <pt x="540" y="502" on="1"/>
        <pt x="540" y="725" on="0"/>
        <pt x="702" y="897" on="1"/>
        <pt x="860" y="1067" on="0"/>
        <pt x="1066" y="1069" on="1"/>
        <pt x="1238" y="1069" on="0"/>
        <pt x="1316" y="891" on="1"/>
      </contour>
      <contour>
        <pt x="1054" y="938" on="1"/>
        <pt x="919" y="938" on="0"/>
        <pt x="817" y="793" on="1"/>
        <pt x="724" y="664" on="0"/>
        <pt x="724" y="500" on="1"/>
        <pt x="724" y="362" on="0"/>
        <pt x="821" y="293" on="1"/>
        <pt x="870" y="258" on="0"/>
        <pt x="927" y="258" on="1"/>
        <pt x="1046" y="258" on="0"/>
        <pt x="1136" y="391" on="1"/>
        <pt x="1204" y="489" on="0"/>
        <pt x="1236" y="662" on="1"/>
        <pt x="1245" y="707" on="0"/>
        <pt x="1247" y="741" on="1"/>
        <pt x="1247" y="755" on="1"/>
        <pt x="1247" y="856" on="0"/>
        <pt x="1163" y="909" on="1"/>
        <pt x="1113" y="938" on="0"/>
      </contour>
    </TTGlyph>
    <TTGlyph name="colon" xMin="225" yMin="0" xMax="438" yMax="1073">
      <contour>
        <pt x="438" y="213" on="1"/>
        <pt x="438" y="0" on="1"/>
        <pt x="225" y="0" on="1"/>
        <pt x="225" y="213" on="1"/>
      </contour>
      <contour>
        <pt x="438" y="1073" on="1"/>
        <pt x="438" y="860" on="1"/>
        <pt x="225" y="860" on="1"/>
        <pt x="225" y="1073" on="1"/>
      </contour>
    </TTGlyph>
    <TTGlyph name="comma" xMin="178" yMin="-301" xMax="393" yMax="213">
      <contour>
        <pt x="178" y="213" on="1"/>
        <pt x="393" y="213" on="1"/>
        <pt x="393" y="-32" on="1"/>
        <pt x="393" y="-301" on="0"/>
        <pt x="178" y="-301" on="1"/>
        <pt x="178" y="-223" on="1"/>
        <pt x="266" y="-219" on="0"/>
        <pt x="287" y="-155" on="1"/>
        <pt x="301" y="-116" on="0"/>
        <pt x="301" y="-36" on="1"/>
        <pt x="301" y="0" on="1"/>
        <pt x="178" y="0" on="1"/>
      </contour>
    </TTGlyph>
    <TTGlyph name="dollar" xMin="70" yMin="-258" xMax="1064" yMax="1577">
      <contour>
        <pt x="501" y="1577" on="1"/>
        <pt x="622" y="1577" on="1"/>
        <pt x="622" y="1466" on="1"/>
        <pt x="880" y="1448" on="0"/>
        <pt x="976" y="1257" on="1"/>
        <pt x="1015" y="1180" on="0"/>
        <pt x="1019" y="1083" on="1"/>
        <pt x="1019" y="1063" on="1"/>
        <pt x="858" y="1063" on="1"/>
        <pt x="856" y="1221" on="0"/>
        <pt x="739" y="1290" on="1"/>
        <pt x="698" y="1313" on="0"/>
        <pt x="649" y="1321" on="1"/>
        <pt x="636" y="1323" on="0"/>
        <pt x="622" y="1323" on="1"/>
        <pt x="622" y="813" on="1"/>
        <pt x="827" y="750" on="0"/>
        <pt x="890" y="715" on="1"/>
        <pt x="1064" y="616" on="0"/>
        <pt x="1064" y="399" on="1"/>
        <pt x="1064" y="186" on="0"/>
        <pt x="925" y="61" on="1"/>
        <pt x="903" y="41" on="0"/>
        <pt x="876" y="25" on="1"/>
        <pt x="776" y="-34" on="0"/>
        <pt x="622" y="-47" on="1"/>
        <pt x="622" y="-258" on="1"/>
        <pt x="501" y="-258" on="1"/>
        <pt x="501" y="-47" on="1"/>
        <pt x="186" y="-26" on="0"/>
        <pt x="98" y="213" on="1"/>
        <pt x="70" y="293" on="0"/>
        <pt x="70" y="390" on="1"/>
        <pt x="70" y="408" on="0"/>
        <pt x="71" y="426" on="1"/>
        <pt x="233" y="426" on="1"/>
        <pt x="247" y="274" on="0"/>
        <pt x="276" y="225" on="1"/>
        <pt x="280" y="219" on="0"/>
        <pt x="284" y="211" on="1"/>
        <pt x="356" y="113" on="0"/>
        <pt x="501" y="94" on="1"/>
        <pt x="501" y="651" on="1"/>
        <pt x="311" y="709" on="0"/>
        <pt x="243" y="758" on="1"/>
        <pt x="98" y="862" on="0"/>
        <pt x="98" y="1057" on="1"/>
        <pt x="98" y="1356" on="0"/>
        <pt x="384" y="1442" on="1"/>
        <pt x="438" y="1458" on="0"/>
        <pt x="501" y="1466" on="1"/>
      </contour>
      <contour>
        <pt x="501" y="829" on="1"/>
        <pt x="501" y="1321" on="1"/>
        <pt x="305" y="1294" on="0"/>
        <pt x="270" y="1139" on="1"/>
        <pt x="264" y="1110" on="0"/>
        <pt x="264" y="1077" on="1"/>
        <pt x="264" y="893" on="0"/>
      </contour>
      <contour>
        <pt x="622" y="633" on="1"/>
        <pt x="622" y="94" on="1"/>
        <pt x="747" y="109" on="0"/>
        <pt x="810" y="170" on="1"/>
        <pt x="896" y="252" on="0"/>
        <pt x="896" y="375" on="1"/>
        <pt x="896" y="500" on="0"/>
        <pt x="800" y="561" on="1"/>
        <pt x="741" y="598" on="0"/>
      </contour>
    </TTGlyph>
    <TTGlyph name="eight" xMin="74" yMin="0" xMax="1004" yMax="1500">
      <contour>
        <pt x="539" y="1350" on="1"/>
        <pt x="254" y="1350" on="0"/>
        <pt x="254" y="1100" on="1"/>
        <pt x="254" y="850" on="0"/>
        <pt x="539" y="850" on="1"/>
        <pt x="824" y="850" on="0"/>
        <pt x="824" y="1100" on="1"/>
        <pt x="824" y="1350" on="0"/>
      </contour>
      <contour>
        <pt x="539" y="700" on="1"/>
        <pt x="224" y="700" on="0"/>
        <pt x="224" y="425" on="1"/>
        <pt x="224" y="150" on="0"/>
        <pt x="539" y="150" on="1"/>
        <pt x="854" y="150" on="0"/>
        <pt x="854" y="425" on="1"/>
        <pt x="854" y="700" on="0"/>
      </contour>
      <contour>
        <pt x="237" y="780" on="1"/>
        <pt x="104" y="878" on="0"/>
        <pt x="104" y="1100" on="1"/>
        <pt x="104" y="1500" on="0"/>
        <pt x="539" y="1500" on="1"/>
        <pt x="974" y="1500" on="0"/>
        <pt x="974" y="1100" on="1"/>
        <pt x="974" y="878" on="0"/>
        <pt x="841" y="780" on="1"/>
        <pt x="1004" y="677" on="0"/>
        <pt x="1004" y="425" on="1"/>
        <pt x="1004" y="0" on="0"/>
        <pt x="539" y="0" on="1"/>
        <pt x="74" y="0" on="0"/>
        <pt x="74" y="425" on="1"/>
        <pt x="74" y="677" on="0"/>
      </contour>
    </TTGlyph>
    <TTGlyph name="equal" xMin="102" yMin="227" xMax="1093" yMax="723">
      <contour>
        <pt x="1093" y="723" on="1"/>
        <pt x="1093" y="580" on="1"/>
        <pt x="102" y="580" on="1"/>
        <pt x="102" y="723" on="1"/>
      </contour>
      <contour>
        <pt x="1093" y="371" on="1"/>
        <pt x="1093" y="227" on="1"/>
        <pt x="102" y="227" on="1"/>
        <pt x="102" y="371" on="1"/>
      </contour>
    </TTGlyph>
    <TTGlyph name="exclam" xMin="450" yMin="0" xMax="622" yMax="1493">
      <contour>
        <pt x="612" y="1493" on="1"/>
        <pt x="612" y="801" on="1"/>
        <pt x="572" y="344" on="1"/>
        <pt x="502" y="344" on="1"/>
        <pt x="462" y="801" on="1"/>
        <pt x="462" y="1493" on="1"/>
      </contour>
      <contour>
        <pt x="622" y="213" on="1"/>
        <pt x="622" y="0" on="1"/>
        <pt x="450" y="0" on="1"/>
        <pt x="450" y="213" on="1"/>
      </contour>
    </TTGlyph>
    <TTGlyph name="five" xMin="124" yMin="0" xMax="1039" yMax="1500">
      <contour>
        <pt x="1039" y="500" on="1"/>
        <pt x="1039" y="0" on="0"/>
        <pt x="602" y="0" on="1"/>
        <pt x="174" y="0" on="0"/>
        <pt x="124" y="397" on="1"/>
        <pt x="274" y="397" on="1"/>
        <pt x="324" y="150" on="0"/>
        <pt x="602" y="150" on="1"/>
        <pt x="889" y="150" on="0"/>
        <pt x="889" y="500" on="1"/>
        <pt x="889" y="850" on="0"/>
        <pt x="612" y="850" on="1"/>
        <pt x="410" y="850" on="0"/>
        <pt x="324" y="722" on="1"/>
        <pt x="179" y="722" on="1"/>
        <pt x="249" y="1500" on="1"/>
        <pt x="969" y="1500" on="1"/>
        <pt x="969" y="1350" on="1"/>
        <pt x="384" y="1350" on="1"/>
        <pt x="347" y="949" on="1"/>
        <pt x="454" y="1000" on="0"/>
        <pt x="612" y="1000" on="1"/>
        <pt x="1039" y="1000" on="0"/>
      </contour>
    </TTGlyph>
    <TTGlyph name="four" xMin="40" yMin="0" xMax="1040" yMax="1500">
      <contour>
        <pt x="698" y="1231" on="1"/>
        <pt x="221" y="519" on="1"/>
        <pt x="698" y="519" on="1"/>
      </contour>
      <contour>
        <pt x="698" y="1500" on="1"/>
        <pt x="848" y="1500" on="1"/>
        <pt x="848" y="519" on="1"/>
        <pt x="1040" y="519" on="1"/>
        <pt x="1040" y="369" on="1"/>
        <pt x="848" y="369" on="1"/>
        <pt x="848" y="0" on="1"/>
        <pt x="698" y="0" on="1"/>
        <pt x="698" y="369" on="1"/>
        <pt x="40" y="369" on="1"/>
        <pt x="40" y="519" on="1"/>
      </contour>
    </TTGlyph>
    <TTGlyph name="glyph139" xMin="-845" yMin="-650" xMax="600" yMax="1500">
      <contour>
        <pt x="-695" y="-200" on="1"/>
        <pt x="-740" y="-250" on="0"/>
        <pt x="-740" y="-280" on="1"/>
        <pt x="-740" y="-300" on="0"/>
        <pt x="-715" y="-300" on="1"/>
        <pt x="-695" y="-300" on="1"/>
      </contour>
      <contour>
        <pt x="500" y="-450" on="1"/>
        <pt x="500" y="-550" on="0"/>
        <pt x="287" y="-650" on="0"/>
        <pt x="125" y="-650" on="1"/>
        <pt x="5" y="-650" on="0"/>
        <pt x="-65" y="-636" on="1"/>
        <pt x="-134" y="-622" on="0"/>
        <pt x="-152" y="-595" on="1"/>
        <pt x="-169" y="-622" on="0"/>
        <pt x="-223" y="-636" on="1"/>
        <pt x="-277" y="-650" on="0"/>
        <pt x="-375" y="-650" on="1"/>
        <pt x="-525" y="-650" on="0"/>
        <pt x="-695" y="-550" on="0"/>
        <pt x="-695" y="-450" on="1"/>
        <pt x="-695" y="-400" on="1"/>
        <pt x="-720" y="-400" on="1"/>
        <pt x="-783" y="-400" on="0"/>
        <pt x="-814" y="-370" on="1"/>
        <pt x="-845" y="-340" on="0"/>
        <pt x="-845" y="-280" on="1"/>
        <pt x="-845" y="-240" on="0"/>
        <pt x="-807" y="-196" on="1"/>
        <pt x="-770" y="-150" on="0"/>
        <pt x="-695" y="-100" on="0"/>
        <pt x="-600" y="-100" on="1"/>
        <pt x="-495" y="-100" on="0"/>
        <pt x="-495" y="-200" on="1"/>
        <pt x="-495" y="-451" on="1"/>
        <pt x="-495" y="-500" on="0"/>
        <pt x="-450" y="-550" on="0"/>
        <pt x="-375" y="-550" on="1"/>
        <pt x="-310" y="-550" on="0"/>
        <pt x="-245" y="-500" on="0"/>
        <pt x="-245" y="-450" on="1"/>
        <pt x="-245" y="-250" on="1"/>
        <pt x="-245" y="-200" on="0"/>
        <pt x="-325" y="-200" on="1"/>
        <pt x="-325" y="-100" on="0"/>
        <pt x="-225" y="-100" on="1"/>
        <pt x="-45" y="-100" on="0"/>
        <pt x="-45" y="-250" on="1"/>
        <pt x="-45" y="-450" on="1"/>
        <pt x="-45" y="-500" on="0"/>
        <pt x="25" y="-550" on="0"/>
        <pt x="125" y="-550" on="1"/>
        <pt x="200" y="-550" on="0"/>
        <pt x="250" y="-500" on="0"/>
        <pt x="250" y="-450" on="1"/>
        <pt x="250" y="963" on="1"/>
        <pt x="250" y="1020" on="0"/>
        <pt x="83" y="1073" on="1"/>
        <pt x="83" y="1206" on="1"/>
        <pt x="267" y="1500" on="1"/>
        <pt x="507" y="1382" on="0"/>
        <pt x="579" y="1382" on="1"/>
        <pt x="592" y="1382" on="0"/>
        <pt x="600" y="1386" on="1"/>
        <pt x="531" y="1191" on="0"/>
        <pt x="470" y="1183" on="1"/>
        <pt x="464" y="1182" on="0"/>
        <pt x="458" y="1182" on="1"/>
        <pt x="395" y="1182" on="0"/>
        <pt x="264" y="1253" on="1"/>
        <pt x="209" y="1170" on="1"/>
        <pt x="282" y="1138" on="1"/>
        <pt x="355" y="1106" on="1"/>
        <pt x="500" y="1041" on="0"/>
        <pt x="500" y="980" on="1"/>
      </contour>
    </TTGlyph>
    <TTGlyph name="glyph144" xMin="-1155" yMin="-650" xMax="600" yMax="1500">
      <contour>
        <pt x="500" y="-450" on="1"/>
        <pt x="500" y="-550" on="0"/>
        <pt x="277" y="-650" on="0"/>
        <pt x="105" y="-650" on="1"/>
        <pt x="15" y="-650" on="0"/>
        <pt x="-48" y="-635" on="1"/>
        <pt x="-111" y="-620" on="0"/>
        <pt x="-149" y="-590" on="1"/>
        <pt x="-186" y="-620" on="0"/>
        <pt x="-243" y="-635" on="1"/>
        <pt x="-299" y="-650" on="0"/>
        <pt x="-375" y="-650" on="1"/>
        <pt x="-525" y="-650" on="0"/>
        <pt x="-695" y="-550" on="0"/>
        <pt x="-695" y="-450" on="1"/>
        <pt x="-695" y="-300" on="1"/>
        <pt x="-695" y="-250" on="0"/>
        <pt x="-750" y="-200" on="0"/>
        <pt x="-825" y="-200" on="1"/>
        <pt x="-900" y="-200" on="0"/>
        <pt x="-955" y="-250" on="0"/>
        <pt x="-955" y="-300" on="1"/>
        <pt x="-955" y="-400" on="1"/>
        <pt x="-930" y="-400" on="1"/>
        <pt x="-855" y="-400" on="0"/>
        <pt x="-855" y="-450" on="1"/>
        <pt x="-855" y="-498" on="0"/>
        <pt x="-905" y="-575" on="1"/>
        <pt x="-955" y="-650" on="0"/>
        <pt x="-1050" y="-650" on="1"/>
        <pt x="-1155" y="-650" on="0"/>
        <pt x="-1155" y="-550" on="1"/>
        <pt x="-1155" y="-299" on="1"/>
        <pt x="-1155" y="-200" on="0"/>
        <pt x="-975" y="-100" on="0"/>
        <pt x="-825" y="-100" on="1"/>
        <pt x="-675" y="-100" on="0"/>
        <pt x="-495" y="-200" on="0"/>
        <pt x="-495" y="-300" on="1"/>
        <pt x="-495" y="-451" on="1"/>
        <pt x="-495" y="-500" on="0"/>
        <pt x="-450" y="-550" on="0"/>
        <pt x="-375" y="-550" on="1"/>
        <pt x="-300" y="-550" on="0"/>
        <pt x="-245" y="-500" on="0"/>
        <pt x="-245" y="-449" on="1"/>
        <pt x="-245" y="-250" on="1"/>
        <pt x="-245" y="-200" on="0"/>
        <pt x="-325" y="-200" on="1"/>
        <pt x="-325" y="-100" on="0"/>
        <pt x="-225" y="-100" on="1"/>
        <pt x="-45" y="-100" on="0"/>
        <pt x="-45" y="-250" on="1"/>
        <pt x="-45" y="-457" on="1"/>
        <pt x="-45" y="-494" on="0"/>
        <pt x="2" y="-550" on="0"/>
        <pt x="105" y="-550" on="1"/>
        <pt x="190" y="-550" on="0"/>
        <pt x="250" y="-500" on="0"/>
        <pt x="250" y="-450" on="1"/>
        <pt x="250" y="963" on="1"/>
        <pt x="250" y="1020" on="0"/>
        <pt x="83" y="1073" on="1"/>
        <pt x="83" y="1206" on="1"/>
        <pt x="267" y="1500" on="1"/>
        <pt x="507" y="1382" on="0"/>
        <pt x="579" y="1382" on="1"/>
        <pt x="592" y="1382" on="0"/>
        <pt x="600" y="1386" on="1"/>
        <pt x="531" y="1191" on="0"/>
        <pt x="470" y="1183" on="1"/>
        <pt x="464" y="1182" on="0"/>
        <pt x="458" y="1182" on="1"/>
        <pt x="395" y="1182" on="0"/>
        <pt x="264" y="1253" on="1"/>
        <pt x="209" y="1170" on="1"/>
        <pt x="282" y="1138" on="1"/>
        <pt x="355" y="1106" on="1"/>
        <pt x="500" y="1041" on="0"/>
        <pt x="500" y="980" on="1"/>
      </contour>
    </TTGlyph>
    <TTGlyph name="glyph146" xMin="-1725" yMin="-670" xMax="-325" yMax="-98">
      <contour>
        <pt x="-1473" y="-98" on="1"/>
        <pt x="-1421" y="-98" on="0"/>
        <pt x="-1327" y="-152" on="1"/>
        <pt x="-1228" y="-98" on="0"/>
        <pt x="-1182" y="-98" on="1"/>
        <pt x="-1137" y="-98" on="0"/>
        <pt x="-1033" y="-170" on="1"/>
        <pt x="-811" y="-98" on="0"/>
        <pt x="-725" y="-98" on="1"/>
        <pt x="-639" y="-98" on="0"/>
        <pt x="-325" y="-201" on="1"/>
        <pt x="-325" y="-382" on="1"/>
        <pt x="-525" y="-382" on="1"/>
        <pt x="-525" y="-283" on="1"/>
        <pt x="-782" y="-179" on="1"/>
        <pt x="-925" y="-239" on="1"/>
        <pt x="-925" y="-382" on="1"/>
        <pt x="-1125" y="-382" on="1"/>
        <pt x="-1125" y="-219" on="1"/>
        <pt x="-1145" y="-198" on="0"/>
        <pt x="-1179" y="-198" on="1"/>
        <pt x="-1234" y="-198" on="0"/>
        <pt x="-1326" y="-250" on="1"/>
        <pt x="-1422" y="-194" on="0"/>
        <pt x="-1478" y="-194" on="1"/>
        <pt x="-1507" y="-194" on="0"/>
        <pt x="-1525" y="-209" on="1"/>
        <pt x="-1525" y="-236" on="1"/>
        <pt x="-1445" y="-236" on="0"/>
        <pt x="-1445" y="-277" on="1"/>
        <pt x="-1445" y="-341" on="0"/>
        <pt x="-1525" y="-382" on="0"/>
        <pt x="-1625" y="-382" on="1"/>
        <pt x="-1725" y="-382" on="0"/>
        <pt x="-1725" y="-291" on="1"/>
        <pt x="-1725" y="-200" on="0"/>
        <pt x="-1525" y="-98" on="0"/>
      </contour>
      <contour>
        <pt x="-325" y="-546" on="1"/>
        <pt x="-325" y="-670" on="0"/>
        <pt x="-675" y="-670" on="1"/>
        <pt x="-925" y="-670" on="0"/>
        <pt x="-1120" y="-608" on="1"/>
        <pt x="-1315" y="-546" on="0"/>
        <pt x="-1475" y="-546" on="1"/>
        <pt x="-1600" y="-546" on="0"/>
        <pt x="-1725" y="-620" on="1"/>
        <pt x="-1725" y="-579" on="1"/>
        <pt x="-1725" y="-538" on="0"/>
        <pt x="-1600" y="-464" on="0"/>
        <pt x="-1475" y="-464" on="1"/>
        <pt x="-1275" y="-464" on="0"/>
        <pt x="-1075" y="-526" on="1"/>
        <pt x="-875" y="-587" on="0"/>
        <pt x="-675" y="-587" on="1"/>
        <pt x="-525" y="-587" on="0"/>
        <pt x="-525" y="-546" on="1"/>
        <pt x="-525" y="-505" on="0"/>
        <pt x="-575" y="-505" on="1"/>
        <pt x="-575" y="-423" on="0"/>
        <pt x="-475" y="-423" on="1"/>
        <pt x="-325" y="-423" on="0"/>
      </contour>
    </TTGlyph>
    <TTGlyph name="glyph150" xMin="-1125" yMin="-650" xMax="600" yMax="1500">
      <contour>
        <pt x="-878" y="-464" on="1"/>
        <pt x="-878" y="-450" on="0"/>
        <pt x="-905" y="-450" on="1"/>
        <pt x="-925" y="-450" on="1"/>
        <pt x="-925" y="-510" on="1"/>
        <pt x="-900" y="-502" on="0"/>
        <pt x="-878" y="-480" on="0"/>
      </contour>
      <contour>
        <pt x="500" y="-449" on="1"/>
        <pt x="500" y="-550" on="0"/>
        <pt x="307" y="-650" on="0"/>
        <pt x="165" y="-650" on="1"/>
        <pt x="74" y="-650" on="0"/>
        <pt x="32" y="-623" on="1"/>
        <pt x="-11" y="-597" on="0"/>
        <pt x="-78" y="-543" on="1"/>
        <pt x="-145" y="-490" on="0"/>
        <pt x="-172" y="-475" on="1"/>
        <pt x="-200" y="-460" on="0"/>
        <pt x="-225" y="-460" on="1"/>
        <pt x="-265" y="-460" on="1"/>
        <pt x="-265" y="-550" on="1"/>
        <pt x="-265" y="-650" on="0"/>
        <pt x="-370" y="-650" on="1"/>
        <pt x="-465" y="-650" on="0"/>
        <pt x="-565" y="-520" on="0"/>
        <pt x="-565" y="-460" on="1"/>
        <pt x="-565" y="-360" on="0"/>
        <pt x="-465" y="-360" on="1"/>
        <pt x="-465" y="-356" on="1"/>
        <pt x="-465" y="-268" on="0"/>
        <pt x="-519" y="-244" on="1"/>
        <pt x="-527" y="-241" on="0"/>
        <pt x="-536" y="-241" on="1"/>
        <pt x="-592" y="-241" on="0"/>
        <pt x="-699" y="-357" on="1"/>
        <pt x="-808" y="-241" on="0"/>
        <pt x="-859" y="-241" on="1"/>
        <pt x="-868" y="-241" on="0"/>
        <pt x="-875" y="-244" on="1"/>
        <pt x="-923" y="-267" on="0"/>
        <pt x="-925" y="-350" on="1"/>
        <pt x="-875" y="-350" on="1"/>
        <pt x="-826" y="-350" on="0"/>
        <pt x="-800" y="-400" on="1"/>
        <pt x="-787" y="-425" on="0"/>
        <pt x="-787" y="-457" on="1"/>
        <pt x="-787" y="-485" on="0"/>
        <pt x="-825" y="-550" on="0"/>
        <pt x="-925" y="-650" on="0"/>
        <pt x="-1020" y="-650" on="1"/>
        <pt x="-1125" y="-650" on="0"/>
        <pt x="-1125" y="-550" on="1"/>
        <pt x="-1125" y="-356" on="1"/>
        <pt x="-1125" y="-244" on="0"/>
        <pt x="-915" y="-100" on="0"/>
        <pt x="-862" y="-100" on="1"/>
        <pt x="-818" y="-100" on="0"/>
        <pt x="-699" y="-204" on="1"/>
        <pt x="-580" y="-100" on="0"/>
        <pt x="-536" y="-100" on="1"/>
        <pt x="-484" y="-100" on="0"/>
        <pt x="-265" y="-244" on="0"/>
        <pt x="-265" y="-356" on="1"/>
        <pt x="-265" y="-360" on="1"/>
        <pt x="-225" y="-360" on="1"/>
        <pt x="-174" y="-360" on="0"/>
        <pt x="-130" y="-385" on="1"/>
        <pt x="-87" y="-411" on="0"/>
        <pt x="-18" y="-464" on="1"/>
        <pt x="51" y="-517" on="0"/>
        <pt x="76" y="-533" on="1"/>
        <pt x="100" y="-550" on="0"/>
        <pt x="165" y="-550" on="1"/>
        <pt x="200" y="-550" on="0"/>
        <pt x="250" y="-500" on="0"/>
        <pt x="250" y="-450" on="1"/>
        <pt x="250" y="963" on="1"/>
        <pt x="250" y="1020" on="0"/>
        <pt x="83" y="1073" on="1"/>
        <pt x="83" y="1206" on="1"/>
        <pt x="267" y="1500" on="1"/>
        <pt x="507" y="1382" on="0"/>
        <pt x="579" y="1382" on="1"/>
        <pt x="592" y="1382" on="0"/>
        <pt x="600" y="1386" on="1"/>
        <pt x="531" y="1191" on="0"/>
        <pt x="470" y="1183" on="1"/>
        <pt x="464" y="1182" on="0"/>
        <pt x="458" y="1182" on="1"/>
        <pt x="395" y="1182" on="0"/>
        <pt x="264" y="1253" on="1"/>
        <pt x="209" y="1170" on="1"/>
        <pt x="282" y="1138" on="1"/>
        <pt x="355" y="1106" on="1"/>
        <pt x="500" y="1041" on="0"/>
        <pt x="500" y="980" on="1"/>
      </contour>
    </TTGlyph>
    <TTGlyph name="glyph157" xMin="-400" yMin="-650" xMax="600" yMax="1500">
      <contour>
        <pt x="-200" y="-300" on="1"/>
        <pt x="-150" y="-300" on="0"/>
        <pt x="-150" y="-250" on="1"/>
        <pt x="-150" y="-200" on="0"/>
        <pt x="-200" y="-200" on="1"/>
      </contour>
      <contour>
        <pt x="500" y="-550" on="1"/>
        <pt x="500" y="-650" on="0"/>
        <pt x="375" y="-650" on="1"/>
        <pt x="300" y="-650" on="0"/>
        <pt x="266" y="-627" on="1"/>
        <pt x="25" y="-473" on="1"/>
        <pt x="-215" y="-627" on="1"/>
        <pt x="-250" y="-650" on="0"/>
        <pt x="-325" y="-650" on="1"/>
        <pt x="-400" y="-650" on="0"/>
        <pt x="-400" y="-550" on="1"/>
        <pt x="-400" y="-200" on="1"/>
        <pt x="-400" y="-100" on="0"/>
        <pt x="-200" y="-100" on="1"/>
        <pt x="-50" y="-100" on="0"/>
        <pt x="-50" y="-250" on="1"/>
        <pt x="-50" y="-400" on="0"/>
        <pt x="-200" y="-400" on="1"/>
        <pt x="-200" y="-498" on="1"/>
        <pt x="-43" y="-398" on="1"/>
        <pt x="-9" y="-376" on="0"/>
        <pt x="25" y="-376" on="1"/>
        <pt x="60" y="-376" on="0"/>
        <pt x="94" y="-398" on="1"/>
        <pt x="250" y="-498" on="1"/>
        <pt x="250" y="963" on="1"/>
        <pt x="250" y="1020" on="0"/>
        <pt x="83" y="1073" on="1"/>
        <pt x="83" y="1206" on="1"/>
        <pt x="267" y="1500" on="1"/>
        <pt x="507" y="1382" on="0"/>
        <pt x="579" y="1382" on="1"/>
        <pt x="592" y="1382" on="0"/>
        <pt x="600" y="1386" on="1"/>
        <pt x="531" y="1191" on="0"/>
        <pt x="470" y="1183" on="1"/>
        <pt x="464" y="1182" on="0"/>
        <pt x="458" y="1182" on="1"/>
        <pt x="395" y="1182" on="0"/>
        <pt x="264" y="1253" on="1"/>
        <pt x="209" y="1170" on="1"/>
        <pt x="282" y="1138" on="1"/>
        <pt x="355" y="1106" on="1"/>
        <pt x="500" y="1041" on="0"/>
        <pt x="500" y="980" on="1"/>
      </contour>
    </TTGlyph>
    <TTGlyph name="glyph162" xMin="-400" yMin="-650" xMax="600" yMax="1500">
      <contour>
        <pt x="-200" y="-300" on="1"/>
        <pt x="-150" y="-300" on="0"/>
        <pt x="-150" y="-250" on="1"/>
        <pt x="-150" y="-200" on="0"/>
        <pt x="-200" y="-200" on="1"/>
      </contour>
      <contour>
        <pt x="500" y="-450" on="1"/>
        <pt x="500" y="-550" on="0"/>
        <pt x="238" y="-650" on="0"/>
        <pt x="25" y="-650" on="1"/>
        <pt x="-175" y="-650" on="0"/>
        <pt x="-287" y="-600" on="1"/>
        <pt x="-400" y="-550" on="0"/>
        <pt x="-400" y="-450" on="1"/>
        <pt x="-400" y="-200" on="1"/>
        <pt x="-400" y="-100" on="0"/>
        <pt x="-200" y="-100" on="1"/>
        <pt x="-50" y="-100" on="0"/>
        <pt x="-50" y="-250" on="1"/>
        <pt x="-50" y="-400" on="0"/>
        <pt x="-200" y="-400" on="1"/>
        <pt x="-200" y="-450" on="1"/>
        <pt x="-200" y="-500" on="0"/>
        <pt x="-100" y="-550" on="0"/>
        <pt x="25" y="-550" on="1"/>
        <pt x="150" y="-550" on="0"/>
        <pt x="250" y="-500" on="0"/>
        <pt x="250" y="-450" on="1"/>
        <pt x="250" y="963" on="1"/>
        <pt x="250" y="1020" on="0"/>
        <pt x="83" y="1073" on="1"/>
        <pt x="83" y="1206" on="1"/>
        <pt x="267" y="1500" on="1"/>
        <pt x="507" y="1382" on="0"/>
        <pt x="579" y="1382" on="1"/>
        <pt x="592" y="1382" on="0"/>
        <pt x="600" y="1386" on="1"/>
        <pt x="531" y="1191" on="0"/>
        <pt x="470" y="1183" on="1"/>
        <pt x="464" y="1182" on="0"/>
        <pt x="458" y="1182" on="1"/>
        <pt x="395" y="1182" on="0"/>
        <pt x="264" y="1253" on="1"/>
        <pt x="209" y="1170" on="1"/>
        <pt x="282" y="1138" on="1"/>
        <pt x="355" y="1106" on="1"/>
        <pt x="500" y="1041" on="0"/>
        <pt x="500" y="980" on="1"/>
      </contour>
    </TTGlyph>
    <TTGlyph name="glyph166" xMin="-550" yMin="-650" xMax="630" yMax="1500">
      <contour>
        <pt x="-400" y="-200" on="1"/>
        <pt x="-450" y="-200" on="0"/>
        <pt x="-450" y="-250" on="1"/>
        <pt x="-450" y="-300" on="0"/>
        <pt x="-400" y="-300" on="1"/>
      </contour>
      <contour>
        <pt x="500" y="100" on="1"/>
        <pt x="518" y="100" on="0"/>
        <pt x="549" y="112" on="1"/>
        <pt x="580" y="125" on="0"/>
        <pt x="580" y="150" on="1"/>
        <pt x="605" y="150" on="0"/>
        <pt x="618" y="138" on="1"/>
        <pt x="630" y="125" on="0"/>
        <pt x="630" y="100" on="1"/>
        <pt x="630" y="50" on="0"/>
        <pt x="586" y="25" on="1"/>
        <pt x="542" y="0" on="0"/>
        <pt x="500" y="0" on="1"/>
        <pt x="500" y="-450" on="1"/>
        <pt x="500" y="-550" on="0"/>
        <pt x="238" y="-650" on="0"/>
        <pt x="25" y="-650" on="1"/>
        <pt x="-175" y="-650" on="0"/>
        <pt x="-287" y="-600" on="1"/>
        <pt x="-400" y="-550" on="0"/>
        <pt x="-400" y="-450" on="1"/>
        <pt x="-400" y="-400" on="1"/>
        <pt x="-550" y="-400" on="0"/>
        <pt x="-550" y="-250" on="1"/>
        <pt x="-550" y="-100" on="0"/>
        <pt x="-400" y="-100" on="1"/>
        <pt x="-200" y="-100" on="0"/>
        <pt x="-200" y="-200" on="1"/>
        <pt x="-200" y="-450" on="1"/>
        <pt x="-200" y="-500" on="0"/>
        <pt x="-100" y="-550" on="0"/>
        <pt x="25" y="-550" on="1"/>
        <pt x="150" y="-550" on="0"/>
        <pt x="250" y="-500" on="0"/>
        <pt x="250" y="-450" on="1"/>
        <pt x="250" y="-1" on="1"/>
        <pt x="150" y="0" on="1"/>
        <pt x="150" y="100" on="1"/>
        <pt x="250" y="100" on="1"/>
        <pt x="250" y="963" on="1"/>
        <pt x="250" y="1020" on="0"/>
        <pt x="83" y="1073" on="1"/>
        <pt x="83" y="1206" on="1"/>
        <pt x="267" y="1500" on="1"/>
        <pt x="507" y="1382" on="0"/>
        <pt x="579" y="1382" on="1"/>
        <pt x="592" y="1382" on="0"/>
        <pt x="600" y="1386" on="1"/>
        <pt x="531" y="1191" on="0"/>
        <pt x="470" y="1183" on="1"/>
        <pt x="464" y="1182" on="0"/>
        <pt x="458" y="1182" on="1"/>
        <pt x="395" y="1182" on="0"/>
        <pt x="264" y="1253" on="1"/>
        <pt x="209" y="1170" on="1"/>
        <pt x="282" y="1138" on="1"/>
        <pt x="355" y="1106" on="1"/>
        <pt x="500" y="1041" on="0"/>
        <pt x="500" y="980" on="1"/>
      </contour>
    </TTGlyph>
    <TTGlyph name="glyph169" xMin="-550" yMin="-1200" xMax="-300" yMax="-700">
      <contour>
        <pt x="-500" y="-1200" on="1"/>
        <pt x="-500" y="-836" on="1"/>
        <pt x="-500" y="-790" on="0"/>
        <pt x="-550" y="-790" on="1"/>
        <pt x="-550" y="-700" on="0"/>
        <pt x="-400" y="-700" on="1"/>
        <pt x="-300" y="-700" on="0"/>
        <pt x="-300" y="-790" on="1"/>
        <pt x="-300" y="-1200" on="1"/>
      </contour>
    </TTGlyph>
    <TTGlyph name="glyph170" xMin="-1000" yMin="-1200" xMax="-250" yMax="-700">
      <contour>
        <pt x="-720" y="-700" on="1"/>
        <pt x="-650" y="-700" on="0"/>
        <pt x="-650" y="-792" on="1"/>
        <pt x="-650" y="-871" on="0"/>
        <pt x="-689" y="-911" on="1"/>
        <pt x="-800" y="-1032" on="1"/>
        <pt x="-800" y="-1109" on="0"/>
        <pt x="-756" y="-1109" on="1"/>
        <pt x="-610" y="-1046" on="0"/>
        <pt x="-498" y="-827" on="1"/>
        <pt x="-443" y="-700" on="0"/>
        <pt x="-296" y="-700" on="1"/>
        <pt x="-250" y="-700" on="0"/>
        <pt x="-250" y="-722" on="1"/>
        <pt x="-250" y="-743" on="0"/>
        <pt x="-264" y="-756" on="1"/>
        <pt x="-278" y="-767" on="0"/>
        <pt x="-323" y="-849" on="1"/>
        <pt x="-487" y="-1135" on="0"/>
        <pt x="-756" y="-1200" on="1"/>
        <pt x="-1000" y="-1200" on="0"/>
        <pt x="-1000" y="-1032" on="1"/>
        <pt x="-1000" y="-963" on="0"/>
        <pt x="-954" y="-940" on="1"/>
        <pt x="-750" y="-863" on="0"/>
        <pt x="-750" y="-835" on="1"/>
        <pt x="-750" y="-790" on="0"/>
        <pt x="-850" y="-790" on="1"/>
        <pt x="-850" y="-700" on="0"/>
      </contour>
    </TTGlyph>
    <TTGlyph name="glyph171" xMin="-1050" yMin="-1200" xMax="-300" yMax="-700">
      <contour>
        <pt x="-720" y="-700" on="1"/>
        <pt x="-650" y="-700" on="0"/>
        <pt x="-650" y="-790" on="1"/>
        <pt x="-650" y="-927" on="0"/>
        <pt x="-850" y="-1042" on="1"/>
        <pt x="-850" y="-1110" on="0"/>
        <pt x="-799" y="-1110" on="1"/>
        <pt x="-666" y="-1019" on="1"/>
        <pt x="-601" y="-1110" on="1"/>
        <pt x="-501" y="-1040" on="0"/>
        <pt x="-501" y="-791" on="1"/>
        <pt x="-500" y="-700" on="0"/>
        <pt x="-350" y="-700" on="1"/>
        <pt x="-301" y="-700" on="0"/>
        <pt x="-300" y="-722" on="1"/>
        <pt x="-300" y="-746" on="0"/>
        <pt x="-309" y="-790" on="1"/>
        <pt x="-392" y="-1174" on="0"/>
        <pt x="-636" y="-1200" on="1"/>
        <pt x="-692" y="-1110" on="1"/>
        <pt x="-792" y="-1200" on="1"/>
        <pt x="-1050" y="-1200" on="0"/>
        <pt x="-1050" y="-1063" on="1"/>
        <pt x="-1050" y="-972" on="1"/>
        <pt x="-750" y="-879" on="0"/>
        <pt x="-750" y="-836" on="1"/>
        <pt x="-750" y="-790" on="0"/>
        <pt x="-850" y="-790" on="1"/>
        <pt x="-850" y="-700" on="0"/>
      </contour>
    </TTGlyph>
    <TTGlyph name="glyph172" xMin="-1100" yMin="2050" xMax="-200" yMax="2450">
      <contour>
        <pt x="-1100" y="2150" on="1"/>
        <pt x="-1100" y="2450" on="0"/>
        <pt x="-740" y="2450" on="1"/>
        <pt x="-621" y="2450" on="0"/>
        <pt x="-305" y="2225" on="1"/>
        <pt x="-200" y="2150" on="1"/>
        <pt x="-200" y="2050" on="1"/>
        <pt x="-860" y="2050" on="1"/>
        <pt x="-1100" y="2050" on="0"/>
      </contour>
      <contour>
        <pt x="-740" y="2250" on="1"/>
        <pt x="-900" y="2250" on="0"/>
        <pt x="-900" y="2150" on="1"/>
        <pt x="-392" y="2150" on="1"/>
        <pt x="-534" y="2250" on="0"/>
      </contour>
    </TTGlyph>
    <TTGlyph name="glyph173" xMin="-1100" yMin="2050" xMax="-200" yMax="2500">
      <contour>
        <pt x="-1100" y="2150" on="1"/>
        <pt x="-1100" y="2450" on="0"/>
        <pt x="-740" y="2450" on="1"/>
        <pt x="-635" y="2450" on="0"/>
        <pt x="-380" y="2277" on="1"/>
        <pt x="-380" y="2500" on="1"/>
        <pt x="-200" y="2500" on="1"/>
        <pt x="-200" y="2050" on="1"/>
        <pt x="-860" y="2050" on="1"/>
        <pt x="-1100" y="2050" on="0"/>
      </contour>
      <contour>
        <pt x="-740" y="2250" on="1"/>
        <pt x="-900" y="2250" on="0"/>
        <pt x="-900" y="2150" on="1"/>
        <pt x="-392" y="2150" on="1"/>
        <pt x="-534" y="2250" on="0"/>
      </contour>
    </TTGlyph>
    <TTGlyph name="glyph174" xMin="-1100" yMin="2050" xMax="-150" yMax="2499">
      <contour>
        <pt x="-1100" y="2150" on="1"/>
        <pt x="-1100" y="2450" on="0"/>
        <pt x="-764" y="2450" on="1"/>
        <pt x="-692" y="2450" on="0"/>
        <pt x="-538" y="2352" on="1"/>
        <pt x="-524" y="2499" on="0"/>
        <pt x="-345" y="2499" on="1"/>
        <pt x="-150" y="2499" on="0"/>
        <pt x="-150" y="2324" on="1"/>
        <pt x="-150" y="2186" on="0"/>
        <pt x="-270" y="2157" on="1"/>
        <pt x="-261" y="2150" on="1"/>
        <pt x="-261" y="2050" on="1"/>
        <pt x="-876" y="2050" on="1"/>
        <pt x="-1100" y="2050" on="0"/>
      </contour>
      <contour>
        <pt x="-764" y="2250" on="1"/>
        <pt x="-900" y="2250" on="0"/>
        <pt x="-900" y="2150" on="1"/>
        <pt x="-440" y="2150" on="1"/>
        <pt x="-573" y="2250" on="0"/>
      </contour>
      <contour>
        <pt x="-345" y="2249" on="1"/>
        <pt x="-261" y="2249" on="0"/>
        <pt x="-261" y="2324" on="1"/>
        <pt x="-261" y="2399" on="0"/>
        <pt x="-345" y="2399" on="1"/>
        <pt x="-429" y="2399" on="0"/>
        <pt x="-429" y="2324" on="1"/>
        <pt x="-429" y="2249" on="0"/>
      </contour>
    </TTGlyph>
    <TTGlyph name="glyph175" xMin="-1100" yMin="2050" xMax="-200" yMax="2500">
      <contour>
        <pt x="-1100" y="2150" on="1"/>
        <pt x="-1100" y="2450" on="0"/>
        <pt x="-740" y="2450" on="1"/>
        <pt x="-677" y="2450" on="0"/>
        <pt x="-560" y="2387" on="1"/>
        <pt x="-560" y="2500" on="1"/>
        <pt x="-440" y="2500" on="1"/>
        <pt x="-440" y="2316" on="1"/>
        <pt x="-383" y="2280" on="0"/>
        <pt x="-320" y="2235" on="1"/>
        <pt x="-320" y="2500" on="1"/>
        <pt x="-200" y="2500" on="1"/>
        <pt x="-200" y="2050" on="1"/>
        <pt x="-860" y="2050" on="1"/>
        <pt x="-1100" y="2050" on="0"/>
      </contour>
      <contour>
        <pt x="-740" y="2250" on="1"/>
        <pt x="-900" y="2250" on="0"/>
        <pt x="-900" y="2150" on="1"/>
        <pt x="-392" y="2150" on="1"/>
        <pt x="-534" y="2250" on="0"/>
      </contour>
    </TTGlyph>
    <TTGlyph name="glyph176" xMin="-935" yMin="2050" xMax="-465" yMax="2500">
      <contour>
        <pt x="-760" y="2275" on="1"/>
        <pt x="-760" y="2225" on="0"/>
        <pt x="-730" y="2175" on="0"/>
        <pt x="-700" y="2175" on="1"/>
        <pt x="-670" y="2175" on="0"/>
        <pt x="-640" y="2225" on="0"/>
        <pt x="-640" y="2275" on="1"/>
        <pt x="-640" y="2325" on="0"/>
        <pt x="-670" y="2375" on="0"/>
        <pt x="-700" y="2375" on="1"/>
        <pt x="-730" y="2375" on="0"/>
        <pt x="-760" y="2325" on="0"/>
      </contour>
      <contour>
        <pt x="-465" y="2275" on="1"/>
        <pt x="-465" y="2162" on="0"/>
        <pt x="-587" y="2050" on="0"/>
        <pt x="-700" y="2050" on="1"/>
        <pt x="-813" y="2050" on="0"/>
        <pt x="-935" y="2162" on="0"/>
        <pt x="-935" y="2275" on="1"/>
        <pt x="-935" y="2388" on="0"/>
        <pt x="-813" y="2500" on="0"/>
        <pt x="-700" y="2500" on="1"/>
        <pt x="-587" y="2500" on="0"/>
        <pt x="-465" y="2388" on="0"/>
      </contour>
    </TTGlyph>
    <TTGlyph name="glyph177" xMin="-940" yMin="2021" xMax="-460" yMax="2500">
      <contour>
        <pt x="-790" y="2170" on="1"/>
        <pt x="-940" y="2170" on="1"/>
        <pt x="-940" y="2351" on="1"/>
        <pt x="-790" y="2351" on="1"/>
        <pt x="-790" y="2500" on="1"/>
        <pt x="-610" y="2500" on="1"/>
        <pt x="-610" y="2351" on="1"/>
        <pt x="-460" y="2351" on="1"/>
        <pt x="-460" y="2170" on="1"/>
        <pt x="-610" y="2170" on="1"/>
        <pt x="-610" y="2021" on="1"/>
        <pt x="-790" y="2021" on="1"/>
      </contour>
    </TTGlyph>
    <TTGlyph name="glyph178" xMin="-820" yMin="2000" xMax="-100" yMax="2500">
      <contour>
        <pt x="-620" y="2328" on="1"/>
        <pt x="-490" y="2328" on="0"/>
        <pt x="-490" y="2230" on="1"/>
        <pt x="-490" y="2141" on="0"/>
        <pt x="-565" y="2141" on="1"/>
        <pt x="-630" y="2141" on="0"/>
        <pt x="-640" y="2188" on="1"/>
        <pt x="-640" y="2095" on="0"/>
        <pt x="-540" y="2095" on="1"/>
        <pt x="-425" y="2095" on="0"/>
        <pt x="-362" y="2144" on="1"/>
        <pt x="-300" y="2194" on="0"/>
        <pt x="-300" y="2294" on="1"/>
        <pt x="-300" y="2406" on="0"/>
        <pt x="-350" y="2406" on="1"/>
        <pt x="-400" y="2406" on="0"/>
        <pt x="-400" y="2453" on="1"/>
        <pt x="-400" y="2500" on="0"/>
        <pt x="-350" y="2500" on="1"/>
        <pt x="-225" y="2500" on="0"/>
        <pt x="-162" y="2448" on="1"/>
        <pt x="-100" y="2397" on="0"/>
        <pt x="-100" y="2294" on="1"/>
        <pt x="-100" y="2146" on="0"/>
        <pt x="-212" y="2073" on="1"/>
        <pt x="-325" y="2000" on="0"/>
        <pt x="-540" y="2000" on="1"/>
        <pt x="-695" y="2000" on="0"/>
        <pt x="-758" y="2047" on="1"/>
        <pt x="-820" y="2094" on="0"/>
        <pt x="-820" y="2188" on="1"/>
        <pt x="-820" y="2328" on="0"/>
      </contour>
    </TTGlyph>
    <TTGlyph name="glyph179" xMin="200" yMin="0" xMax="1800" yMax="1500">
      <contour>
        <pt x="531" y="375" on="1"/>
        <pt x="513" y="400" on="0"/>
        <pt x="475" y="400" on="1"/>
        <pt x="450" y="400" on="1"/>
        <pt x="450" y="200" on="1"/>
        <pt x="450" y="140" on="0"/>
        <pt x="475" y="140" on="1"/>
        <pt x="500" y="140" on="0"/>
        <pt x="525" y="190" on="1"/>
        <pt x="550" y="240" on="0"/>
        <pt x="550" y="300" on="1"/>
        <pt x="550" y="350" on="0"/>
      </contour>
      <contour>
        <pt x="1150" y="0" on="1"/>
        <pt x="900" y="0" on="1"/>
        <pt x="900" y="1200" on="1"/>
        <pt x="900" y="1304" on="0"/>
        <pt x="853" y="1342" on="1"/>
        <pt x="845" y="1348" on="0"/>
        <pt x="834" y="1348" on="1"/>
        <pt x="783" y="1348" on="0"/>
        <pt x="675" y="1200" on="1"/>
        <pt x="568" y="1348" on="0"/>
        <pt x="517" y="1348" on="1"/>
        <pt x="506" y="1348" on="0"/>
        <pt x="498" y="1342" on="1"/>
        <pt x="450" y="1304" on="0"/>
        <pt x="450" y="1200" on="1"/>
        <pt x="450" y="500" on="1"/>
        <pt x="475" y="500" on="1"/>
        <pt x="563" y="500" on="0"/>
        <pt x="606" y="450" on="1"/>
        <pt x="650" y="400" on="0"/>
        <pt x="650" y="300" on="1"/>
        <pt x="650" y="150" on="0"/>
        <pt x="600" y="75" on="1"/>
        <pt x="550" y="0" on="0"/>
        <pt x="450" y="0" on="1"/>
        <pt x="200" y="0" on="0"/>
        <pt x="200" y="200" on="1"/>
        <pt x="200" y="1200" on="1"/>
        <pt x="200" y="1322" on="0"/>
        <pt x="445" y="1500" on="0"/>
        <pt x="504" y="1500" on="1"/>
        <pt x="554" y="1500" on="0"/>
        <pt x="675" y="1366" on="1"/>
        <pt x="797" y="1500" on="0"/>
        <pt x="847" y="1500" on="1"/>
        <pt x="906" y="1500" on="0"/>
        <pt x="1028" y="1411" on="1"/>
        <pt x="1043" y="1400" on="0"/>
        <pt x="1056" y="1389" on="1"/>
        <pt x="1075" y="1412" on="0"/>
        <pt x="1100" y="1430" on="1"/>
        <pt x="1200" y="1500" on="0"/>
        <pt x="1350" y="1500" on="1"/>
        <pt x="1550" y="1500" on="0"/>
        <pt x="1800" y="1360" on="0"/>
        <pt x="1800" y="1207" on="1"/>
        <pt x="1800" y="0" on="1"/>
        <pt x="1550" y="0" on="1"/>
        <pt x="1550" y="1207" on="1"/>
        <pt x="1550" y="1307" on="0"/>
        <pt x="1450" y="1400" on="0"/>
        <pt x="1350" y="1400" on="1"/>
        <pt x="1250" y="1400" on="0"/>
        <pt x="1150" y="1307" on="0"/>
        <pt x="1150" y="1207" on="1"/>
      </contour>
    </TTGlyph>
    <TTGlyph name="glyph180" xMin="-1775" yMin="-650" xMax="-975" yMax="-100">
      <contour>
        <pt x="-1575" y="-518" on="1"/>
        <pt x="-1525" y="-474" on="0"/>
        <pt x="-1525" y="-449" on="1"/>
        <pt x="-1525" y="-420" on="0"/>
        <pt x="-1575" y="-420" on="1"/>
      </contour>
      <contour>
        <pt x="-1575" y="-329" on="1"/>
        <pt x="-1425" y="-329" on="0"/>
        <pt x="-1425" y="-448" on="1"/>
        <pt x="-1425" y="-512" on="0"/>
        <pt x="-1500" y="-581" on="1"/>
        <pt x="-1575" y="-650" on="0"/>
        <pt x="-1675" y="-650" on="1"/>
        <pt x="-1775" y="-650" on="0"/>
        <pt x="-1775" y="-516" on="1"/>
        <pt x="-1775" y="-283" on="1"/>
        <pt x="-1775" y="-100" on="0"/>
        <pt x="-1375" y="-100" on="1"/>
        <pt x="-975" y="-100" on="0"/>
        <pt x="-975" y="-283" on="1"/>
        <pt x="-975" y="-650" on="1"/>
        <pt x="-1175" y="-650" on="1"/>
        <pt x="-1175" y="-283" on="1"/>
        <pt x="-1175" y="-191" on="0"/>
        <pt x="-1375" y="-191" on="1"/>
        <pt x="-1575" y="-191" on="0"/>
        <pt x="-1575" y="-283" on="1"/>
      </contour>
    </TTGlyph>
    <TTGlyph name="glyph181" xMin="-1225" yMin="-1200" xMax="-975" yMax="-700">
      <contour>
        <pt x="-1175" y="-1200" on="1"/>
        <pt x="-1175" y="-836" on="1"/>
        <pt x="-1175" y="-790" on="0"/>
        <pt x="-1225" y="-790" on="1"/>
        <pt x="-1225" y="-700" on="0"/>
        <pt x="-1075" y="-700" on="1"/>
        <pt x="-975" y="-700" on="0"/>
        <pt x="-975" y="-790" on="1"/>
        <pt x="-975" y="-1200" on="1"/>
      </contour>
    </TTGlyph>
    <TTGlyph name="glyph182" xMin="-1665" yMin="-1200" xMax="-915" yMax="-700">
      <contour>
        <pt x="-1385" y="-700" on="1"/>
        <pt x="-1315" y="-700" on="0"/>
        <pt x="-1315" y="-792" on="1"/>
        <pt x="-1315" y="-871" on="0"/>
        <pt x="-1354" y="-911" on="1"/>
        <pt x="-1465" y="-1032" on="1"/>
        <pt x="-1465" y="-1109" on="0"/>
        <pt x="-1421" y="-1109" on="1"/>
        <pt x="-1275" y="-1046" on="0"/>
        <pt x="-1163" y="-827" on="1"/>
        <pt x="-1108" y="-700" on="0"/>
        <pt x="-961" y="-700" on="1"/>
        <pt x="-915" y="-700" on="0"/>
        <pt x="-915" y="-722" on="1"/>
        <pt x="-915" y="-743" on="0"/>
        <pt x="-929" y="-756" on="1"/>
        <pt x="-943" y="-767" on="0"/>
        <pt x="-988" y="-849" on="1"/>
        <pt x="-1152" y="-1135" on="0"/>
        <pt x="-1421" y="-1200" on="1"/>
        <pt x="-1665" y="-1200" on="0"/>
        <pt x="-1665" y="-1032" on="1"/>
        <pt x="-1665" y="-963" on="0"/>
        <pt x="-1619" y="-940" on="1"/>
        <pt x="-1415" y="-863" on="0"/>
        <pt x="-1415" y="-835" on="1"/>
        <pt x="-1415" y="-790" on="0"/>
        <pt x="-1515" y="-790" on="1"/>
        <pt x="-1515" y="-700" on="0"/>
      </contour>
    </TTGlyph>
    <TTGlyph name="glyph183" xMin="-1668" yMin="-1200" xMax="-918" yMax="-700">
      <contour>
        <pt x="-1338" y="-700" on="1"/>
        <pt x="-1268" y="-700" on="0"/>
        <pt x="-1268" y="-790" on="1"/>
        <pt x="-1268" y="-927" on="0"/>
        <pt x="-1468" y="-1042" on="1"/>
        <pt x="-1468" y="-1110" on="0"/>
        <pt x="-1417" y="-1110" on="1"/>
        <pt x="-1284" y="-1019" on="1"/>
        <pt x="-1219" y="-1110" on="1"/>
        <pt x="-1119" y="-1040" on="0"/>
        <pt x="-1119" y="-791" on="1"/>
        <pt x="-1118" y="-700" on="0"/>
        <pt x="-968" y="-700" on="1"/>
        <pt x="-919" y="-700" on="0"/>
        <pt x="-918" y="-722" on="1"/>
        <pt x="-918" y="-746" on="0"/>
        <pt x="-927" y="-790" on="1"/>
        <pt x="-1010" y="-1174" on="0"/>
        <pt x="-1254" y="-1200" on="1"/>
        <pt x="-1310" y="-1110" on="1"/>
        <pt x="-1410" y="-1200" on="1"/>
        <pt x="-1668" y="-1200" on="0"/>
        <pt x="-1668" y="-1063" on="1"/>
        <pt x="-1668" y="-972" on="1"/>
        <pt x="-1368" y="-879" on="0"/>
        <pt x="-1368" y="-836" on="1"/>
        <pt x="-1368" y="-790" on="0"/>
        <pt x="-1468" y="-790" on="1"/>
        <pt x="-1468" y="-700" on="0"/>
      </contour>
    </TTGlyph>
    <TTGlyph name="glyph185" xMin="-600" yMin="-1200" xMax="500" yMax="2400">
      <contour>
        <pt x="-240" y="2100" on="1"/>
        <pt x="-400" y="2100" on="0"/>
        <pt x="-400" y="2000" on="1"/>
        <pt x="108" y="2000" on="1"/>
        <pt x="-34" y="2100" on="0"/>
      </contour>
      <contour>
        <pt x="500" y="-950" on="1"/>
        <pt x="500" y="-1101" on="0"/>
        <pt x="235" y="-1200" on="0"/>
        <pt x="25" y="-1200" on="1"/>
        <pt x="-184" y="-1200" on="0"/>
        <pt x="-400" y="-1102" on="0"/>
        <pt x="-400" y="-950" on="1"/>
        <pt x="-400" y="-700" on="1"/>
        <pt x="-200" y="-700" on="1"/>
        <pt x="-200" y="-950" on="1"/>
        <pt x="-200" y="-1052" on="0"/>
        <pt x="-109" y="-1100" on="0"/>
        <pt x="25" y="-1100" on="1"/>
        <pt x="161" y="-1100" on="0"/>
        <pt x="250" y="-1050" on="0"/>
        <pt x="250" y="-950" on="1"/>
        <pt x="250" y="1700" on="1"/>
        <pt x="250" y="1900" on="0"/>
        <pt x="150" y="1900" on="1"/>
        <pt x="-360" y="1900" on="1"/>
        <pt x="-600" y="1900" on="0"/>
        <pt x="-600" y="2000" on="1"/>
        <pt x="-600" y="2300" on="0"/>
        <pt x="-240" y="2300" on="1"/>
        <pt x="-177" y="2300" on="0"/>
        <pt x="-60" y="2237" on="1"/>
        <pt x="-60" y="2400" on="1"/>
        <pt x="60" y="2400" on="1"/>
        <pt x="60" y="2166" on="1"/>
        <pt x="117" y="2130" on="0"/>
        <pt x="180" y="2085" on="1"/>
        <pt x="180" y="2350" on="1"/>
        <pt x="300" y="2350" on="1"/>
        <pt x="300" y="2000" on="1"/>
        <pt x="500" y="1873" on="0"/>
        <pt x="500" y="1700" on="1"/>
      </contour>
    </TTGlyph>
    <TTGlyph name="glyph186" xMin="-484" yMin="-1200" xMax="500" yMax="2461">
      <contour>
        <pt x="250" y="1640" on="1"/>
        <pt x="250" y="1900" on="0"/>
        <pt x="66" y="1900" on="1"/>
        <pt x="-44" y="1900" on="0"/>
        <pt x="-166" y="1850" on="0"/>
        <pt x="-228" y="1850" on="1"/>
        <pt x="-319" y="1850" on="0"/>
        <pt x="-460" y="1945" on="0"/>
        <pt x="-460" y="2021" on="1"/>
        <pt x="-460" y="2086" on="0"/>
        <pt x="-410" y="2221" on="0"/>
        <pt x="-410" y="2291" on="1"/>
        <pt x="-410" y="2361" on="0"/>
        <pt x="-484" y="2361" on="1"/>
        <pt x="-484" y="2461" on="0"/>
        <pt x="-354" y="2461" on="1"/>
        <pt x="-160" y="2461" on="0"/>
        <pt x="-160" y="2291" on="1"/>
        <pt x="-160" y="2206" on="0"/>
        <pt x="-210" y="2091" on="0"/>
        <pt x="-210" y="2021" on="1"/>
        <pt x="-210" y="1970" on="0"/>
        <pt x="-180" y="1958" on="1"/>
        <pt x="-64" y="2000" on="0"/>
        <pt x="66" y="2000" on="1"/>
        <pt x="500" y="2000" on="0"/>
        <pt x="500" y="1640" on="1"/>
        <pt x="500" y="-950" on="1"/>
        <pt x="500" y="-1101" on="0"/>
        <pt x="235" y="-1200" on="0"/>
        <pt x="25" y="-1200" on="1"/>
        <pt x="-184" y="-1200" on="0"/>
        <pt x="-400" y="-1102" on="0"/>
        <pt x="-400" y="-950" on="1"/>
        <pt x="-400" y="-700" on="1"/>
        <pt x="-200" y="-700" on="1"/>
        <pt x="-200" y="-950" on="1"/>
        <pt x="-200" y="-1052" on="0"/>
        <pt x="-109" y="-1100" on="0"/>
        <pt x="25" y="-1100" on="1"/>
        <pt x="161" y="-1100" on="0"/>
        <pt x="250" y="-1050" on="0"/>
        <pt x="250" y="-950" on="1"/>
      </contour>
    </TTGlyph>
    <TTGlyph name="glyph187" xMin="-845" yMin="-1200" xMax="600" yMax="1500">
      <contour>
        <pt x="-695" y="-790" on="1"/>
        <pt x="-740" y="-836" on="0"/>
        <pt x="-740" y="-863" on="1"/>
        <pt x="-740" y="-881" on="0"/>
        <pt x="-715" y="-881" on="1"/>
        <pt x="-695" y="-881" on="1"/>
      </contour>
      <contour>
        <pt x="500" y="-1018" on="1"/>
        <pt x="500" y="-1109" on="0"/>
        <pt x="287" y="-1200" on="0"/>
        <pt x="125" y="-1200" on="1"/>
        <pt x="5" y="-1200" on="0"/>
        <pt x="-65" y="-1187" on="1"/>
        <pt x="-134" y="-1174" on="0"/>
        <pt x="-152" y="-1150" on="1"/>
        <pt x="-169" y="-1174" on="0"/>
        <pt x="-223" y="-1187" on="1"/>
        <pt x="-277" y="-1200" on="0"/>
        <pt x="-375" y="-1200" on="1"/>
        <pt x="-525" y="-1200" on="0"/>
        <pt x="-695" y="-1109" on="0"/>
        <pt x="-695" y="-1018" on="1"/>
        <pt x="-695" y="-972" on="1"/>
        <pt x="-720" y="-972" on="1"/>
        <pt x="-783" y="-972" on="0"/>
        <pt x="-814" y="-945" on="1"/>
        <pt x="-845" y="-918" on="0"/>
        <pt x="-845" y="-863" on="1"/>
        <pt x="-845" y="-827" on="0"/>
        <pt x="-807" y="-787" on="1"/>
        <pt x="-770" y="-745" on="0"/>
        <pt x="-695" y="-700" on="0"/>
        <pt x="-600" y="-700" on="1"/>
        <pt x="-495" y="-700" on="0"/>
        <pt x="-495" y="-790" on="1"/>
        <pt x="-495" y="-1019" on="1"/>
        <pt x="-495" y="-1063" on="0"/>
        <pt x="-450" y="-1109" on="0"/>
        <pt x="-375" y="-1109" on="1"/>
        <pt x="-310" y="-1109" on="0"/>
        <pt x="-245" y="-1063" on="0"/>
        <pt x="-245" y="-1018" on="1"/>
        <pt x="-245" y="-836" on="1"/>
        <pt x="-245" y="-790" on="0"/>
        <pt x="-325" y="-790" on="1"/>
        <pt x="-325" y="-700" on="0"/>
        <pt x="-225" y="-700" on="1"/>
        <pt x="-45" y="-700" on="0"/>
        <pt x="-45" y="-836" on="1"/>
        <pt x="-45" y="-1018" on="1"/>
        <pt x="-45" y="-1063" on="0"/>
        <pt x="25" y="-1109" on="0"/>
        <pt x="125" y="-1109" on="1"/>
        <pt x="200" y="-1109" on="0"/>
        <pt x="250" y="-1063" on="0"/>
        <pt x="250" y="-1018" on="1"/>
        <pt x="250" y="963" on="1"/>
        <pt x="250" y="1020" on="0"/>
        <pt x="83" y="1073" on="1"/>
        <pt x="83" y="1206" on="1"/>
        <pt x="267" y="1500" on="1"/>
        <pt x="507" y="1382" on="0"/>
        <pt x="579" y="1382" on="1"/>
        <pt x="592" y="1382" on="0"/>
        <pt x="600" y="1386" on="1"/>
        <pt x="531" y="1191" on="0"/>
        <pt x="470" y="1183" on="1"/>
        <pt x="464" y="1182" on="0"/>
        <pt x="458" y="1182" on="1"/>
        <pt x="395" y="1182" on="0"/>
        <pt x="264" y="1253" on="1"/>
        <pt x="209" y="1170" on="1"/>
        <pt x="282" y="1138" on="1"/>
        <pt x="355" y="1106" on="1"/>
        <pt x="500" y="1041" on="0"/>
        <pt x="500" y="980" on="1"/>
      </contour>
    </TTGlyph>
    <TTGlyph name="glyph188" xMin="-1155" yMin="-1200" xMax="600" yMax="1500">
      <contour>
        <pt x="500" y="-1018" on="1"/>
        <pt x="500" y="-1109" on="0"/>
        <pt x="277" y="-1200" on="0"/>
        <pt x="105" y="-1200" on="1"/>
        <pt x="15" y="-1200" on="0"/>
        <pt x="-48" y="-1186" on="1"/>
        <pt x="-111" y="-1172" on="0"/>
        <pt x="-149" y="-1145" on="1"/>
        <pt x="-186" y="-1172" on="0"/>
        <pt x="-243" y="-1186" on="1"/>
        <pt x="-299" y="-1200" on="0"/>
        <pt x="-375" y="-1200" on="1"/>
        <pt x="-525" y="-1200" on="0"/>
        <pt x="-695" y="-1109" on="0"/>
        <pt x="-695" y="-1018" on="1"/>
        <pt x="-695" y="-881" on="1"/>
        <pt x="-695" y="-836" on="0"/>
        <pt x="-750" y="-790" on="0"/>
        <pt x="-825" y="-790" on="1"/>
        <pt x="-900" y="-790" on="0"/>
        <pt x="-955" y="-836" on="0"/>
        <pt x="-955" y="-881" on="1"/>
        <pt x="-955" y="-972" on="1"/>
        <pt x="-930" y="-972" on="1"/>
        <pt x="-855" y="-972" on="0"/>
        <pt x="-855" y="-1018" on="1"/>
        <pt x="-855" y="-1061" on="0"/>
        <pt x="-905" y="-1131" on="1"/>
        <pt x="-955" y="-1200" on="0"/>
        <pt x="-1050" y="-1200" on="1"/>
        <pt x="-1155" y="-1200" on="0"/>
        <pt x="-1155" y="-1109" on="1"/>
        <pt x="-1155" y="-880" on="1"/>
        <pt x="-1155" y="-790" on="0"/>
        <pt x="-975" y="-700" on="0"/>
        <pt x="-825" y="-700" on="1"/>
        <pt x="-675" y="-700" on="0"/>
        <pt x="-495" y="-790" on="0"/>
        <pt x="-495" y="-881" on="1"/>
        <pt x="-495" y="-1019" on="1"/>
        <pt x="-495" y="-1063" on="0"/>
        <pt x="-450" y="-1109" on="0"/>
        <pt x="-375" y="-1109" on="1"/>
        <pt x="-300" y="-1109" on="0"/>
        <pt x="-245" y="-1063" on="0"/>
        <pt x="-245" y="-1017" on="1"/>
        <pt x="-245" y="-836" on="1"/>
        <pt x="-245" y="-790" on="0"/>
        <pt x="-325" y="-790" on="1"/>
        <pt x="-325" y="-700" on="0"/>
        <pt x="-225" y="-700" on="1"/>
        <pt x="-45" y="-700" on="0"/>
        <pt x="-45" y="-836" on="1"/>
        <pt x="-45" y="-1024" on="1"/>
        <pt x="-45" y="-1058" on="0"/>
        <pt x="2" y="-1109" on="0"/>
        <pt x="105" y="-1109" on="1"/>
        <pt x="190" y="-1109" on="0"/>
        <pt x="250" y="-1063" on="0"/>
        <pt x="250" y="-1018" on="1"/>
        <pt x="250" y="963" on="1"/>
        <pt x="250" y="1020" on="0"/>
        <pt x="83" y="1073" on="1"/>
        <pt x="83" y="1206" on="1"/>
        <pt x="267" y="1500" on="1"/>
        <pt x="507" y="1382" on="0"/>
        <pt x="579" y="1382" on="1"/>
        <pt x="592" y="1382" on="0"/>
        <pt x="600" y="1386" on="1"/>
        <pt x="531" y="1191" on="0"/>
        <pt x="470" y="1183" on="1"/>
        <pt x="464" y="1182" on="0"/>
        <pt x="458" y="1182" on="1"/>
        <pt x="395" y="1182" on="0"/>
        <pt x="264" y="1253" on="1"/>
        <pt x="209" y="1170" on="1"/>
        <pt x="282" y="1138" on="1"/>
        <pt x="355" y="1106" on="1"/>
        <pt x="500" y="1041" on="0"/>
        <pt x="500" y="980" on="1"/>
      </contour>
    </TTGlyph>
    <TTGlyph name="glyph189" xMin="-1125" yMin="-1200" xMax="600" yMax="1500">
      <contour>
        <pt x="-878" y="-1030" on="1"/>
        <pt x="-878" y="-1018" on="0"/>
        <pt x="-905" y="-1018" on="1"/>
        <pt x="-925" y="-1018" on="1"/>
        <pt x="-925" y="-1072" on="1"/>
        <pt x="-900" y="-1065" on="0"/>
        <pt x="-878" y="-1045" on="0"/>
      </contour>
      <contour>
        <pt x="500" y="-1017" on="1"/>
        <pt x="500" y="-1109" on="0"/>
        <pt x="307" y="-1200" on="0"/>
        <pt x="165" y="-1200" on="1"/>
        <pt x="74" y="-1200" on="0"/>
        <pt x="32" y="-1175" on="1"/>
        <pt x="-11" y="-1151" on="0"/>
        <pt x="-78" y="-1102" on="1"/>
        <pt x="-145" y="-1054" on="0"/>
        <pt x="-172" y="-1040" on="1"/>
        <pt x="-200" y="-1027" on="0"/>
        <pt x="-225" y="-1027" on="1"/>
        <pt x="-265" y="-1027" on="1"/>
        <pt x="-265" y="-1109" on="1"/>
        <pt x="-265" y="-1200" on="0"/>
        <pt x="-370" y="-1200" on="1"/>
        <pt x="-465" y="-1200" on="0"/>
        <pt x="-565" y="-1081" on="0"/>
        <pt x="-565" y="-1027" on="1"/>
        <pt x="-565" y="-936" on="0"/>
        <pt x="-465" y="-936" on="1"/>
        <pt x="-465" y="-856" on="1"/>
        <pt x="-520" y="-817" on="1"/>
        <pt x="-695" y="-907" on="1"/>
        <pt x="-867" y="-817" on="1"/>
        <pt x="-925" y="-857" on="1"/>
        <pt x="-925" y="-927" on="1"/>
        <pt x="-875" y="-927" on="1"/>
        <pt x="-826" y="-927" on="0"/>
        <pt x="-800" y="-972" on="1"/>
        <pt x="-787" y="-995" on="0"/>
        <pt x="-787" y="-1024" on="1"/>
        <pt x="-787" y="-1050" on="0"/>
        <pt x="-825" y="-1109" on="0"/>
        <pt x="-925" y="-1200" on="0"/>
        <pt x="-1020" y="-1200" on="1"/>
        <pt x="-1125" y="-1200" on="0"/>
        <pt x="-1125" y="-1109" on="1"/>
        <pt x="-1125" y="-836" on="1"/>
        <pt x="-895" y="-700" on="1"/>
        <pt x="-695" y="-802" on="1"/>
        <pt x="-495" y="-700" on="1"/>
        <pt x="-265" y="-836" on="1"/>
        <pt x="-265" y="-936" on="1"/>
        <pt x="-225" y="-936" on="1"/>
        <pt x="-174" y="-936" on="0"/>
        <pt x="-130" y="-959" on="1"/>
        <pt x="-87" y="-982" on="0"/>
        <pt x="-18" y="-1030" on="1"/>
        <pt x="51" y="-1079" on="0"/>
        <pt x="76" y="-1093" on="1"/>
        <pt x="100" y="-1109" on="0"/>
        <pt x="165" y="-1109" on="1"/>
        <pt x="200" y="-1109" on="0"/>
        <pt x="250" y="-1063" on="0"/>
        <pt x="250" y="-1018" on="1"/>
        <pt x="250" y="963" on="1"/>
        <pt x="250" y="1020" on="0"/>
        <pt x="83" y="1073" on="1"/>
        <pt x="83" y="1206" on="1"/>
        <pt x="267" y="1500" on="1"/>
        <pt x="507" y="1382" on="0"/>
        <pt x="579" y="1382" on="1"/>
        <pt x="592" y="1382" on="0"/>
        <pt x="600" y="1386" on="1"/>
        <pt x="531" y="1191" on="0"/>
        <pt x="470" y="1183" on="1"/>
        <pt x="464" y="1182" on="0"/>
        <pt x="458" y="1182" on="1"/>
        <pt x="395" y="1182" on="0"/>
        <pt x="264" y="1253" on="1"/>
        <pt x="209" y="1170" on="1"/>
        <pt x="282" y="1138" on="1"/>
        <pt x="355" y="1106" on="1"/>
        <pt x="500" y="1041" on="0"/>
        <pt x="500" y="980" on="1"/>
      </contour>
    </TTGlyph>
    <TTGlyph name="glyph190" xMin="-400" yMin="-1200" xMax="600" yMax="1500">
      <contour>
        <pt x="-200" y="-881" on="1"/>
        <pt x="-150" y="-881" on="0"/>
        <pt x="-150" y="-836" on="1"/>
        <pt x="-150" y="-790" on="0"/>
        <pt x="-200" y="-790" on="1"/>
      </contour>
      <contour>
        <pt x="500" y="-1109" on="1"/>
        <pt x="500" y="-1200" on="0"/>
        <pt x="375" y="-1200" on="1"/>
        <pt x="300" y="-1200" on="0"/>
        <pt x="266" y="-1179" on="1"/>
        <pt x="25" y="-1039" on="1"/>
        <pt x="-215" y="-1179" on="1"/>
        <pt x="-250" y="-1200" on="0"/>
        <pt x="-325" y="-1200" on="1"/>
        <pt x="-400" y="-1200" on="0"/>
        <pt x="-400" y="-1109" on="1"/>
        <pt x="-400" y="-790" on="1"/>
        <pt x="-400" y="-700" on="0"/>
        <pt x="-200" y="-700" on="1"/>
        <pt x="-50" y="-700" on="0"/>
        <pt x="-50" y="-836" on="1"/>
        <pt x="-50" y="-972" on="0"/>
        <pt x="-200" y="-972" on="1"/>
        <pt x="-200" y="-1061" on="1"/>
        <pt x="-43" y="-970" on="1"/>
        <pt x="-9" y="-950" on="0"/>
        <pt x="25" y="-950" on="1"/>
        <pt x="60" y="-950" on="0"/>
        <pt x="94" y="-970" on="1"/>
        <pt x="250" y="-1061" on="1"/>
        <pt x="250" y="963" on="1"/>
        <pt x="250" y="1020" on="0"/>
        <pt x="83" y="1073" on="1"/>
        <pt x="83" y="1206" on="1"/>
        <pt x="267" y="1500" on="1"/>
        <pt x="507" y="1382" on="0"/>
        <pt x="579" y="1382" on="1"/>
        <pt x="592" y="1382" on="0"/>
        <pt x="600" y="1386" on="1"/>
        <pt x="531" y="1191" on="0"/>
        <pt x="470" y="1183" on="1"/>
        <pt x="464" y="1182" on="0"/>
        <pt x="458" y="1182" on="1"/>
        <pt x="395" y="1182" on="0"/>
        <pt x="264" y="1253" on="1"/>
        <pt x="209" y="1170" on="1"/>
        <pt x="282" y="1138" on="1"/>
        <pt x="355" y="1106" on="1"/>
        <pt x="500" y="1041" on="0"/>
        <pt x="500" y="980" on="1"/>
      </contour>
    </TTGlyph>
    <TTGlyph name="glyph191" xMin="-400" yMin="-1200" xMax="600" yMax="1500">
      <contour>
        <pt x="-200" y="-881" on="1"/>
        <pt x="-150" y="-881" on="0"/>
        <pt x="-150" y="-836" on="1"/>
        <pt x="-150" y="-790" on="0"/>
        <pt x="-200" y="-790" on="1"/>
      </contour>
      <contour>
        <pt x="500" y="-1018" on="1"/>
        <pt x="500" y="-1109" on="0"/>
        <pt x="238" y="-1200" on="0"/>
        <pt x="25" y="-1200" on="1"/>
        <pt x="-175" y="-1200" on="0"/>
        <pt x="-287" y="-1154" on="1"/>
        <pt x="-400" y="-1109" on="0"/>
        <pt x="-400" y="-1018" on="1"/>
        <pt x="-400" y="-790" on="1"/>
        <pt x="-400" y="-700" on="0"/>
        <pt x="-200" y="-700" on="1"/>
        <pt x="-50" y="-700" on="0"/>
        <pt x="-50" y="-836" on="1"/>
        <pt x="-50" y="-972" on="0"/>
        <pt x="-200" y="-972" on="1"/>
        <pt x="-200" y="-1018" on="1"/>
        <pt x="-200" y="-1063" on="0"/>
        <pt x="-100" y="-1109" on="0"/>
        <pt x="25" y="-1109" on="1"/>
        <pt x="150" y="-1109" on="0"/>
        <pt x="250" y="-1063" on="0"/>
        <pt x="250" y="-1018" on="1"/>
        <pt x="250" y="963" on="1"/>
        <pt x="250" y="1020" on="0"/>
        <pt x="83" y="1073" on="1"/>
        <pt x="83" y="1206" on="1"/>
        <pt x="267" y="1500" on="1"/>
        <pt x="507" y="1382" on="0"/>
        <pt x="579" y="1382" on="1"/>
        <pt x="592" y="1382" on="0"/>
        <pt x="600" y="1386" on="1"/>
        <pt x="531" y="1191" on="0"/>
        <pt x="470" y="1183" on="1"/>
        <pt x="464" y="1182" on="0"/>
        <pt x="458" y="1182" on="1"/>
        <pt x="395" y="1182" on="0"/>
        <pt x="264" y="1253" on="1"/>
        <pt x="209" y="1170" on="1"/>
        <pt x="282" y="1138" on="1"/>
        <pt x="355" y="1106" on="1"/>
        <pt x="500" y="1041" on="0"/>
        <pt x="500" y="980" on="1"/>
      </contour>
    </TTGlyph>
    <TTGlyph name="glyph192" xMin="83" yMin="-1200" xMax="1150" yMax="1500">
      <contour>
        <pt x="500" y="-950" on="1"/>
        <pt x="500" y="-1025" on="0"/>
        <pt x="625" y="-1100" on="0"/>
        <pt x="732" y="-1100" on="1"/>
        <pt x="838" y="-1100" on="0"/>
        <pt x="950" y="-1025" on="0"/>
        <pt x="950" y="-950" on="1"/>
        <pt x="950" y="-690" on="1"/>
        <pt x="1150" y="-690" on="1"/>
        <pt x="1150" y="-950" on="1"/>
        <pt x="1150" y="-1075" on="0"/>
        <pt x="912" y="-1200" on="0"/>
        <pt x="732" y="-1200" on="1"/>
        <pt x="538" y="-1200" on="0"/>
        <pt x="250" y="-1075" on="0"/>
        <pt x="250" y="-950" on="1"/>
        <pt x="250" y="963" on="1"/>
        <pt x="250" y="1020" on="0"/>
        <pt x="83" y="1073" on="1"/>
        <pt x="83" y="1206" on="1"/>
        <pt x="267" y="1500" on="1"/>
        <pt x="507" y="1382" on="0"/>
        <pt x="579" y="1382" on="1"/>
        <pt x="592" y="1382" on="0"/>
        <pt x="600" y="1386" on="1"/>
        <pt x="531" y="1191" on="0"/>
        <pt x="470" y="1183" on="1"/>
        <pt x="464" y="1182" on="0"/>
        <pt x="458" y="1182" on="1"/>
        <pt x="395" y="1182" on="0"/>
        <pt x="264" y="1253" on="1"/>
        <pt x="209" y="1170" on="1"/>
        <pt x="282" y="1138" on="1"/>
        <pt x="355" y="1106" on="1"/>
        <pt x="500" y="1041" on="0"/>
        <pt x="500" y="980" on="1"/>
      </contour>
    </TTGlyph>
    <TTGlyph name="glyph193" xMin="-550" yMin="-1200" xMax="630" yMax="1500">
      <contour>
        <pt x="-400" y="-790" on="1"/>
        <pt x="-450" y="-790" on="0"/>
        <pt x="-450" y="-836" on="1"/>
        <pt x="-450" y="-881" on="0"/>
        <pt x="-400" y="-881" on="1"/>
      </contour>
      <contour>
        <pt x="500" y="100" on="1"/>
        <pt x="518" y="100" on="0"/>
        <pt x="549" y="112" on="1"/>
        <pt x="580" y="125" on="0"/>
        <pt x="580" y="150" on="1"/>
        <pt x="605" y="150" on="0"/>
        <pt x="618" y="138" on="1"/>
        <pt x="630" y="125" on="0"/>
        <pt x="630" y="100" on="1"/>
        <pt x="630" y="50" on="0"/>
        <pt x="586" y="25" on="1"/>
        <pt x="542" y="0" on="0"/>
        <pt x="500" y="0" on="1"/>
        <pt x="500" y="-1018" on="1"/>
        <pt x="500" y="-1109" on="0"/>
        <pt x="238" y="-1200" on="0"/>
        <pt x="25" y="-1200" on="1"/>
        <pt x="-175" y="-1200" on="0"/>
        <pt x="-287" y="-1154" on="1"/>
        <pt x="-400" y="-1109" on="0"/>
        <pt x="-400" y="-1018" on="1"/>
        <pt x="-400" y="-972" on="1"/>
        <pt x="-550" y="-972" on="0"/>
        <pt x="-550" y="-836" on="1"/>
        <pt x="-550" y="-700" on="0"/>
        <pt x="-400" y="-700" on="1"/>
        <pt x="-200" y="-700" on="0"/>
        <pt x="-200" y="-790" on="1"/>
        <pt x="-200" y="-1018" on="1"/>
        <pt x="-200" y="-1063" on="0"/>
        <pt x="-100" y="-1109" on="0"/>
        <pt x="25" y="-1109" on="1"/>
        <pt x="150" y="-1109" on="0"/>
        <pt x="250" y="-1063" on="0"/>
        <pt x="250" y="-1018" on="1"/>
        <pt x="250" y="-1" on="1"/>
        <pt x="150" y="0" on="1"/>
        <pt x="150" y="100" on="1"/>
        <pt x="250" y="100" on="1"/>
        <pt x="250" y="963" on="1"/>
        <pt x="250" y="1020" on="0"/>
        <pt x="83" y="1073" on="1"/>
        <pt x="83" y="1206" on="1"/>
        <pt x="267" y="1500" on="1"/>
        <pt x="507" y="1382" on="0"/>
        <pt x="579" y="1382" on="1"/>
        <pt x="592" y="1382" on="0"/>
        <pt x="600" y="1386" on="1"/>
        <pt x="531" y="1191" on="0"/>
        <pt x="470" y="1183" on="1"/>
        <pt x="464" y="1182" on="0"/>
        <pt x="458" y="1182" on="1"/>
        <pt x="395" y="1182" on="0"/>
        <pt x="264" y="1253" on="1"/>
        <pt x="209" y="1170" on="1"/>
        <pt x="282" y="1138" on="1"/>
        <pt x="355" y="1106" on="1"/>
        <pt x="500" y="1041" on="0"/>
        <pt x="500" y="980" on="1"/>
      </contour>
    </TTGlyph>
    <TTGlyph name="glyph194" xMin="-900" yMin="1820" xMax="0" yMax="2220">
      <contour>
        <pt x="-900" y="1920" on="1"/>
        <pt x="-900" y="2220" on="0"/>
        <pt x="-540" y="2220" on="1"/>
        <pt x="-421" y="2220" on="0"/>
        <pt x="-105" y="1995" on="1"/>
        <pt x="0" y="1920" on="1"/>
        <pt x="0" y="1820" on="1"/>
        <pt x="-660" y="1820" on="1"/>
        <pt x="-900" y="1820" on="0"/>
      </contour>
      <contour>
        <pt x="-540" y="2020" on="1"/>
        <pt x="-700" y="2020" on="0"/>
        <pt x="-700" y="1920" on="1"/>
        <pt x="-192" y="1920" on="1"/>
        <pt x="-334" y="2020" on="0"/>
      </contour>
    </TTGlyph>
    <TTGlyph name="glyph195" xMin="-900" yMin="1820" xMax="0" yMax="2270">
      <contour>
        <pt x="-900" y="1920" on="1"/>
        <pt x="-900" y="2220" on="0"/>
        <pt x="-540" y="2220" on="1"/>
        <pt x="-435" y="2220" on="0"/>
        <pt x="-180" y="2047" on="1"/>
        <pt x="-180" y="2270" on="1"/>
        <pt x="0" y="2270" on="1"/>
        <pt x="0" y="1820" on="1"/>
        <pt x="-660" y="1820" on="1"/>
        <pt x="-900" y="1820" on="0"/>
      </contour>
      <contour>
        <pt x="-540" y="2020" on="1"/>
        <pt x="-700" y="2020" on="0"/>
        <pt x="-700" y="1920" on="1"/>
        <pt x="-192" y="1920" on="1"/>
        <pt x="-334" y="2020" on="0"/>
      </contour>
    </TTGlyph>
    <TTGlyph name="glyph196" xMin="-860" yMin="1820" xMax="90" yMax="2269">
      <contour>
        <pt x="-860" y="1920" on="1"/>
        <pt x="-860" y="2220" on="0"/>
        <pt x="-524" y="2220" on="1"/>
        <pt x="-452" y="2220" on="0"/>
        <pt x="-298" y="2122" on="1"/>
        <pt x="-284" y="2269" on="0"/>
        <pt x="-105" y="2269" on="1"/>
        <pt x="90" y="2269" on="0"/>
        <pt x="90" y="2094" on="1"/>
        <pt x="90" y="1956" on="0"/>
        <pt x="-30" y="1927" on="1"/>
        <pt x="-21" y="1920" on="1"/>
        <pt x="-21" y="1820" on="1"/>
        <pt x="-636" y="1820" on="1"/>
        <pt x="-860" y="1820" on="0"/>
      </contour>
      <contour>
        <pt x="-524" y="2020" on="1"/>
        <pt x="-660" y="2020" on="0"/>
        <pt x="-660" y="1920" on="1"/>
        <pt x="-200" y="1920" on="1"/>
        <pt x="-333" y="2020" on="0"/>
      </contour>
      <contour>
        <pt x="-105" y="2019" on="1"/>
        <pt x="-21" y="2019" on="0"/>
        <pt x="-21" y="2094" on="1"/>
        <pt x="-21" y="2169" on="0"/>
        <pt x="-105" y="2169" on="1"/>
        <pt x="-189" y="2169" on="0"/>
        <pt x="-189" y="2094" on="1"/>
        <pt x="-189" y="2019" on="0"/>
      </contour>
    </TTGlyph>
    <TTGlyph name="glyph197" xMin="-900" yMin="1820" xMax="0" yMax="2270">
      <contour>
        <pt x="-900" y="1920" on="1"/>
        <pt x="-900" y="2220" on="0"/>
        <pt x="-540" y="2220" on="1"/>
        <pt x="-477" y="2220" on="0"/>
        <pt x="-360" y="2157" on="1"/>
        <pt x="-360" y="2270" on="1"/>
        <pt x="-240" y="2270" on="1"/>
        <pt x="-240" y="2086" on="1"/>
        <pt x="-183" y="2050" on="0"/>
        <pt x="-120" y="2005" on="1"/>
        <pt x="-120" y="2270" on="1"/>
        <pt x="0" y="2270" on="1"/>
        <pt x="0" y="1820" on="1"/>
        <pt x="-660" y="1820" on="1"/>
        <pt x="-900" y="1820" on="0"/>
      </contour>
      <contour>
        <pt x="-540" y="2020" on="1"/>
        <pt x="-700" y="2020" on="0"/>
        <pt x="-700" y="1920" on="1"/>
        <pt x="-192" y="1920" on="1"/>
        <pt x="-334" y="2020" on="0"/>
      </contour>
    </TTGlyph>
    <TTGlyph name="glyph198" xMin="-605" yMin="1820" xMax="-135" yMax="2270">
      <contour>
        <pt x="-430" y="2045" on="1"/>
        <pt x="-430" y="1995" on="0"/>
        <pt x="-400" y="1945" on="0"/>
        <pt x="-370" y="1945" on="1"/>
        <pt x="-340" y="1945" on="0"/>
        <pt x="-310" y="1995" on="0"/>
        <pt x="-310" y="2045" on="1"/>
        <pt x="-310" y="2095" on="0"/>
        <pt x="-340" y="2145" on="0"/>
        <pt x="-370" y="2145" on="1"/>
        <pt x="-400" y="2145" on="0"/>
        <pt x="-430" y="2095" on="0"/>
      </contour>
      <contour>
        <pt x="-135" y="2045" on="1"/>
        <pt x="-135" y="1932" on="0"/>
        <pt x="-257" y="1820" on="0"/>
        <pt x="-370" y="1820" on="1"/>
        <pt x="-483" y="1820" on="0"/>
        <pt x="-605" y="1932" on="0"/>
        <pt x="-605" y="2045" on="1"/>
        <pt x="-605" y="2158" on="0"/>
        <pt x="-483" y="2270" on="0"/>
        <pt x="-370" y="2270" on="1"/>
        <pt x="-257" y="2270" on="0"/>
        <pt x="-135" y="2158" on="0"/>
      </contour>
    </TTGlyph>
    <TTGlyph name="glyph199" xMin="-625" yMin="1820" xMax="-115" yMax="2320">
      <contour>
        <pt x="-440" y="2320" on="1"/>
        <pt x="-440" y="1920" on="1"/>
        <pt x="-440" y="1840" on="0"/>
        <pt x="-532" y="1820" on="1"/>
        <pt x="-625" y="1840" on="0"/>
        <pt x="-625" y="1920" on="1"/>
        <pt x="-625" y="2320" on="1"/>
      </contour>
      <contour>
        <pt x="-115" y="2320" on="1"/>
        <pt x="-115" y="1920" on="1"/>
        <pt x="-115" y="1840" on="0"/>
        <pt x="-207" y="1820" on="1"/>
        <pt x="-300" y="1840" on="0"/>
        <pt x="-300" y="1920" on="1"/>
        <pt x="-300" y="2320" on="1"/>
      </contour>
    </TTGlyph>
    <TTGlyph name="glyph200" xMin="-670" yMin="1820" xMax="60" yMax="2367">
      <contour>
        <pt x="-470" y="2016" on="1"/>
        <pt x="-470" y="1958" on="0"/>
        <pt x="-458" y="1940" on="1"/>
        <pt x="-445" y="1921" on="0"/>
        <pt x="-410" y="1921" on="1"/>
        <pt x="-390" y="1921" on="0"/>
        <pt x="-390" y="1939" on="1"/>
        <pt x="-390" y="1970" on="0"/>
        <pt x="-320" y="1970" on="1"/>
        <pt x="-250" y="1970" on="0"/>
        <pt x="-250" y="1939" on="1"/>
        <pt x="-250" y="1880" on="0"/>
        <pt x="-294" y="1850" on="1"/>
        <pt x="-338" y="1820" on="0"/>
        <pt x="-435" y="1820" on="1"/>
        <pt x="-582" y="1820" on="0"/>
        <pt x="-626" y="1864" on="1"/>
        <pt x="-670" y="1908" on="0"/>
        <pt x="-670" y="2015" on="1"/>
        <pt x="-670" y="2092" on="0"/>
        <pt x="-580" y="2220" on="0"/>
        <pt x="-430" y="2220" on="1"/>
        <pt x="-303" y="2220" on="0"/>
        <pt x="-255" y="2161" on="1"/>
        <pt x="-179" y="2186" on="0"/>
        <pt x="-50" y="2293" on="0"/>
        <pt x="-8" y="2365" on="1"/>
        <pt x="3" y="2367" on="1"/>
        <pt x="22" y="2317" on="0"/>
        <pt x="45" y="2288" on="1"/>
        <pt x="60" y="2268" on="0"/>
        <pt x="60" y="2254" on="1"/>
        <pt x="60" y="2240" on="0"/>
        <pt x="48" y="2230" on="1"/>
        <pt x="3" y="2167" on="0"/>
        <pt x="-57" y="2117" on="1"/>
        <pt x="-118" y="2068" on="0"/>
        <pt x="-193" y="2031" on="1"/>
        <pt x="-229" y="2020" on="0"/>
        <pt x="-263" y="2020" on="1"/>
        <pt x="-337" y="2120" on="0"/>
        <pt x="-400" y="2120" on="1"/>
        <pt x="-435" y="2120" on="0"/>
        <pt x="-470" y="2053" on="0"/>
      </contour>
    </TTGlyph>
    <TTGlyph name="glyph201" xMin="-900" yMin="1820" xMax="320" yMax="2467">
      <contour>
        <pt x="-320" y="2019" on="1"/>
        <pt x="-423" y="2051" on="0"/>
        <pt x="-600" y="2051" on="1"/>
        <pt x="-750" y="2051" on="0"/>
        <pt x="-750" y="1959" on="1"/>
        <pt x="-750" y="1920" on="0"/>
        <pt x="-615" y="1920" on="1"/>
        <pt x="-150" y="1920" on="1"/>
        <pt x="-163" y="1939" on="0"/>
        <pt x="-194" y="1959" on="1"/>
        <pt x="-259" y="1965" on="0"/>
        <pt x="-296" y="1992" on="1"/>
        <pt x="-310" y="2004" on="0"/>
      </contour>
      <contour>
        <pt x="-66" y="1984" on="1"/>
        <pt x="0" y="1908" on="0"/>
        <pt x="0" y="1870" on="1"/>
        <pt x="0" y="1820" on="0"/>
        <pt x="-100" y="1820" on="1"/>
        <pt x="-700" y="1820" on="1"/>
        <pt x="-900" y="1820" on="0"/>
        <pt x="-900" y="1970" on="1"/>
        <pt x="-900" y="2220" on="0"/>
        <pt x="-600" y="2220" on="1"/>
        <pt x="-456" y="2220" on="0"/>
        <pt x="-338" y="2177" on="1"/>
        <pt x="-330" y="2241" on="0"/>
        <pt x="-290" y="2276" on="1"/>
        <pt x="-240" y="2320" on="0"/>
        <pt x="-140" y="2320" on="1"/>
        <pt x="-43" y="2320" on="0"/>
        <pt x="15" y="2271" on="1"/>
        <pt x="91" y="2296" on="0"/>
        <pt x="150" y="2344" on="1"/>
        <pt x="210" y="2393" on="0"/>
        <pt x="252" y="2465" on="1"/>
        <pt x="263" y="2467" on="1"/>
        <pt x="282" y="2467" on="0"/>
        <pt x="305" y="2438" on="1"/>
        <pt x="320" y="2418" on="0"/>
        <pt x="320" y="2404" on="1"/>
        <pt x="320" y="2390" on="0"/>
        <pt x="308" y="2380" on="1"/>
        <pt x="263" y="2317" on="0"/>
        <pt x="203" y="2267" on="1"/>
        <pt x="142" y="2218" on="0"/>
        <pt x="67" y="2181" on="1"/>
        <pt x="31" y="2170" on="0"/>
        <pt x="-3" y="2170" on="1"/>
        <pt x="-77" y="2220" on="0"/>
        <pt x="-140" y="2220" on="1"/>
        <pt x="-165" y="2220" on="0"/>
        <pt x="-178" y="2202" on="1"/>
        <pt x="-190" y="2183" on="0"/>
        <pt x="-190" y="2146" on="1"/>
        <pt x="-190" y="2109" on="0"/>
        <pt x="-178" y="2091" on="1"/>
        <pt x="-167" y="2082" on="0"/>
        <pt x="-156" y="2074" on="1"/>
        <pt x="-149" y="2071" on="0"/>
        <pt x="-140" y="2071" on="1"/>
        <pt x="-90" y="2071" on="0"/>
        <pt x="-90" y="2089" on="1"/>
        <pt x="-90" y="2120" on="0"/>
        <pt x="-40" y="2120" on="1"/>
        <pt x="10" y="2120" on="0"/>
        <pt x="10" y="2089" on="1"/>
        <pt x="10" y="2030" on="0"/>
        <pt x="-34" y="2000" on="1"/>
        <pt x="-47" y="1991" on="0"/>
      </contour>
    </TTGlyph>
    <TTGlyph name="glyph202" xMin="-800" yMin="-650" xMax="0" yMax="-100">
      <contour>
        <pt x="-400" y="-191" on="1"/>
        <pt x="-500" y="-191" on="0"/>
        <pt x="-550" y="-214" on="1"/>
        <pt x="-600" y="-237" on="0"/>
        <pt x="-600" y="-283" on="1"/>
        <pt x="-600" y="-650" on="1"/>
        <pt x="-800" y="-650" on="1"/>
        <pt x="-800" y="-282" on="1"/>
        <pt x="-800" y="-191" on="0"/>
        <pt x="-700" y="-145" on="1"/>
        <pt x="-600" y="-100" on="0"/>
        <pt x="-400" y="-100" on="1"/>
        <pt x="-200" y="-100" on="0"/>
        <pt x="-100" y="-145" on="1"/>
        <pt x="0" y="-191" on="0"/>
        <pt x="0" y="-284" on="1"/>
        <pt x="0" y="-650" on="1"/>
        <pt x="-200" y="-650" on="1"/>
        <pt x="-200" y="-283" on="1"/>
        <pt x="-200" y="-237" on="0"/>
        <pt x="-250" y="-214" on="1"/>
        <pt x="-300" y="-191" on="0"/>
      </contour>
    </TTGlyph>
    <TTGlyph name="glyph203" xMin="-800" yMin="-651" xMax="0" yMax="-101">
      <contour>
        <pt x="-400" y="-651" on="1"/>
        <pt x="-800" y="-651" on="0"/>
        <pt x="-800" y="-485" on="1"/>
        <pt x="-800" y="-408" on="0"/>
        <pt x="-733" y="-399" on="1"/>
        <pt x="-418" y="-355" on="1"/>
        <pt x="-282" y="-336" on="0"/>
        <pt x="-203" y="-303" on="0"/>
        <pt x="-203" y="-266" on="1"/>
        <pt x="-203" y="-191" on="0"/>
        <pt x="-400" y="-191" on="1"/>
        <pt x="-516" y="-191" on="0"/>
        <pt x="-556" y="-220" on="1"/>
        <pt x="-600" y="-252" on="0"/>
        <pt x="-600" y="-329" on="1"/>
        <pt x="-800" y="-329" on="0"/>
        <pt x="-800" y="-238" on="1"/>
        <pt x="-800" y="-101" on="0"/>
        <pt x="-400" y="-101" on="1"/>
        <pt x="0" y="-101" on="0"/>
        <pt x="0" y="-270" on="1"/>
        <pt x="0" y="-395" on="0"/>
        <pt x="-348" y="-442" on="1"/>
        <pt x="-600" y="-483" on="1"/>
        <pt x="-600" y="-559" on="0"/>
        <pt x="-400" y="-559" on="1"/>
        <pt x="-200" y="-559" on="0"/>
        <pt x="-200" y="-467" on="1"/>
        <pt x="0" y="-430" on="1"/>
        <pt x="0" y="-651" on="0"/>
      </contour>
    </TTGlyph>
    <TTGlyph name="glyph204" xMin="-800" yMin="-650" xMax="0" yMax="-100">
      <contour>
        <pt x="-400" y="-191" on="1"/>
        <pt x="-600" y="-191" on="0"/>
        <pt x="-600" y="-283" on="1"/>
        <pt x="-600" y="-503" on="1"/>
        <pt x="-550" y="-433" on="1"/>
        <pt x="-469" y="-329" on="0"/>
        <pt x="-400" y="-329" on="1"/>
        <pt x="-300" y="-329" on="0"/>
        <pt x="-300" y="-397" on="1"/>
        <pt x="-300" y="-466" on="0"/>
        <pt x="-400" y="-466" on="1"/>
        <pt x="-450" y="-466" on="0"/>
        <pt x="-525" y="-558" on="1"/>
        <pt x="-600" y="-650" on="1"/>
        <pt x="-800" y="-650" on="1"/>
        <pt x="-800" y="-282" on="1"/>
        <pt x="-800" y="-100" on="0"/>
        <pt x="-400" y="-100" on="1"/>
        <pt x="0" y="-100" on="0"/>
        <pt x="0" y="-284" on="1"/>
        <pt x="0" y="-650" on="1"/>
        <pt x="-200" y="-650" on="1"/>
        <pt x="-200" y="-283" on="1"/>
        <pt x="-200" y="-191" on="0"/>
      </contour>
    </TTGlyph>
    <TTGlyph name="glyph205" xMin="-800" yMin="-650" xMax="0" yMax="-100">
      <contour>
        <pt x="-450" y="-650" on="1"/>
        <pt x="-800" y="-650" on="0"/>
        <pt x="-800" y="-420" on="1"/>
        <pt x="-800" y="-237" on="0"/>
        <pt x="-600" y="-237" on="1"/>
        <pt x="-500" y="-237" on="0"/>
        <pt x="-500" y="-329" on="1"/>
        <pt x="-600" y="-329" on="0"/>
        <pt x="-600" y="-420" on="1"/>
        <pt x="-600" y="-558" on="0"/>
        <pt x="-450" y="-558" on="1"/>
        <pt x="-200" y="-558" on="0"/>
        <pt x="-200" y="-191" on="1"/>
        <pt x="-200" y="-100" on="0"/>
        <pt x="0" y="-100" on="1"/>
        <pt x="-50" y="-650" on="0"/>
      </contour>
    </TTGlyph>
    <TTGlyph name="glyph206" xMin="-790" yMin="-651" xMax="110" yMax="-101">
      <contour>
        <pt x="-415" y="-101" on="1"/>
        <pt x="-340" y="-101" on="0"/>
        <pt x="-315" y="-145" on="1"/>
        <pt x="-309" y="-156" on="0"/>
        <pt x="-309" y="-170" on="1"/>
        <pt x="-309" y="-217" on="0"/>
        <pt x="-370" y="-305" on="1"/>
        <pt x="-450" y="-419" on="0"/>
        <pt x="-590" y="-481" on="1"/>
        <pt x="-590" y="-559" on="0"/>
        <pt x="-490" y="-559" on="1"/>
        <pt x="-370" y="-559" on="0"/>
        <pt x="-252" y="-453" on="1"/>
        <pt x="-202" y="-408" on="1"/>
        <pt x="-290" y="-377" on="0"/>
        <pt x="-290" y="-302" on="1"/>
        <pt x="-290" y="-174" on="0"/>
        <pt x="-140" y="-174" on="1"/>
        <pt x="-10" y="-174" on="0"/>
        <pt x="-10" y="-302" on="1"/>
        <pt x="-10" y="-318" on="0"/>
        <pt x="-26" y="-344" on="1"/>
        <pt x="10" y="-344" on="1"/>
        <pt x="37" y="-344" on="0"/>
        <pt x="110" y="-310" on="1"/>
        <pt x="110" y="-395" on="0"/>
        <pt x="8" y="-429" on="1"/>
        <pt x="-40" y="-429" on="1"/>
        <pt x="-53" y="-429" on="0"/>
        <pt x="-78" y="-428" on="0"/>
        <pt x="-89" y="-427" on="1"/>
        <pt x="-102" y="-443" on="0"/>
        <pt x="-133" y="-478" on="0"/>
        <pt x="-150" y="-497" on="1"/>
        <pt x="-290" y="-651" on="0"/>
        <pt x="-490" y="-651" on="1"/>
        <pt x="-790" y="-651" on="0"/>
        <pt x="-790" y="-481" on="1"/>
        <pt x="-790" y="-400" on="0"/>
        <pt x="-740" y="-388" on="1"/>
        <pt x="-490" y="-335" on="0"/>
        <pt x="-490" y="-191" on="1"/>
        <pt x="-490" y="-101" on="0"/>
      </contour>
      <contour>
        <pt x="-110" y="-302" on="1"/>
        <pt x="-104" y="-291" on="0"/>
        <pt x="-104" y="-282" on="1"/>
        <pt x="-104" y="-262" on="0"/>
        <pt x="-140" y="-262" on="1"/>
        <pt x="-190" y="-262" on="0"/>
        <pt x="-190" y="-302" on="1"/>
        <pt x="-190" y="-327" on="0"/>
        <pt x="-135" y="-336" on="1"/>
        <pt x="-117" y="-316" on="0"/>
      </contour>
    </TTGlyph>
    <TTGlyph name="glyph207" xMin="-900" yMin="-650" xMax="0" yMax="-100">
      <contour>
        <pt x="-750" y="-100" on="1"/>
        <pt x="-600" y="-100" on="1"/>
        <pt x="-600" y="-374" on="1"/>
        <pt x="-500" y="-374" on="0"/>
        <pt x="-440" y="-431" on="1"/>
        <pt x="-365" y="-498" on="1"/>
        <pt x="-300" y="-557" on="0"/>
        <pt x="-250" y="-557" on="1"/>
        <pt x="-200" y="-557" on="0"/>
        <pt x="-200" y="-466" on="1"/>
        <pt x="-200" y="-374" on="1"/>
        <pt x="-269" y="-374" on="0"/>
        <pt x="-300" y="-337" on="0"/>
        <pt x="-300" y="-306" on="1"/>
        <pt x="-300" y="-236" on="0"/>
        <pt x="-200" y="-100" on="1"/>
        <pt x="0" y="-100" on="1"/>
        <pt x="0" y="-466" on="1"/>
        <pt x="0" y="-649" on="0"/>
        <pt x="-250" y="-649" on="1"/>
        <pt x="-350" y="-649" on="0"/>
        <pt x="-440" y="-555" on="1"/>
        <pt x="-515" y="-488" on="1"/>
        <pt x="-545" y="-466" on="0"/>
        <pt x="-600" y="-466" on="1"/>
        <pt x="-600" y="-650" on="1"/>
        <pt x="-800" y="-650" on="1"/>
        <pt x="-900" y="-531" on="0"/>
        <pt x="-900" y="-466" on="1"/>
        <pt x="-900" y="-374" on="0"/>
        <pt x="-800" y="-374" on="1"/>
        <pt x="-800" y="-146" on="1"/>
        <pt x="-800" y="-100" on="0"/>
      </contour>
    </TTGlyph>
    <TTGlyph name="glyph208" xMin="-907" yMin="-650" xMax="90" yMax="-100">
      <contour>
        <pt x="-259" y="-650" on="1"/>
        <pt x="-311" y="-650" on="0"/>
        <pt x="-420" y="-552" on="1"/>
        <pt x="-457" y="-520" on="1"/>
        <pt x="-496" y="-552" on="1"/>
        <pt x="-606" y="-650" on="0"/>
        <pt x="-657" y="-650" on="1"/>
        <pt x="-907" y="-650" on="0"/>
        <pt x="-907" y="-355" on="1"/>
        <pt x="-907" y="-100" on="0"/>
        <pt x="-657" y="-100" on="1"/>
        <pt x="-607" y="-100" on="0"/>
        <pt x="-607" y="-145" on="1"/>
        <pt x="-607" y="-191" on="0"/>
        <pt x="-657" y="-191" on="1"/>
        <pt x="-707" y="-191" on="0"/>
        <pt x="-707" y="-355" on="1"/>
        <pt x="-707" y="-558" on="0"/>
        <pt x="-657" y="-558" on="1"/>
        <pt x="-558" y="-480" on="1"/>
        <pt x="-457" y="-395" on="1"/>
        <pt x="-359" y="-480" on="1"/>
        <pt x="-257" y="-558" on="1"/>
        <pt x="-207" y="-558" on="0"/>
        <pt x="-207" y="-373" on="1"/>
        <pt x="-219" y="-374" on="0"/>
        <pt x="-244" y="-375" on="0"/>
        <pt x="-257" y="-375" on="1"/>
        <pt x="-407" y="-375" on="0"/>
        <pt x="-407" y="-237" on="1"/>
        <pt x="-407" y="-100" on="0"/>
        <pt x="-257" y="-100" on="1"/>
        <pt x="-47" y="-100" on="0"/>
        <pt x="-15" y="-264" on="1"/>
        <pt x="-1" y="-260" on="0"/>
        <pt x="27" y="-254" on="0"/>
        <pt x="40" y="-249" on="1"/>
        <pt x="46" y="-248" on="0"/>
        <pt x="55" y="-246" on="0"/>
        <pt x="58" y="-245" on="1"/>
        <pt x="62" y="-244" on="0"/>
        <pt x="76" y="-244" on="1"/>
        <pt x="90" y="-244" on="0"/>
        <pt x="90" y="-275" on="1"/>
        <pt x="90" y="-316" on="0"/>
        <pt x="40" y="-334" on="1"/>
        <pt x="29" y="-338" on="0"/>
        <pt x="6" y="-345" on="0"/>
        <pt x="-7" y="-349" on="1"/>
        <pt x="-7" y="-356" on="1"/>
        <pt x="-7" y="-650" on="0"/>
      </contour>
      <contour>
        <pt x="-257" y="-191" on="1"/>
        <pt x="-307" y="-191" on="0"/>
        <pt x="-307" y="-237" on="1"/>
        <pt x="-307" y="-283" on="0"/>
        <pt x="-259" y="-283" on="1"/>
        <pt x="-222" y="-283" on="1"/>
        <pt x="-211" y="-283" on="0"/>
        <pt x="-210" y="-282" on="1"/>
        <pt x="-221" y="-191" on="0"/>
      </contour>
    </TTGlyph>
    <TTGlyph name="glyph209" xMin="-1000" yMin="-600" xMax="0" yMax="-100">
      <contour>
        <pt x="0" y="-300" on="1"/>
        <pt x="0" y="-600" on="0"/>
        <pt x="-300" y="-600" on="1"/>
        <pt x="-550" y="-600" on="0"/>
        <pt x="-637" y="-451" on="1"/>
        <pt x="-763" y="-250" on="0"/>
        <pt x="-850" y="-250" on="1"/>
        <pt x="-955" y="-250" on="0"/>
        <pt x="-1000" y="-340" on="1"/>
        <pt x="-1000" y="-290" on="1"/>
        <pt x="-1000" y="-240" on="0"/>
        <pt x="-962" y="-195" on="1"/>
        <pt x="-925" y="-150" on="0"/>
        <pt x="-800" y="-150" on="1"/>
        <pt x="-571" y="-150" on="0"/>
        <pt x="-452" y="-371" on="1"/>
        <pt x="-383" y="-500" on="0"/>
        <pt x="-300" y="-500" on="1"/>
        <pt x="-200" y="-500" on="0"/>
        <pt x="-200" y="-300" on="1"/>
        <pt x="-200" y="-200" on="0"/>
        <pt x="-300" y="-200" on="1"/>
        <pt x="-300" y="-100" on="0"/>
        <pt x="-200" y="-100" on="1"/>
        <pt x="0" y="-100" on="0"/>
      </contour>
    </TTGlyph>
    <TTGlyph name="glyph210" xMin="-800" yMin="-650" xMax="0" yMax="-100">
      <contour>
        <pt x="-600" y="-518" on="1"/>
        <pt x="-550" y="-474" on="0"/>
        <pt x="-550" y="-449" on="1"/>
        <pt x="-550" y="-420" on="0"/>
        <pt x="-600" y="-420" on="1"/>
      </contour>
      <contour>
        <pt x="-600" y="-329" on="1"/>
        <pt x="-450" y="-329" on="0"/>
        <pt x="-450" y="-448" on="1"/>
        <pt x="-450" y="-512" on="0"/>
        <pt x="-525" y="-581" on="1"/>
        <pt x="-600" y="-650" on="0"/>
        <pt x="-700" y="-650" on="1"/>
        <pt x="-800" y="-650" on="0"/>
        <pt x="-800" y="-516" on="1"/>
        <pt x="-800" y="-283" on="1"/>
        <pt x="-800" y="-100" on="0"/>
        <pt x="-400" y="-100" on="1"/>
        <pt x="0" y="-100" on="0"/>
        <pt x="0" y="-283" on="1"/>
        <pt x="0" y="-650" on="1"/>
        <pt x="-200" y="-650" on="1"/>
        <pt x="-200" y="-283" on="1"/>
        <pt x="-200" y="-191" on="0"/>
        <pt x="-400" y="-191" on="1"/>
        <pt x="-600" y="-191" on="0"/>
        <pt x="-600" y="-283" on="1"/>
      </contour>
    </TTGlyph>
    <TTGlyph name="glyph211" xMin="-799" yMin="-650" xMax="100" yMax="-100">
      <contour>
        <pt x="-200" y="-100" on="1"/>
        <pt x="0" y="-100" on="1"/>
        <pt x="0" y="-238" on="1"/>
        <pt x="100" y="-238" on="1"/>
        <pt x="100" y="-330" on="1"/>
        <pt x="0" y="-329" on="1"/>
        <pt x="0" y="-564" on="1"/>
        <pt x="0" y="-650" on="0"/>
        <pt x="-107" y="-650" on="1"/>
        <pt x="-383" y="-505" on="1"/>
        <pt x="-496" y="-614" on="1"/>
        <pt x="-534" y="-650" on="0"/>
        <pt x="-555" y="-650" on="1"/>
        <pt x="-576" y="-650" on="0"/>
        <pt x="-604" y="-610" on="1"/>
        <pt x="-774" y="-422" on="1"/>
        <pt x="-799" y="-388" on="0"/>
        <pt x="-799" y="-330" on="1"/>
        <pt x="-799" y="-273" on="0"/>
        <pt x="-711" y="-261" on="1"/>
        <pt x="-620" y="-249" on="0"/>
        <pt x="-472" y="-237" on="0"/>
        <pt x="-409" y="-237" on="1"/>
        <pt x="-200" y="-237" on="1"/>
      </contour>
      <contour>
        <pt x="-200" y="-330" on="1"/>
        <pt x="-423" y="-330" on="1"/>
        <pt x="-513" y="-330" on="0"/>
        <pt x="-599" y="-351" on="1"/>
        <pt x="-539" y="-530" on="1"/>
        <pt x="-399" y="-396" on="1"/>
        <pt x="-200" y="-503" on="1"/>
      </contour>
    </TTGlyph>
    <TTGlyph name="glyph212" xMin="-800" yMin="-650" xMax="0" yMax="-50">
      <contour>
        <pt x="-600" y="-226" on="1"/>
        <pt x="-530" y="-226" on="0"/>
        <pt x="-530" y="-259" on="1"/>
        <pt x="-530" y="-294" on="0"/>
        <pt x="-600" y="-358" on="1"/>
        <pt x="-725" y="-358" on="1"/>
        <pt x="-800" y="-358" on="0"/>
        <pt x="-800" y="-291" on="1"/>
        <pt x="-800" y="-182" on="1"/>
        <pt x="-675" y="-50" on="0"/>
        <pt x="-602" y="-50" on="1"/>
        <pt x="-530" y="-50" on="0"/>
        <pt x="-400" y="-140" on="1"/>
        <pt x="-270" y="-50" on="0"/>
        <pt x="-197" y="-50" on="1"/>
        <pt x="-125" y="-50" on="0"/>
        <pt x="0" y="-182" on="1"/>
        <pt x="0" y="-245" on="1"/>
        <pt x="0" y="-327" on="0"/>
        <pt x="-261" y="-400" on="1"/>
        <pt x="-600" y="-500" on="1"/>
        <pt x="-600" y="-535" on="0"/>
        <pt x="-550" y="-535" on="1"/>
        <pt x="-303" y="-535" on="0"/>
        <pt x="-200" y="-447" on="1"/>
        <pt x="0" y="-376" on="1"/>
        <pt x="0" y="-561" on="1"/>
        <pt x="0" y="-605" on="0"/>
        <pt x="-25" y="-627" on="1"/>
        <pt x="-50" y="-650" on="0"/>
        <pt x="-250" y="-650" on="1"/>
        <pt x="-200" y="-605" on="0"/>
        <pt x="-200" y="-579" on="1"/>
        <pt x="-200" y="-545" on="1"/>
        <pt x="-329" y="-623" on="0"/>
        <pt x="-550" y="-623" on="1"/>
        <pt x="-800" y="-623" on="0"/>
        <pt x="-800" y="-499" on="1"/>
        <pt x="-800" y="-442" on="0"/>
        <pt x="-733" y="-425" on="1"/>
        <pt x="-284" y="-318" on="1"/>
        <pt x="-201" y="-296" on="0"/>
        <pt x="-200" y="-245" on="1"/>
        <pt x="-200" y="-192" on="1"/>
        <pt x="-222" y="-155" on="0"/>
        <pt x="-243" y="-155" on="1"/>
        <pt x="-265" y="-155" on="0"/>
        <pt x="-400" y="-251" on="1"/>
        <pt x="-532" y="-155" on="0"/>
        <pt x="-554" y="-155" on="1"/>
        <pt x="-576" y="-155" on="0"/>
        <pt x="-600" y="-193" on="1"/>
      </contour>
    </TTGlyph>
    <TTGlyph name="glyph213" xMin="-800" yMin="-650" xMax="0" yMax="-100">
      <contour>
        <pt x="-600" y="-518" on="1"/>
        <pt x="-550" y="-474" on="0"/>
        <pt x="-550" y="-449" on="1"/>
        <pt x="-550" y="-420" on="0"/>
        <pt x="-600" y="-420" on="1"/>
      </contour>
      <contour>
        <pt x="-600" y="-329" on="1"/>
        <pt x="-450" y="-329" on="0"/>
        <pt x="-450" y="-448" on="1"/>
        <pt x="-450" y="-512" on="0"/>
        <pt x="-525" y="-581" on="1"/>
        <pt x="-600" y="-650" on="0"/>
        <pt x="-700" y="-650" on="1"/>
        <pt x="-800" y="-650" on="0"/>
        <pt x="-800" y="-516" on="1"/>
        <pt x="-800" y="-283" on="1"/>
        <pt x="-800" y="-100" on="0"/>
        <pt x="-400" y="-100" on="1"/>
        <pt x="0" y="-100" on="0"/>
        <pt x="0" y="-283" on="1"/>
        <pt x="0" y="-650" on="1"/>
        <pt x="-200" y="-650" on="1"/>
        <pt x="-200" y="-283" on="1"/>
        <pt x="-200" y="-191" on="0"/>
        <pt x="-400" y="-191" on="1"/>
        <pt x="-600" y="-191" on="0"/>
        <pt x="-600" y="-283" on="1"/>
      </contour>
    </TTGlyph>
    <TTGlyph name="glyph214" xMin="-950" yMin="-650" xMax="0" yMax="-100">
      <contour>
        <pt x="-950" y="-400" on="1"/>
        <pt x="-950" y="-100" on="0"/>
        <pt x="-600" y="-100" on="1"/>
        <pt x="-261" y="-100" on="0"/>
        <pt x="-132" y="-384" on="1"/>
        <pt x="-62" y="-550" on="0"/>
        <pt x="0" y="-550" on="1"/>
        <pt x="0" y="-650" on="0"/>
        <pt x="-100" y="-650" on="1"/>
        <pt x="-251" y="-650" on="0"/>
        <pt x="-314" y="-465" on="1"/>
        <pt x="-421" y="-200" on="0"/>
        <pt x="-600" y="-200" on="1"/>
        <pt x="-750" y="-200" on="0"/>
        <pt x="-750" y="-400" on="1"/>
        <pt x="-750" y="-550" on="0"/>
        <pt x="-600" y="-550" on="1"/>
        <pt x="-600" y="-650" on="0"/>
        <pt x="-750" y="-650" on="1"/>
        <pt x="-950" y="-650" on="0"/>
      </contour>
    </TTGlyph>
    <TTGlyph name="glyph215" xMin="-800" yMin="-650" xMax="0" yMax="-100">
      <contour>
        <pt x="-400" y="-237" on="1"/>
        <pt x="-400" y="-191" on="0"/>
        <pt x="-450" y="-191" on="1"/>
        <pt x="-450" y="-100" on="0"/>
        <pt x="-350" y="-100" on="1"/>
        <pt x="-250" y="-100" on="0"/>
        <pt x="-250" y="-191" on="1"/>
        <pt x="-250" y="-236" on="0"/>
        <pt x="-300" y="-305" on="1"/>
        <pt x="-350" y="-375" on="0"/>
        <pt x="-600" y="-461" on="1"/>
        <pt x="-600" y="-558" on="0"/>
        <pt x="-451" y="-558" on="1"/>
        <pt x="-273" y="-558" on="0"/>
        <pt x="-201" y="-269" on="1"/>
        <pt x="-181" y="-191" on="0"/>
        <pt x="-100" y="-191" on="1"/>
        <pt x="0" y="-191" on="0"/>
        <pt x="0" y="-237" on="1"/>
        <pt x="0" y="-512" on="1"/>
        <pt x="0" y="-650" on="0"/>
        <pt x="-245" y="-650" on="1"/>
        <pt x="-200" y="-604" on="0"/>
        <pt x="-200" y="-512" on="1"/>
        <pt x="-303" y="-650" on="0"/>
        <pt x="-451" y="-650" on="1"/>
        <pt x="-800" y="-650" on="0"/>
        <pt x="-800" y="-475" on="1"/>
        <pt x="-800" y="-400" on="0"/>
        <pt x="-750" y="-387" on="1"/>
        <pt x="-400" y="-314" on="0"/>
      </contour>
    </TTGlyph>
    <TTGlyph name="glyph216" xMin="-800" yMin="-650" xMax="0" yMax="-100">
      <contour>
        <pt x="-200" y="-145" on="1"/>
        <pt x="-200" y="-100" on="0"/>
        <pt x="-150" y="-100" on="1"/>
        <pt x="0" y="-100" on="0"/>
        <pt x="0" y="-279" on="1"/>
        <pt x="0" y="-491" on="0"/>
        <pt x="-191" y="-491" on="1"/>
        <pt x="-210" y="-491" on="0"/>
        <pt x="-282" y="-478" on="1"/>
        <pt x="-350" y="-465" on="1"/>
        <pt x="-350" y="-650" on="0"/>
        <pt x="-540" y="-650" on="1"/>
        <pt x="-800" y="-650" on="0"/>
        <pt x="-800" y="-496" on="1"/>
        <pt x="-800" y="-419" on="0"/>
        <pt x="-750" y="-405" on="1"/>
        <pt x="-649" y="-405" on="0"/>
        <pt x="-474" y="-309" on="1"/>
        <pt x="-300" y="-214" on="0"/>
        <pt x="-300" y="-173" on="1"/>
        <pt x="-300" y="-145" on="0"/>
        <pt x="-350" y="-145" on="1"/>
        <pt x="-350" y="-100" on="0"/>
        <pt x="-280" y="-100" on="1"/>
        <pt x="-204" y="-100" on="0"/>
        <pt x="-200" y="-161" on="1"/>
      </contour>
      <contour>
        <pt x="-300" y="-298" on="1"/>
        <pt x="-382" y="-353" on="1"/>
        <pt x="-258" y="-386" on="1"/>
        <pt x="-252" y="-387" on="0"/>
        <pt x="-247" y="-387" on="1"/>
        <pt x="-200" y="-387" on="0"/>
        <pt x="-200" y="-279" on="1"/>
        <pt x="-200" y="-174" on="1"/>
        <pt x="-205" y="-239" on="0"/>
      </contour>
      <contour>
        <pt x="-600" y="-496" on="1"/>
        <pt x="-600" y="-558" on="0"/>
        <pt x="-540" y="-558" on="1"/>
        <pt x="-450" y="-558" on="0"/>
        <pt x="-450" y="-463" on="1"/>
        <pt x="-450" y="-396" on="1"/>
      </contour>
    </TTGlyph>
    <TTGlyph name="glyph217" xMin="-950" yMin="-650" xMax="0" yMax="-100">
      <contour>
        <pt x="-651" y="-543" on="1"/>
        <pt x="-950" y="-543" on="0"/>
        <pt x="-950" y="-366" on="1"/>
        <pt x="-950" y="-188" on="0"/>
        <pt x="-650" y="-188" on="1"/>
        <pt x="-350" y="-188" on="1"/>
        <pt x="-350" y="-100" on="1"/>
        <pt x="-150" y="-100" on="1"/>
        <pt x="-150" y="-188" on="1"/>
        <pt x="0" y="-188" on="1"/>
        <pt x="0" y="-277" on="1"/>
        <pt x="-150" y="-277" on="1"/>
        <pt x="-150" y="-428" on="1"/>
        <pt x="-50" y="-428" on="0"/>
        <pt x="-50" y="-539" on="1"/>
        <pt x="-50" y="-650" on="0"/>
        <pt x="-200" y="-650" on="1"/>
        <pt x="-350" y="-650" on="0"/>
        <pt x="-350" y="-516" on="1"/>
      </contour>
      <contour>
        <pt x="-650" y="-455" on="1"/>
        <pt x="-350" y="-428" on="1"/>
        <pt x="-350" y="-277" on="1"/>
        <pt x="-650" y="-277" on="1"/>
        <pt x="-750" y="-277" on="0"/>
        <pt x="-750" y="-366" on="1"/>
        <pt x="-750" y="-455" on="0"/>
      </contour>
    </TTGlyph>
    <TTGlyph name="glyph218" xMin="-800" yMin="-650" xMax="0" yMax="-100">
      <contour>
        <pt x="-375" y="-386" on="1"/>
        <pt x="-200" y="-498" on="1"/>
        <pt x="-200" y="-329" on="1"/>
        <pt x="-225" y="-329" on="1"/>
        <pt x="-300" y="-329" on="0"/>
        <pt x="-300" y="-260" on="1"/>
        <pt x="-300" y="-191" on="0"/>
        <pt x="-250" y="-145" on="1"/>
        <pt x="-200" y="-100" on="1"/>
        <pt x="0" y="-100" on="1"/>
        <pt x="0" y="-550" on="1"/>
        <pt x="0" y="-650" on="0"/>
        <pt x="-75" y="-650" on="1"/>
        <pt x="-150" y="-650" on="0"/>
        <pt x="-184" y="-627" on="1"/>
        <pt x="-399" y="-489" on="1"/>
        <pt x="-615" y="-627" on="1"/>
        <pt x="-650" y="-650" on="0"/>
        <pt x="-725" y="-650" on="1"/>
        <pt x="-800" y="-650" on="0"/>
        <pt x="-800" y="-550" on="1"/>
        <pt x="-800" y="-100" on="1"/>
        <pt x="-600" y="-100" on="1"/>
        <pt x="-600" y="-498" on="1"/>
        <pt x="-425" y="-386" on="1"/>
        <pt x="-412" y="-378" on="0"/>
        <pt x="-400" y="-378" on="1"/>
        <pt x="-387" y="-378" on="0"/>
      </contour>
    </TTGlyph>
    <TTGlyph name="glyph219" xMin="-800" yMin="-650" xMax="0" yMax="-100">
      <contour>
        <pt x="-582" y="-489" on="0"/>
        <pt x="-600" y="-489" on="1"/>
        <pt x="-600" y="-558" on="1"/>
        <pt x="-561" y="-558" on="0"/>
        <pt x="-561" y="-512" on="1"/>
        <pt x="-561" y="-501" on="0"/>
        <pt x="-572" y="-495" on="1"/>
      </contour>
      <contour>
        <pt x="-600" y="-397" on="1"/>
        <pt x="-539" y="-397" on="0"/>
        <pt x="-508" y="-426" on="1"/>
        <pt x="-477" y="-455" on="0"/>
        <pt x="-477" y="-512" on="1"/>
        <pt x="-477" y="-650" on="0"/>
        <pt x="-600" y="-650" on="1"/>
        <pt x="-700" y="-650" on="1"/>
        <pt x="-800" y="-650" on="0"/>
        <pt x="-800" y="-558" on="1"/>
        <pt x="-800" y="-356" on="1"/>
        <pt x="-800" y="-244" on="0"/>
        <pt x="-615" y="-100" on="0"/>
        <pt x="-562" y="-100" on="1"/>
        <pt x="-518" y="-100" on="0"/>
        <pt x="-399" y="-204" on="1"/>
        <pt x="-280" y="-100" on="0"/>
        <pt x="-236" y="-100" on="1"/>
        <pt x="-184" y="-100" on="0"/>
        <pt x="0" y="-244" on="0"/>
        <pt x="0" y="-356" on="1"/>
        <pt x="0" y="-650" on="1"/>
        <pt x="-200" y="-650" on="1"/>
        <pt x="-200" y="-356" on="1"/>
        <pt x="-200" y="-268" on="0"/>
        <pt x="-236" y="-244" on="1"/>
        <pt x="-242" y="-241" on="0"/>
        <pt x="-249" y="-241" on="1"/>
        <pt x="-292" y="-241" on="0"/>
        <pt x="-399" y="-357" on="1"/>
        <pt x="-507" y="-241" on="0"/>
        <pt x="-550" y="-241" on="1"/>
        <pt x="-558" y="-241" on="0"/>
        <pt x="-563" y="-244" on="1"/>
        <pt x="-600" y="-268" on="0"/>
        <pt x="-600" y="-356" on="1"/>
      </contour>
    </TTGlyph>
    <TTGlyph name="glyph220" xMin="-950" yMin="-650" xMax="0" yMax="-100">
      <contour>
        <pt x="-800" y="-420" on="1"/>
        <pt x="-850" y="-420" on="0"/>
        <pt x="-850" y="-449" on="1"/>
        <pt x="-850" y="-474" on="0"/>
        <pt x="-800" y="-518" on="1"/>
      </contour>
      <contour>
        <pt x="-800" y="-283" on="1"/>
        <pt x="-800" y="-191" on="0"/>
        <pt x="-700" y="-145" on="1"/>
        <pt x="-600" y="-100" on="0"/>
        <pt x="-400" y="-100" on="1"/>
        <pt x="-200" y="-100" on="0"/>
        <pt x="-100" y="-145" on="1"/>
        <pt x="0" y="-191" on="0"/>
        <pt x="0" y="-284" on="1"/>
        <pt x="0" y="-650" on="1"/>
        <pt x="-200" y="-650" on="1"/>
        <pt x="-200" y="-283" on="1"/>
        <pt x="-200" y="-237" on="0"/>
        <pt x="-250" y="-214" on="1"/>
        <pt x="-300" y="-191" on="0"/>
        <pt x="-400" y="-191" on="1"/>
        <pt x="-500" y="-191" on="0"/>
        <pt x="-550" y="-214" on="1"/>
        <pt x="-600" y="-237" on="0"/>
        <pt x="-600" y="-283" on="1"/>
        <pt x="-600" y="-650" on="1"/>
        <pt x="-800" y="-650" on="1"/>
        <pt x="-875" y="-581" on="1"/>
        <pt x="-950" y="-512" on="0"/>
        <pt x="-950" y="-448" on="1"/>
        <pt x="-950" y="-329" on="0"/>
        <pt x="-800" y="-329" on="1"/>
      </contour>
    </TTGlyph>
    <TTGlyph name="glyph221" xMin="-800" yMin="-650" xMax="200" yMax="-100">
      <contour>
        <pt x="-550" y="-507" on="1"/>
        <pt x="-800" y="-507" on="0"/>
        <pt x="-800" y="-329" on="1"/>
        <pt x="-800" y="-237" on="0"/>
        <pt x="-600" y="-237" on="1"/>
        <pt x="-600" y="-329" on="1"/>
        <pt x="-600" y="-412" on="0"/>
        <pt x="-550" y="-412" on="1"/>
        <pt x="-200" y="-375" on="1"/>
        <pt x="-200" y="-100" on="1"/>
        <pt x="0" y="-100" on="1"/>
        <pt x="0" y="-375" on="1"/>
        <pt x="200" y="-375" on="0"/>
        <pt x="200" y="-512" on="1"/>
        <pt x="200" y="-650" on="0"/>
        <pt x="25" y="-650" on="1"/>
        <pt x="-200" y="-650" on="0"/>
        <pt x="-200" y="-466" on="1"/>
      </contour>
      <contour>
        <pt x="100" y="-512" on="1"/>
        <pt x="100" y="-466" on="0"/>
        <pt x="0" y="-466" on="1"/>
        <pt x="0" y="-558" on="0"/>
        <pt x="49" y="-558" on="1"/>
        <pt x="50" y="-558" on="1"/>
        <pt x="100" y="-558" on="0"/>
      </contour>
    </TTGlyph>
    <TTGlyph name="glyph222" xMin="-1050" yMin="-650" xMax="0" yMax="-100">
      <contour>
        <pt x="-1050" y="-400" on="1"/>
        <pt x="-1050" y="-100" on="0"/>
        <pt x="-700" y="-100" on="1"/>
        <pt x="-501" y="-100" on="0"/>
        <pt x="-432" y="-334" on="1"/>
        <pt x="-366" y="-550" on="0"/>
        <pt x="-300" y="-550" on="1"/>
        <pt x="-200" y="-550" on="0"/>
        <pt x="-200" y="-250" on="1"/>
        <pt x="-200" y="-150" on="0"/>
        <pt x="-250" y="-100" on="1"/>
        <pt x="0" y="-100" on="0"/>
        <pt x="0" y="-250" on="1"/>
        <pt x="0" y="-350" on="0"/>
        <pt x="-75" y="-500" on="1"/>
        <pt x="-150" y="-650" on="0"/>
        <pt x="-300" y="-650" on="1"/>
        <pt x="-550" y="-650" on="0"/>
        <pt x="-591" y="-363" on="1"/>
        <pt x="-620" y="-200" on="0"/>
        <pt x="-700" y="-200" on="1"/>
        <pt x="-850" y="-200" on="0"/>
        <pt x="-850" y="-400" on="1"/>
        <pt x="-850" y="-550" on="0"/>
        <pt x="-800" y="-550" on="1"/>
        <pt x="-750" y="-550" on="0"/>
        <pt x="-750" y="-450" on="1"/>
        <pt x="-650" y="-450" on="0"/>
        <pt x="-650" y="-550" on="1"/>
        <pt x="-650" y="-650" on="0"/>
        <pt x="-800" y="-650" on="1"/>
        <pt x="-1050" y="-650" on="0"/>
      </contour>
    </TTGlyph>
    <TTGlyph name="glyph223" xMin="-800" yMin="-650" xMax="0" yMax="-100">
      <contour>
        <pt x="-450" y="-650" on="1"/>
        <pt x="-800" y="-650" on="0"/>
        <pt x="-800" y="-481" on="1"/>
        <pt x="-800" y="-397" on="1"/>
        <pt x="-440" y="-397" on="0"/>
        <pt x="-200" y="-100" on="1"/>
        <pt x="0" y="-100" on="1"/>
        <pt x="0" y="-191" on="1"/>
        <pt x="0" y="-419" on="0"/>
        <pt x="-140" y="-534" on="1"/>
        <pt x="-279" y="-650" on="0"/>
      </contour>
      <contour>
        <pt x="-600" y="-481" on="1"/>
        <pt x="-600" y="-558" on="0"/>
        <pt x="-450" y="-558" on="1"/>
        <pt x="-320" y="-558" on="0"/>
        <pt x="-260" y="-488" on="1"/>
        <pt x="-200" y="-419" on="0"/>
        <pt x="-200" y="-262" on="1"/>
        <pt x="-400" y="-438" on="0"/>
      </contour>
    </TTGlyph>
    <TTGlyph name="glyph224" xMin="-900" yMin="-650" xMax="0" yMax="-100">
      <contour>
        <pt x="-700" y="-466" on="1"/>
        <pt x="-700" y="-558" on="0"/>
        <pt x="-625" y="-558" on="1"/>
        <pt x="-550" y="-558" on="0"/>
        <pt x="-550" y="-466" on="1"/>
        <pt x="-550" y="-283" on="1"/>
        <pt x="-550" y="-100" on="0"/>
        <pt x="-275" y="-100" on="1"/>
        <pt x="0" y="-100" on="0"/>
        <pt x="0" y="-283" on="1"/>
        <pt x="0" y="-650" on="1"/>
        <pt x="-200" y="-650" on="1"/>
        <pt x="-200" y="-283" on="1"/>
        <pt x="-200" y="-191" on="0"/>
        <pt x="-275" y="-191" on="1"/>
        <pt x="-350" y="-191" on="0"/>
        <pt x="-350" y="-283" on="1"/>
        <pt x="-350" y="-466" on="1"/>
        <pt x="-350" y="-650" on="0"/>
        <pt x="-625" y="-650" on="1"/>
        <pt x="-900" y="-650" on="0"/>
        <pt x="-900" y="-466" on="1"/>
        <pt x="-900" y="-100" on="1"/>
        <pt x="-700" y="-100" on="1"/>
      </contour>
    </TTGlyph>
    <TTGlyph name="glyph225" xMin="-880" yMin="-650" xMax="80" yMax="-50">
      <contour>
        <pt x="-880" y="-542" on="1"/>
        <pt x="-880" y="-478" on="0"/>
        <pt x="-800" y="-478" on="1"/>
        <pt x="-800" y="-307" on="1"/>
        <pt x="-880" y="-264" on="1"/>
        <pt x="-880" y="-178" on="1"/>
        <pt x="-710" y="-50" on="1"/>
        <pt x="-640" y="-92" on="1"/>
        <pt x="-569" y="-135" on="0"/>
        <pt x="-520" y="-135" on="1"/>
        <pt x="-549" y="-221" on="0"/>
        <pt x="-580" y="-221" on="1"/>
        <pt x="-622" y="-221" on="0"/>
        <pt x="-701" y="-186" on="1"/>
        <pt x="-740" y="-221" on="1"/>
        <pt x="-600" y="-281" on="1"/>
        <pt x="-600" y="-350" on="1"/>
        <pt x="-200" y="-350" on="1"/>
        <pt x="-200" y="-307" on="1"/>
        <pt x="-280" y="-264" on="1"/>
        <pt x="-280" y="-178" on="1"/>
        <pt x="-110" y="-50" on="1"/>
        <pt x="-40" y="-92" on="1"/>
        <pt x="31" y="-135" on="0"/>
        <pt x="80" y="-135" on="1"/>
        <pt x="51" y="-221" on="0"/>
        <pt x="20" y="-221" on="1"/>
        <pt x="-22" y="-221" on="0"/>
        <pt x="-101" y="-186" on="1"/>
        <pt x="-140" y="-221" on="1"/>
        <pt x="0" y="-281" on="1"/>
        <pt x="0" y="-650" on="1"/>
        <pt x="-200" y="-650" on="1"/>
        <pt x="-280" y="-607" on="0"/>
        <pt x="-280" y="-542" on="1"/>
        <pt x="-280" y="-478" on="0"/>
        <pt x="-200" y="-478" on="1"/>
        <pt x="-200" y="-445" on="1"/>
        <pt x="-600" y="-445" on="1"/>
        <pt x="-600" y="-650" on="1"/>
        <pt x="-800" y="-650" on="1"/>
        <pt x="-880" y="-607" on="0"/>
      </contour>
    </TTGlyph>
    <TTGlyph name="glyph226" xMin="-1750" yMin="-650" xMax="-950" yMax="-100">
      <contour>
        <pt x="-1350" y="-191" on="1"/>
        <pt x="-1450" y="-191" on="0"/>
        <pt x="-1500" y="-214" on="1"/>
        <pt x="-1550" y="-237" on="0"/>
        <pt x="-1550" y="-283" on="1"/>
        <pt x="-1550" y="-650" on="1"/>
        <pt x="-1750" y="-650" on="1"/>
        <pt x="-1750" y="-282" on="1"/>
        <pt x="-1750" y="-191" on="0"/>
        <pt x="-1650" y="-145" on="1"/>
        <pt x="-1550" y="-100" on="0"/>
        <pt x="-1350" y="-100" on="1"/>
        <pt x="-1150" y="-100" on="0"/>
        <pt x="-1050" y="-145" on="1"/>
        <pt x="-950" y="-191" on="0"/>
        <pt x="-950" y="-284" on="1"/>
        <pt x="-950" y="-650" on="1"/>
        <pt x="-1150" y="-650" on="1"/>
        <pt x="-1150" y="-283" on="1"/>
        <pt x="-1150" y="-237" on="0"/>
        <pt x="-1200" y="-214" on="1"/>
        <pt x="-1250" y="-191" on="0"/>
      </contour>
    </TTGlyph>
    <TTGlyph name="glyph227" xMin="-1750" yMin="-651" xMax="-950" yMax="-101">
      <contour>
        <pt x="-1350" y="-651" on="1"/>
        <pt x="-1750" y="-651" on="0"/>
        <pt x="-1750" y="-485" on="1"/>
        <pt x="-1750" y="-408" on="0"/>
        <pt x="-1683" y="-399" on="1"/>
        <pt x="-1368" y="-355" on="1"/>
        <pt x="-1232" y="-336" on="0"/>
        <pt x="-1153" y="-303" on="0"/>
        <pt x="-1153" y="-266" on="1"/>
        <pt x="-1153" y="-191" on="0"/>
        <pt x="-1350" y="-191" on="1"/>
        <pt x="-1466" y="-191" on="0"/>
        <pt x="-1506" y="-220" on="1"/>
        <pt x="-1550" y="-252" on="0"/>
        <pt x="-1550" y="-329" on="1"/>
        <pt x="-1750" y="-329" on="0"/>
        <pt x="-1750" y="-238" on="1"/>
        <pt x="-1750" y="-101" on="0"/>
        <pt x="-1350" y="-101" on="1"/>
        <pt x="-950" y="-101" on="0"/>
        <pt x="-950" y="-270" on="1"/>
        <pt x="-950" y="-395" on="0"/>
        <pt x="-1298" y="-442" on="1"/>
        <pt x="-1550" y="-483" on="1"/>
        <pt x="-1550" y="-559" on="0"/>
        <pt x="-1350" y="-559" on="1"/>
        <pt x="-1150" y="-559" on="0"/>
        <pt x="-1150" y="-467" on="1"/>
        <pt x="-950" y="-430" on="1"/>
        <pt x="-950" y="-651" on="0"/>
      </contour>
    </TTGlyph>
    <TTGlyph name="glyph228" xMin="-1750" yMin="-650" xMax="-950" yMax="-100">
      <contour>
        <pt x="-1350" y="-191" on="1"/>
        <pt x="-1550" y="-191" on="0"/>
        <pt x="-1550" y="-283" on="1"/>
        <pt x="-1550" y="-503" on="1"/>
        <pt x="-1500" y="-433" on="1"/>
        <pt x="-1419" y="-329" on="0"/>
        <pt x="-1350" y="-329" on="1"/>
        <pt x="-1250" y="-329" on="0"/>
        <pt x="-1250" y="-397" on="1"/>
        <pt x="-1250" y="-466" on="0"/>
        <pt x="-1350" y="-466" on="1"/>
        <pt x="-1400" y="-466" on="0"/>
        <pt x="-1475" y="-558" on="1"/>
        <pt x="-1550" y="-650" on="1"/>
        <pt x="-1750" y="-650" on="1"/>
        <pt x="-1750" y="-282" on="1"/>
        <pt x="-1750" y="-100" on="0"/>
        <pt x="-1350" y="-100" on="1"/>
        <pt x="-950" y="-100" on="0"/>
        <pt x="-950" y="-284" on="1"/>
        <pt x="-950" y="-650" on="1"/>
        <pt x="-1150" y="-650" on="1"/>
        <pt x="-1150" y="-283" on="1"/>
        <pt x="-1150" y="-191" on="0"/>
      </contour>
    </TTGlyph>
    <TTGlyph name="glyph229" xMin="-1750" yMin="-650" xMax="-950" yMax="-100">
      <contour>
        <pt x="-1400" y="-650" on="1"/>
        <pt x="-1750" y="-650" on="0"/>
        <pt x="-1750" y="-420" on="1"/>
        <pt x="-1750" y="-237" on="0"/>
        <pt x="-1550" y="-237" on="1"/>
        <pt x="-1450" y="-237" on="0"/>
        <pt x="-1450" y="-329" on="1"/>
        <pt x="-1550" y="-329" on="0"/>
        <pt x="-1550" y="-420" on="1"/>
        <pt x="-1550" y="-558" on="0"/>
        <pt x="-1400" y="-558" on="1"/>
        <pt x="-1150" y="-558" on="0"/>
        <pt x="-1150" y="-191" on="1"/>
        <pt x="-1150" y="-100" on="0"/>
        <pt x="-950" y="-100" on="1"/>
        <pt x="-1000" y="-650" on="0"/>
      </contour>
    </TTGlyph>
    <TTGlyph name="glyph230" xMin="-1720" yMin="-651" xMax="-820" yMax="-101">
      <contour>
        <pt x="-1345" y="-101" on="1"/>
        <pt x="-1270" y="-101" on="0"/>
        <pt x="-1245" y="-145" on="1"/>
        <pt x="-1239" y="-156" on="0"/>
        <pt x="-1239" y="-170" on="1"/>
        <pt x="-1239" y="-217" on="0"/>
        <pt x="-1300" y="-305" on="1"/>
        <pt x="-1380" y="-419" on="0"/>
        <pt x="-1520" y="-481" on="1"/>
        <pt x="-1520" y="-559" on="0"/>
        <pt x="-1420" y="-559" on="1"/>
        <pt x="-1300" y="-559" on="0"/>
        <pt x="-1182" y="-453" on="1"/>
        <pt x="-1132" y="-408" on="1"/>
        <pt x="-1220" y="-377" on="0"/>
        <pt x="-1220" y="-302" on="1"/>
        <pt x="-1220" y="-174" on="0"/>
        <pt x="-1070" y="-174" on="1"/>
        <pt x="-940" y="-174" on="0"/>
        <pt x="-940" y="-302" on="1"/>
        <pt x="-940" y="-318" on="0"/>
        <pt x="-956" y="-344" on="1"/>
        <pt x="-920" y="-344" on="1"/>
        <pt x="-893" y="-344" on="0"/>
        <pt x="-820" y="-310" on="1"/>
        <pt x="-820" y="-395" on="0"/>
        <pt x="-922" y="-429" on="1"/>
        <pt x="-970" y="-429" on="1"/>
        <pt x="-983" y="-429" on="0"/>
        <pt x="-1008" y="-428" on="0"/>
        <pt x="-1019" y="-427" on="1"/>
        <pt x="-1032" y="-443" on="0"/>
        <pt x="-1063" y="-478" on="0"/>
        <pt x="-1080" y="-497" on="1"/>
        <pt x="-1220" y="-651" on="0"/>
        <pt x="-1420" y="-651" on="1"/>
        <pt x="-1720" y="-651" on="0"/>
        <pt x="-1720" y="-481" on="1"/>
        <pt x="-1720" y="-400" on="0"/>
        <pt x="-1670" y="-388" on="1"/>
        <pt x="-1420" y="-335" on="0"/>
        <pt x="-1420" y="-191" on="1"/>
        <pt x="-1420" y="-101" on="0"/>
      </contour>
      <contour>
        <pt x="-1040" y="-302" on="1"/>
        <pt x="-1034" y="-291" on="0"/>
        <pt x="-1034" y="-282" on="1"/>
        <pt x="-1034" y="-262" on="0"/>
        <pt x="-1070" y="-262" on="1"/>
        <pt x="-1120" y="-262" on="0"/>
        <pt x="-1120" y="-302" on="1"/>
        <pt x="-1120" y="-327" on="0"/>
        <pt x="-1065" y="-336" on="1"/>
        <pt x="-1047" y="-316" on="0"/>
      </contour>
    </TTGlyph>
    <TTGlyph name="glyph231" xMin="-1800" yMin="-650" xMax="-900" yMax="-100">
      <contour>
        <pt x="-1650" y="-100" on="1"/>
        <pt x="-1500" y="-100" on="1"/>
        <pt x="-1500" y="-374" on="1"/>
        <pt x="-1400" y="-374" on="0"/>
        <pt x="-1340" y="-431" on="1"/>
        <pt x="-1265" y="-498" on="1"/>
        <pt x="-1200" y="-557" on="0"/>
        <pt x="-1150" y="-557" on="1"/>
        <pt x="-1100" y="-557" on="0"/>
        <pt x="-1100" y="-466" on="1"/>
        <pt x="-1100" y="-374" on="1"/>
        <pt x="-1169" y="-374" on="0"/>
        <pt x="-1200" y="-337" on="0"/>
        <pt x="-1200" y="-306" on="1"/>
        <pt x="-1200" y="-236" on="0"/>
        <pt x="-1100" y="-100" on="1"/>
        <pt x="-900" y="-100" on="1"/>
        <pt x="-900" y="-466" on="1"/>
        <pt x="-900" y="-649" on="0"/>
        <pt x="-1150" y="-649" on="1"/>
        <pt x="-1250" y="-649" on="0"/>
        <pt x="-1340" y="-555" on="1"/>
        <pt x="-1415" y="-488" on="1"/>
        <pt x="-1445" y="-466" on="0"/>
        <pt x="-1500" y="-466" on="1"/>
        <pt x="-1500" y="-650" on="1"/>
        <pt x="-1700" y="-650" on="1"/>
        <pt x="-1800" y="-531" on="0"/>
        <pt x="-1800" y="-466" on="1"/>
        <pt x="-1800" y="-374" on="0"/>
        <pt x="-1700" y="-374" on="1"/>
        <pt x="-1700" y="-146" on="1"/>
        <pt x="-1700" y="-100" on="0"/>
      </contour>
    </TTGlyph>
    <TTGlyph name="glyph232" xMin="-1770" yMin="-650" xMax="-773" yMax="-100">
      <contour>
        <pt x="-1122" y="-650" on="1"/>
        <pt x="-1174" y="-650" on="0"/>
        <pt x="-1283" y="-552" on="1"/>
        <pt x="-1320" y="-520" on="1"/>
        <pt x="-1359" y="-552" on="1"/>
        <pt x="-1469" y="-650" on="0"/>
        <pt x="-1520" y="-650" on="1"/>
        <pt x="-1770" y="-650" on="0"/>
        <pt x="-1770" y="-355" on="1"/>
        <pt x="-1770" y="-100" on="0"/>
        <pt x="-1520" y="-100" on="1"/>
        <pt x="-1470" y="-100" on="0"/>
        <pt x="-1470" y="-145" on="1"/>
        <pt x="-1470" y="-191" on="0"/>
        <pt x="-1520" y="-191" on="1"/>
        <pt x="-1570" y="-191" on="0"/>
        <pt x="-1570" y="-355" on="1"/>
        <pt x="-1570" y="-558" on="0"/>
        <pt x="-1520" y="-558" on="1"/>
        <pt x="-1421" y="-480" on="1"/>
        <pt x="-1320" y="-395" on="1"/>
        <pt x="-1222" y="-480" on="1"/>
        <pt x="-1120" y="-558" on="1"/>
        <pt x="-1070" y="-558" on="0"/>
        <pt x="-1070" y="-373" on="1"/>
        <pt x="-1082" y="-374" on="0"/>
        <pt x="-1107" y="-375" on="0"/>
        <pt x="-1120" y="-375" on="1"/>
        <pt x="-1270" y="-375" on="0"/>
        <pt x="-1270" y="-237" on="1"/>
        <pt x="-1270" y="-100" on="0"/>
        <pt x="-1120" y="-100" on="1"/>
        <pt x="-910" y="-100" on="0"/>
        <pt x="-878" y="-264" on="1"/>
        <pt x="-864" y="-260" on="0"/>
        <pt x="-836" y="-254" on="0"/>
        <pt x="-823" y="-249" on="1"/>
        <pt x="-817" y="-248" on="0"/>
        <pt x="-808" y="-246" on="0"/>
        <pt x="-805" y="-245" on="1"/>
        <pt x="-801" y="-244" on="0"/>
        <pt x="-787" y="-244" on="1"/>
        <pt x="-773" y="-244" on="0"/>
        <pt x="-773" y="-275" on="1"/>
        <pt x="-773" y="-316" on="0"/>
        <pt x="-823" y="-334" on="1"/>
        <pt x="-834" y="-338" on="0"/>
        <pt x="-857" y="-345" on="0"/>
        <pt x="-870" y="-349" on="1"/>
        <pt x="-870" y="-356" on="1"/>
        <pt x="-870" y="-650" on="0"/>
      </contour>
      <contour>
        <pt x="-1120" y="-191" on="1"/>
        <pt x="-1170" y="-191" on="0"/>
        <pt x="-1170" y="-237" on="1"/>
        <pt x="-1170" y="-283" on="0"/>
        <pt x="-1122" y="-283" on="1"/>
        <pt x="-1085" y="-283" on="1"/>
        <pt x="-1074" y="-283" on="0"/>
        <pt x="-1073" y="-282" on="1"/>
        <pt x="-1084" y="-191" on="0"/>
      </contour>
    </TTGlyph>
    <TTGlyph name="glyph233" xMin="-1950" yMin="-600" xMax="-950" yMax="-100">
      <contour>
        <pt x="-950" y="-300" on="1"/>
        <pt x="-950" y="-600" on="0"/>
        <pt x="-1250" y="-600" on="1"/>
        <pt x="-1500" y="-600" on="0"/>
        <pt x="-1587" y="-451" on="1"/>
        <pt x="-1713" y="-250" on="0"/>
        <pt x="-1800" y="-250" on="1"/>
        <pt x="-1905" y="-250" on="0"/>
        <pt x="-1950" y="-340" on="1"/>
        <pt x="-1950" y="-290" on="1"/>
        <pt x="-1950" y="-240" on="0"/>
        <pt x="-1912" y="-195" on="1"/>
        <pt x="-1875" y="-150" on="0"/>
        <pt x="-1750" y="-150" on="1"/>
        <pt x="-1521" y="-150" on="0"/>
        <pt x="-1402" y="-371" on="1"/>
        <pt x="-1333" y="-500" on="0"/>
        <pt x="-1250" y="-500" on="1"/>
        <pt x="-1150" y="-500" on="0"/>
        <pt x="-1150" y="-300" on="1"/>
        <pt x="-1150" y="-200" on="0"/>
        <pt x="-1250" y="-200" on="1"/>
        <pt x="-1250" y="-100" on="0"/>
        <pt x="-1150" y="-100" on="1"/>
        <pt x="-950" y="-100" on="0"/>
      </contour>
    </TTGlyph>
    <TTGlyph name="glyph234" xMin="-1750" yMin="-650" xMax="-950" yMax="-100">
      <contour>
        <pt x="-1550" y="-518" on="1"/>
        <pt x="-1500" y="-474" on="0"/>
        <pt x="-1500" y="-449" on="1"/>
        <pt x="-1500" y="-420" on="0"/>
        <pt x="-1550" y="-420" on="1"/>
      </contour>
      <contour>
        <pt x="-1550" y="-329" on="1"/>
        <pt x="-1400" y="-329" on="0"/>
        <pt x="-1400" y="-448" on="1"/>
        <pt x="-1400" y="-512" on="0"/>
        <pt x="-1475" y="-581" on="1"/>
        <pt x="-1550" y="-650" on="0"/>
        <pt x="-1650" y="-650" on="1"/>
        <pt x="-1750" y="-650" on="0"/>
        <pt x="-1750" y="-516" on="1"/>
        <pt x="-1750" y="-283" on="1"/>
        <pt x="-1750" y="-100" on="0"/>
        <pt x="-1350" y="-100" on="1"/>
        <pt x="-950" y="-100" on="0"/>
        <pt x="-950" y="-283" on="1"/>
        <pt x="-950" y="-650" on="1"/>
        <pt x="-1150" y="-650" on="1"/>
        <pt x="-1150" y="-283" on="1"/>
        <pt x="-1150" y="-191" on="0"/>
        <pt x="-1350" y="-191" on="1"/>
        <pt x="-1550" y="-191" on="0"/>
        <pt x="-1550" y="-283" on="1"/>
      </contour>
    </TTGlyph>
    <TTGlyph name="glyph235" xMin="-1799" yMin="-650" xMax="-900" yMax="-100">
      <contour>
        <pt x="-1200" y="-100" on="1"/>
        <pt x="-1000" y="-100" on="1"/>
        <pt x="-1000" y="-238" on="1"/>
        <pt x="-900" y="-238" on="1"/>
        <pt x="-900" y="-330" on="1"/>
        <pt x="-1000" y="-329" on="1"/>
        <pt x="-1000" y="-564" on="1"/>
        <pt x="-1000" y="-650" on="0"/>
        <pt x="-1107" y="-650" on="1"/>
        <pt x="-1383" y="-505" on="1"/>
        <pt x="-1496" y="-614" on="1"/>
        <pt x="-1534" y="-650" on="0"/>
        <pt x="-1555" y="-650" on="1"/>
        <pt x="-1576" y="-650" on="0"/>
        <pt x="-1604" y="-610" on="1"/>
        <pt x="-1774" y="-422" on="1"/>
        <pt x="-1799" y="-388" on="0"/>
        <pt x="-1799" y="-330" on="1"/>
        <pt x="-1799" y="-273" on="0"/>
        <pt x="-1711" y="-261" on="1"/>
        <pt x="-1620" y="-249" on="0"/>
        <pt x="-1472" y="-237" on="0"/>
        <pt x="-1409" y="-237" on="1"/>
        <pt x="-1200" y="-237" on="1"/>
      </contour>
      <contour>
        <pt x="-1200" y="-330" on="1"/>
        <pt x="-1423" y="-330" on="1"/>
        <pt x="-1513" y="-330" on="0"/>
        <pt x="-1599" y="-351" on="1"/>
        <pt x="-1539" y="-530" on="1"/>
        <pt x="-1399" y="-396" on="1"/>
        <pt x="-1200" y="-503" on="1"/>
      </contour>
    </TTGlyph>
    <TTGlyph name="glyph236" xMin="-1750" yMin="-650" xMax="-950" yMax="-50">
      <contour>
        <pt x="-1550" y="-226" on="1"/>
        <pt x="-1480" y="-226" on="0"/>
        <pt x="-1480" y="-259" on="1"/>
        <pt x="-1480" y="-294" on="0"/>
        <pt x="-1550" y="-358" on="1"/>
        <pt x="-1675" y="-358" on="1"/>
        <pt x="-1750" y="-358" on="0"/>
        <pt x="-1750" y="-291" on="1"/>
        <pt x="-1750" y="-182" on="1"/>
        <pt x="-1625" y="-50" on="0"/>
        <pt x="-1552" y="-50" on="1"/>
        <pt x="-1480" y="-50" on="0"/>
        <pt x="-1350" y="-140" on="1"/>
        <pt x="-1220" y="-50" on="0"/>
        <pt x="-1147" y="-50" on="1"/>
        <pt x="-1075" y="-50" on="0"/>
        <pt x="-950" y="-182" on="1"/>
        <pt x="-950" y="-245" on="1"/>
        <pt x="-950" y="-327" on="0"/>
        <pt x="-1211" y="-400" on="1"/>
        <pt x="-1550" y="-500" on="1"/>
        <pt x="-1550" y="-535" on="0"/>
        <pt x="-1500" y="-535" on="1"/>
        <pt x="-1253" y="-535" on="0"/>
        <pt x="-1150" y="-447" on="1"/>
        <pt x="-950" y="-376" on="1"/>
        <pt x="-950" y="-561" on="1"/>
        <pt x="-950" y="-605" on="0"/>
        <pt x="-975" y="-627" on="1"/>
        <pt x="-1000" y="-650" on="0"/>
        <pt x="-1200" y="-650" on="1"/>
        <pt x="-1150" y="-605" on="0"/>
        <pt x="-1150" y="-579" on="1"/>
        <pt x="-1150" y="-545" on="1"/>
        <pt x="-1279" y="-623" on="0"/>
        <pt x="-1500" y="-623" on="1"/>
        <pt x="-1750" y="-623" on="0"/>
        <pt x="-1750" y="-499" on="1"/>
        <pt x="-1750" y="-442" on="0"/>
        <pt x="-1683" y="-425" on="1"/>
        <pt x="-1234" y="-318" on="1"/>
        <pt x="-1151" y="-296" on="0"/>
        <pt x="-1150" y="-245" on="1"/>
        <pt x="-1150" y="-192" on="1"/>
        <pt x="-1172" y="-155" on="0"/>
        <pt x="-1193" y="-155" on="1"/>
        <pt x="-1215" y="-155" on="0"/>
        <pt x="-1350" y="-251" on="1"/>
        <pt x="-1482" y="-155" on="0"/>
        <pt x="-1504" y="-155" on="1"/>
        <pt x="-1526" y="-155" on="0"/>
        <pt x="-1550" y="-193" on="1"/>
      </contour>
    </TTGlyph>
    <TTGlyph name="glyph237" xMin="-1750" yMin="-650" xMax="-950" yMax="-100">
      <contour>
        <pt x="-1550" y="-518" on="1"/>
        <pt x="-1500" y="-474" on="0"/>
        <pt x="-1500" y="-449" on="1"/>
        <pt x="-1500" y="-420" on="0"/>
        <pt x="-1550" y="-420" on="1"/>
      </contour>
      <contour>
        <pt x="-1550" y="-329" on="1"/>
        <pt x="-1400" y="-329" on="0"/>
        <pt x="-1400" y="-448" on="1"/>
        <pt x="-1400" y="-512" on="0"/>
        <pt x="-1475" y="-581" on="1"/>
        <pt x="-1550" y="-650" on="0"/>
        <pt x="-1650" y="-650" on="1"/>
        <pt x="-1750" y="-650" on="0"/>
        <pt x="-1750" y="-516" on="1"/>
        <pt x="-1750" y="-283" on="1"/>
        <pt x="-1750" y="-100" on="0"/>
        <pt x="-1350" y="-100" on="1"/>
        <pt x="-950" y="-100" on="0"/>
        <pt x="-950" y="-283" on="1"/>
        <pt x="-950" y="-650" on="1"/>
        <pt x="-1150" y="-650" on="1"/>
        <pt x="-1150" y="-283" on="1"/>
        <pt x="-1150" y="-191" on="0"/>
        <pt x="-1350" y="-191" on="1"/>
        <pt x="-1550" y="-191" on="0"/>
        <pt x="-1550" y="-283" on="1"/>
      </contour>
    </TTGlyph>
    <TTGlyph name="glyph238" xMin="-1750" yMin="-650" xMax="-800" yMax="-100">
      <contour>
        <pt x="-1750" y="-400" on="1"/>
        <pt x="-1750" y="-100" on="0"/>
        <pt x="-1400" y="-100" on="1"/>
        <pt x="-1061" y="-100" on="0"/>
        <pt x="-932" y="-384" on="1"/>
        <pt x="-862" y="-550" on="0"/>
        <pt x="-800" y="-550" on="1"/>
        <pt x="-800" y="-650" on="0"/>
        <pt x="-900" y="-650" on="1"/>
        <pt x="-1051" y="-650" on="0"/>
        <pt x="-1114" y="-465" on="1"/>
        <pt x="-1221" y="-200" on="0"/>
        <pt x="-1400" y="-200" on="1"/>
        <pt x="-1550" y="-200" on="0"/>
        <pt x="-1550" y="-400" on="1"/>
        <pt x="-1550" y="-550" on="0"/>
        <pt x="-1400" y="-550" on="1"/>
        <pt x="-1400" y="-650" on="0"/>
        <pt x="-1550" y="-650" on="1"/>
        <pt x="-1750" y="-650" on="0"/>
      </contour>
    </TTGlyph>
    <TTGlyph name="glyph239" xMin="-1750" yMin="-650" xMax="-950" yMax="-100">
      <contour>
        <pt x="-1350" y="-237" on="1"/>
        <pt x="-1350" y="-191" on="0"/>
        <pt x="-1400" y="-191" on="1"/>
        <pt x="-1400" y="-100" on="0"/>
        <pt x="-1300" y="-100" on="1"/>
        <pt x="-1200" y="-100" on="0"/>
        <pt x="-1200" y="-191" on="1"/>
        <pt x="-1200" y="-236" on="0"/>
        <pt x="-1250" y="-305" on="1"/>
        <pt x="-1300" y="-375" on="0"/>
        <pt x="-1550" y="-461" on="1"/>
        <pt x="-1550" y="-558" on="0"/>
        <pt x="-1401" y="-558" on="1"/>
        <pt x="-1223" y="-558" on="0"/>
        <pt x="-1151" y="-269" on="1"/>
        <pt x="-1131" y="-191" on="0"/>
        <pt x="-1050" y="-191" on="1"/>
        <pt x="-950" y="-191" on="0"/>
        <pt x="-950" y="-237" on="1"/>
        <pt x="-950" y="-512" on="1"/>
        <pt x="-950" y="-650" on="0"/>
        <pt x="-1195" y="-650" on="1"/>
        <pt x="-1150" y="-604" on="0"/>
        <pt x="-1150" y="-512" on="1"/>
        <pt x="-1253" y="-650" on="0"/>
        <pt x="-1401" y="-650" on="1"/>
        <pt x="-1750" y="-650" on="0"/>
        <pt x="-1750" y="-475" on="1"/>
        <pt x="-1750" y="-400" on="0"/>
        <pt x="-1700" y="-387" on="1"/>
        <pt x="-1350" y="-314" on="0"/>
      </contour>
    </TTGlyph>
    <TTGlyph name="glyph240" xMin="-1750" yMin="-650" xMax="-950" yMax="-100">
      <contour>
        <pt x="-1150" y="-145" on="1"/>
        <pt x="-1150" y="-100" on="0"/>
        <pt x="-1100" y="-100" on="1"/>
        <pt x="-950" y="-100" on="0"/>
        <pt x="-950" y="-279" on="1"/>
        <pt x="-950" y="-491" on="0"/>
        <pt x="-1141" y="-491" on="1"/>
        <pt x="-1160" y="-491" on="0"/>
        <pt x="-1232" y="-478" on="1"/>
        <pt x="-1300" y="-465" on="1"/>
        <pt x="-1300" y="-650" on="0"/>
        <pt x="-1490" y="-650" on="1"/>
        <pt x="-1750" y="-650" on="0"/>
        <pt x="-1750" y="-496" on="1"/>
        <pt x="-1750" y="-419" on="0"/>
        <pt x="-1700" y="-405" on="1"/>
        <pt x="-1599" y="-405" on="0"/>
        <pt x="-1424" y="-309" on="1"/>
        <pt x="-1250" y="-214" on="0"/>
        <pt x="-1250" y="-173" on="1"/>
        <pt x="-1250" y="-145" on="0"/>
        <pt x="-1300" y="-145" on="1"/>
        <pt x="-1300" y="-100" on="0"/>
        <pt x="-1230" y="-100" on="1"/>
        <pt x="-1154" y="-100" on="0"/>
        <pt x="-1150" y="-161" on="1"/>
      </contour>
      <contour>
        <pt x="-1250" y="-298" on="1"/>
        <pt x="-1332" y="-353" on="1"/>
        <pt x="-1208" y="-386" on="1"/>
        <pt x="-1202" y="-387" on="0"/>
        <pt x="-1197" y="-387" on="1"/>
        <pt x="-1150" y="-387" on="0"/>
        <pt x="-1150" y="-279" on="1"/>
        <pt x="-1150" y="-174" on="1"/>
        <pt x="-1155" y="-239" on="0"/>
      </contour>
      <contour>
        <pt x="-1550" y="-496" on="1"/>
        <pt x="-1550" y="-558" on="0"/>
        <pt x="-1490" y="-558" on="1"/>
        <pt x="-1400" y="-558" on="0"/>
        <pt x="-1400" y="-463" on="1"/>
        <pt x="-1400" y="-396" on="1"/>
      </contour>
    </TTGlyph>
    <TTGlyph name="glyph241" xMin="-1825" yMin="-650" xMax="-875" yMax="-100">
      <contour>
        <pt x="-1526" y="-543" on="1"/>
        <pt x="-1825" y="-543" on="0"/>
        <pt x="-1825" y="-366" on="1"/>
        <pt x="-1825" y="-188" on="0"/>
        <pt x="-1525" y="-188" on="1"/>
        <pt x="-1225" y="-188" on="1"/>
        <pt x="-1225" y="-100" on="1"/>
        <pt x="-1025" y="-100" on="1"/>
        <pt x="-1025" y="-188" on="1"/>
        <pt x="-875" y="-188" on="1"/>
        <pt x="-875" y="-277" on="1"/>
        <pt x="-1025" y="-277" on="1"/>
        <pt x="-1025" y="-428" on="1"/>
        <pt x="-925" y="-428" on="0"/>
        <pt x="-925" y="-539" on="1"/>
        <pt x="-925" y="-650" on="0"/>
        <pt x="-1075" y="-650" on="1"/>
        <pt x="-1225" y="-650" on="0"/>
        <pt x="-1225" y="-516" on="1"/>
      </contour>
      <contour>
        <pt x="-1525" y="-455" on="1"/>
        <pt x="-1225" y="-428" on="1"/>
        <pt x="-1225" y="-277" on="1"/>
        <pt x="-1525" y="-277" on="1"/>
        <pt x="-1625" y="-277" on="0"/>
        <pt x="-1625" y="-366" on="1"/>
        <pt x="-1625" y="-455" on="0"/>
      </contour>
    </TTGlyph>
    <TTGlyph name="glyph242" xMin="-1750" yMin="-650" xMax="-950" yMax="-100">
      <contour>
        <pt x="-1325" y="-386" on="1"/>
        <pt x="-1150" y="-498" on="1"/>
        <pt x="-1150" y="-329" on="1"/>
        <pt x="-1175" y="-329" on="1"/>
        <pt x="-1250" y="-329" on="0"/>
        <pt x="-1250" y="-260" on="1"/>
        <pt x="-1250" y="-191" on="0"/>
        <pt x="-1200" y="-145" on="1"/>
        <pt x="-1150" y="-100" on="1"/>
        <pt x="-950" y="-100" on="1"/>
        <pt x="-950" y="-550" on="1"/>
        <pt x="-950" y="-650" on="0"/>
        <pt x="-1025" y="-650" on="1"/>
        <pt x="-1100" y="-650" on="0"/>
        <pt x="-1134" y="-627" on="1"/>
        <pt x="-1349" y="-489" on="1"/>
        <pt x="-1565" y="-627" on="1"/>
        <pt x="-1600" y="-650" on="0"/>
        <pt x="-1675" y="-650" on="1"/>
        <pt x="-1750" y="-650" on="0"/>
        <pt x="-1750" y="-550" on="1"/>
        <pt x="-1750" y="-100" on="1"/>
        <pt x="-1550" y="-100" on="1"/>
        <pt x="-1550" y="-498" on="1"/>
        <pt x="-1375" y="-386" on="1"/>
        <pt x="-1362" y="-378" on="0"/>
        <pt x="-1350" y="-378" on="1"/>
        <pt x="-1337" y="-378" on="0"/>
      </contour>
    </TTGlyph>
    <TTGlyph name="glyph243" xMin="-1750" yMin="-650" xMax="-950" yMax="-100">
      <contour>
        <pt x="-1532" y="-489" on="0"/>
        <pt x="-1550" y="-489" on="1"/>
        <pt x="-1550" y="-558" on="1"/>
        <pt x="-1511" y="-558" on="0"/>
        <pt x="-1511" y="-512" on="1"/>
        <pt x="-1511" y="-501" on="0"/>
        <pt x="-1522" y="-495" on="1"/>
      </contour>
      <contour>
        <pt x="-1550" y="-397" on="1"/>
        <pt x="-1489" y="-397" on="0"/>
        <pt x="-1458" y="-426" on="1"/>
        <pt x="-1427" y="-455" on="0"/>
        <pt x="-1427" y="-512" on="1"/>
        <pt x="-1427" y="-650" on="0"/>
        <pt x="-1550" y="-650" on="1"/>
        <pt x="-1650" y="-650" on="1"/>
        <pt x="-1750" y="-650" on="0"/>
        <pt x="-1750" y="-558" on="1"/>
        <pt x="-1750" y="-356" on="1"/>
        <pt x="-1750" y="-244" on="0"/>
        <pt x="-1565" y="-100" on="0"/>
        <pt x="-1512" y="-100" on="1"/>
        <pt x="-1468" y="-100" on="0"/>
        <pt x="-1349" y="-204" on="1"/>
        <pt x="-1230" y="-100" on="0"/>
        <pt x="-1186" y="-100" on="1"/>
        <pt x="-1134" y="-100" on="0"/>
        <pt x="-950" y="-244" on="0"/>
        <pt x="-950" y="-356" on="1"/>
        <pt x="-950" y="-650" on="1"/>
        <pt x="-1150" y="-650" on="1"/>
        <pt x="-1150" y="-356" on="1"/>
        <pt x="-1150" y="-268" on="0"/>
        <pt x="-1186" y="-244" on="1"/>
        <pt x="-1192" y="-241" on="0"/>
        <pt x="-1199" y="-241" on="1"/>
        <pt x="-1242" y="-241" on="0"/>
        <pt x="-1349" y="-357" on="1"/>
        <pt x="-1457" y="-241" on="0"/>
        <pt x="-1500" y="-241" on="1"/>
        <pt x="-1508" y="-241" on="0"/>
        <pt x="-1513" y="-244" on="1"/>
        <pt x="-1550" y="-268" on="0"/>
        <pt x="-1550" y="-356" on="1"/>
      </contour>
    </TTGlyph>
    <TTGlyph name="glyph244" xMin="-1825" yMin="-650" xMax="-875" yMax="-100">
      <contour>
        <pt x="-1675" y="-420" on="1"/>
        <pt x="-1725" y="-420" on="0"/>
        <pt x="-1725" y="-449" on="1"/>
        <pt x="-1725" y="-474" on="0"/>
        <pt x="-1675" y="-518" on="1"/>
      </contour>
      <contour>
        <pt x="-1675" y="-283" on="1"/>
        <pt x="-1675" y="-191" on="0"/>
        <pt x="-1575" y="-145" on="1"/>
        <pt x="-1475" y="-100" on="0"/>
        <pt x="-1275" y="-100" on="1"/>
        <pt x="-1075" y="-100" on="0"/>
        <pt x="-975" y="-145" on="1"/>
        <pt x="-875" y="-191" on="0"/>
        <pt x="-875" y="-284" on="1"/>
        <pt x="-875" y="-650" on="1"/>
        <pt x="-1075" y="-650" on="1"/>
        <pt x="-1075" y="-283" on="1"/>
        <pt x="-1075" y="-237" on="0"/>
        <pt x="-1125" y="-214" on="1"/>
        <pt x="-1175" y="-191" on="0"/>
        <pt x="-1275" y="-191" on="1"/>
        <pt x="-1375" y="-191" on="0"/>
        <pt x="-1425" y="-214" on="1"/>
        <pt x="-1475" y="-237" on="0"/>
        <pt x="-1475" y="-283" on="1"/>
        <pt x="-1475" y="-650" on="1"/>
        <pt x="-1675" y="-650" on="1"/>
        <pt x="-1750" y="-581" on="1"/>
        <pt x="-1825" y="-512" on="0"/>
        <pt x="-1825" y="-448" on="1"/>
        <pt x="-1825" y="-329" on="0"/>
        <pt x="-1675" y="-329" on="1"/>
      </contour>
    </TTGlyph>
    <TTGlyph name="glyph245" xMin="-1850" yMin="-650" xMax="-850" yMax="-100">
      <contour>
        <pt x="-1600" y="-507" on="1"/>
        <pt x="-1850" y="-507" on="0"/>
        <pt x="-1850" y="-329" on="1"/>
        <pt x="-1850" y="-237" on="0"/>
        <pt x="-1650" y="-237" on="1"/>
        <pt x="-1650" y="-329" on="1"/>
        <pt x="-1650" y="-412" on="0"/>
        <pt x="-1600" y="-412" on="1"/>
        <pt x="-1250" y="-375" on="1"/>
        <pt x="-1250" y="-100" on="1"/>
        <pt x="-1050" y="-100" on="1"/>
        <pt x="-1050" y="-375" on="1"/>
        <pt x="-850" y="-375" on="0"/>
        <pt x="-850" y="-512" on="1"/>
        <pt x="-850" y="-650" on="0"/>
        <pt x="-1025" y="-650" on="1"/>
        <pt x="-1250" y="-650" on="0"/>
        <pt x="-1250" y="-466" on="1"/>
      </contour>
      <contour>
        <pt x="-950" y="-512" on="1"/>
        <pt x="-950" y="-466" on="0"/>
        <pt x="-1050" y="-466" on="1"/>
        <pt x="-1050" y="-558" on="0"/>
        <pt x="-1001" y="-558" on="1"/>
        <pt x="-1000" y="-558" on="1"/>
        <pt x="-950" y="-558" on="0"/>
      </contour>
    </TTGlyph>
    <TTGlyph name="glyph246" xMin="-1875" yMin="-650" xMax="-825" yMax="-100">
      <contour>
        <pt x="-1875" y="-400" on="1"/>
        <pt x="-1875" y="-100" on="0"/>
        <pt x="-1525" y="-100" on="1"/>
        <pt x="-1326" y="-100" on="0"/>
        <pt x="-1257" y="-334" on="1"/>
        <pt x="-1191" y="-550" on="0"/>
        <pt x="-1125" y="-550" on="1"/>
        <pt x="-1025" y="-550" on="0"/>
        <pt x="-1025" y="-250" on="1"/>
        <pt x="-1025" y="-150" on="0"/>
        <pt x="-1075" y="-100" on="1"/>
        <pt x="-825" y="-100" on="0"/>
        <pt x="-825" y="-250" on="1"/>
        <pt x="-825" y="-350" on="0"/>
        <pt x="-900" y="-500" on="1"/>
        <pt x="-975" y="-650" on="0"/>
        <pt x="-1125" y="-650" on="1"/>
        <pt x="-1375" y="-650" on="0"/>
        <pt x="-1416" y="-363" on="1"/>
        <pt x="-1445" y="-200" on="0"/>
        <pt x="-1525" y="-200" on="1"/>
        <pt x="-1675" y="-200" on="0"/>
        <pt x="-1675" y="-400" on="1"/>
        <pt x="-1675" y="-550" on="0"/>
        <pt x="-1625" y="-550" on="1"/>
        <pt x="-1575" y="-550" on="0"/>
        <pt x="-1575" y="-450" on="1"/>
        <pt x="-1475" y="-450" on="0"/>
        <pt x="-1475" y="-550" on="1"/>
        <pt x="-1475" y="-650" on="0"/>
        <pt x="-1625" y="-650" on="1"/>
        <pt x="-1875" y="-650" on="0"/>
      </contour>
    </TTGlyph>
    <TTGlyph name="glyph247" xMin="-1750" yMin="-650" xMax="-950" yMax="-100">
      <contour>
        <pt x="-1400" y="-650" on="1"/>
        <pt x="-1750" y="-650" on="0"/>
        <pt x="-1750" y="-481" on="1"/>
        <pt x="-1750" y="-397" on="1"/>
        <pt x="-1390" y="-397" on="0"/>
        <pt x="-1150" y="-100" on="1"/>
        <pt x="-950" y="-100" on="1"/>
        <pt x="-950" y="-191" on="1"/>
        <pt x="-950" y="-419" on="0"/>
        <pt x="-1090" y="-534" on="1"/>
        <pt x="-1229" y="-650" on="0"/>
      </contour>
      <contour>
        <pt x="-1550" y="-481" on="1"/>
        <pt x="-1550" y="-558" on="0"/>
        <pt x="-1400" y="-558" on="1"/>
        <pt x="-1270" y="-558" on="0"/>
        <pt x="-1210" y="-488" on="1"/>
        <pt x="-1150" y="-419" on="0"/>
        <pt x="-1150" y="-262" on="1"/>
        <pt x="-1350" y="-438" on="0"/>
      </contour>
    </TTGlyph>
    <TTGlyph name="glyph248" xMin="-1800" yMin="-650" xMax="-900" yMax="-100">
      <contour>
        <pt x="-1600" y="-466" on="1"/>
        <pt x="-1600" y="-558" on="0"/>
        <pt x="-1525" y="-558" on="1"/>
        <pt x="-1450" y="-558" on="0"/>
        <pt x="-1450" y="-466" on="1"/>
        <pt x="-1450" y="-283" on="1"/>
        <pt x="-1450" y="-100" on="0"/>
        <pt x="-1175" y="-100" on="1"/>
        <pt x="-900" y="-100" on="0"/>
        <pt x="-900" y="-283" on="1"/>
        <pt x="-900" y="-650" on="1"/>
        <pt x="-1100" y="-650" on="1"/>
        <pt x="-1100" y="-283" on="1"/>
        <pt x="-1100" y="-191" on="0"/>
        <pt x="-1175" y="-191" on="1"/>
        <pt x="-1250" y="-191" on="0"/>
        <pt x="-1250" y="-283" on="1"/>
        <pt x="-1250" y="-466" on="1"/>
        <pt x="-1250" y="-650" on="0"/>
        <pt x="-1525" y="-650" on="1"/>
        <pt x="-1800" y="-650" on="0"/>
        <pt x="-1800" y="-466" on="1"/>
        <pt x="-1800" y="-100" on="1"/>
        <pt x="-1600" y="-100" on="1"/>
      </contour>
    </TTGlyph>
    <TTGlyph name="glyph249" xMin="-1830" yMin="-650" xMax="-870" yMax="-50">
      <contour>
        <pt x="-1830" y="-542" on="1"/>
        <pt x="-1830" y="-478" on="0"/>
        <pt x="-1750" y="-478" on="1"/>
        <pt x="-1750" y="-307" on="1"/>
        <pt x="-1830" y="-264" on="1"/>
        <pt x="-1830" y="-178" on="1"/>
        <pt x="-1660" y="-50" on="1"/>
        <pt x="-1590" y="-92" on="1"/>
        <pt x="-1519" y="-135" on="0"/>
        <pt x="-1470" y="-135" on="1"/>
        <pt x="-1499" y="-221" on="0"/>
        <pt x="-1530" y="-221" on="1"/>
        <pt x="-1572" y="-221" on="0"/>
        <pt x="-1651" y="-186" on="1"/>
        <pt x="-1690" y="-221" on="1"/>
        <pt x="-1550" y="-281" on="1"/>
        <pt x="-1550" y="-350" on="1"/>
        <pt x="-1150" y="-350" on="1"/>
        <pt x="-1150" y="-307" on="1"/>
        <pt x="-1230" y="-264" on="1"/>
        <pt x="-1230" y="-178" on="1"/>
        <pt x="-1060" y="-50" on="1"/>
        <pt x="-990" y="-92" on="1"/>
        <pt x="-919" y="-135" on="0"/>
        <pt x="-870" y="-135" on="1"/>
        <pt x="-899" y="-221" on="0"/>
        <pt x="-930" y="-221" on="1"/>
        <pt x="-972" y="-221" on="0"/>
        <pt x="-1051" y="-186" on="1"/>
        <pt x="-1090" y="-221" on="1"/>
        <pt x="-950" y="-281" on="1"/>
        <pt x="-950" y="-650" on="1"/>
        <pt x="-1150" y="-650" on="1"/>
        <pt x="-1230" y="-607" on="0"/>
        <pt x="-1230" y="-542" on="1"/>
        <pt x="-1230" y="-478" on="0"/>
        <pt x="-1150" y="-478" on="1"/>
        <pt x="-1150" y="-445" on="1"/>
        <pt x="-1550" y="-445" on="1"/>
        <pt x="-1550" y="-650" on="1"/>
        <pt x="-1750" y="-650" on="1"/>
        <pt x="-1830" y="-607" on="0"/>
      </contour>
    </TTGlyph>
    <TTGlyph name="glyph250" xMin="-1605" yMin="1820" xMax="-1095" yMax="2320">
      <contour>
        <pt x="-1420" y="2320" on="1"/>
        <pt x="-1420" y="1920" on="1"/>
        <pt x="-1420" y="1840" on="0"/>
        <pt x="-1512" y="1820" on="1"/>
        <pt x="-1605" y="1840" on="0"/>
        <pt x="-1605" y="1920" on="1"/>
        <pt x="-1605" y="2320" on="1"/>
      </contour>
      <contour>
        <pt x="-1095" y="2320" on="1"/>
        <pt x="-1095" y="1920" on="1"/>
        <pt x="-1095" y="1840" on="0"/>
        <pt x="-1187" y="1820" on="1"/>
        <pt x="-1280" y="1840" on="0"/>
        <pt x="-1280" y="1920" on="1"/>
        <pt x="-1280" y="2320" on="1"/>
      </contour>
    </TTGlyph>
    <TTGlyph name="glyph251" xMin="-1950" yMin="1600" xMax="-750" yMax="1976">
      <contour>
        <pt x="-1817" y="1600" on="1"/>
        <pt x="-1950" y="1626" on="0"/>
        <pt x="-1950" y="1685" on="1"/>
        <pt x="-1950" y="1720" on="1"/>
        <pt x="-1950" y="1765" on="0"/>
        <pt x="-1882" y="1817" on="1"/>
        <pt x="-1813" y="1869" on="1"/>
        <pt x="-1677" y="1976" on="0"/>
        <pt x="-1643" y="1976" on="1"/>
        <pt x="-1608" y="1976" on="0"/>
        <pt x="-1497" y="1907" on="1"/>
        <pt x="-1385" y="1837" on="0"/>
        <pt x="-1356" y="1837" on="1"/>
        <pt x="-1330" y="1837" on="0"/>
        <pt x="-1248" y="1907" on="1"/>
        <pt x="-1165" y="1976" on="0"/>
        <pt x="-1128" y="1976" on="1"/>
        <pt x="-1091" y="1976" on="0"/>
        <pt x="-1032" y="1923" on="1"/>
        <pt x="-887" y="1792" on="0"/>
        <pt x="-791" y="1792" on="1"/>
        <pt x="-769" y="1792" on="0"/>
        <pt x="-750" y="1799" on="1"/>
        <pt x="-824" y="1655" on="0"/>
        <pt x="-928" y="1655" on="1"/>
        <pt x="-1031" y="1655" on="0"/>
        <pt x="-1102" y="1715" on="1"/>
        <pt x="-1173" y="1774" on="0"/>
        <pt x="-1208" y="1774" on="1"/>
        <pt x="-1243" y="1774" on="0"/>
        <pt x="-1346" y="1655" on="0"/>
        <pt x="-1402" y="1655" on="1"/>
        <pt x="-1498" y="1655" on="0"/>
        <pt x="-1578" y="1715" on="1"/>
        <pt x="-1658" y="1774" on="0"/>
        <pt x="-1703" y="1774" on="1"/>
        <pt x="-1748" y="1774" on="0"/>
        <pt x="-1793" y="1731" on="0"/>
        <pt x="-1793" y="1699" on="1"/>
        <pt x="-1793" y="1646" on="0"/>
        <pt x="-1701" y="1637" on="1"/>
      </contour>
    </TTGlyph>
    <TTGlyph name="glyph252" xMin="-1694" yMin="1765" xMax="-1006" yMax="2500">
      <contour>
        <pt x="-1530" y="1819" on="1"/>
        <pt x="-1591" y="1765" on="0"/>
        <pt x="-1629" y="1765" on="1"/>
        <pt x="-1661" y="1765" on="0"/>
        <pt x="-1681" y="1792" on="1"/>
        <pt x="-1694" y="1811" on="0"/>
        <pt x="-1694" y="1830" on="1"/>
        <pt x="-1694" y="1921" on="0"/>
        <pt x="-1630" y="1966" on="1"/>
        <pt x="-1536" y="2030" on="1"/>
        <pt x="-1394" y="2127" on="0"/>
        <pt x="-1301" y="2357" on="0"/>
        <pt x="-1301" y="2400" on="1"/>
        <pt x="-1301" y="2500" on="0"/>
        <pt x="-1191" y="2500" on="1"/>
        <pt x="-1082" y="2500" on="0"/>
        <pt x="-1082" y="2400" on="1"/>
        <pt x="-1083" y="2327" on="0"/>
        <pt x="-1257" y="2101" on="0"/>
        <pt x="-1365" y="1991" on="1"/>
        <pt x="-1290" y="2025" on="0"/>
        <pt x="-1225" y="2025" on="1"/>
        <pt x="-1199" y="2025" on="0"/>
        <pt x="-1174" y="2020" on="1"/>
        <pt x="-1087" y="2001" on="0"/>
        <pt x="-1026" y="1919" on="1"/>
        <pt x="-1006" y="1884" on="0"/>
        <pt x="-1006" y="1837" on="1"/>
        <pt x="-1006" y="1799" on="0"/>
        <pt x="-1044" y="1778" on="1"/>
        <pt x="-1065" y="1765" on="0"/>
        <pt x="-1085" y="1765" on="1"/>
        <pt x="-1143" y="1765" on="0"/>
        <pt x="-1173" y="1815" on="1"/>
        <pt x="-1217" y="1890" on="0"/>
        <pt x="-1285" y="1900" on="1"/>
        <pt x="-1319" y="1903" on="0"/>
        <pt x="-1346" y="1903" on="1"/>
        <pt x="-1398" y="1903" on="0"/>
        <pt x="-1426" y="1891" on="1"/>
        <pt x="-1469" y="1872" on="0"/>
      </contour>
    </TTGlyph>
    <TTGlyph name="glyph253" xMin="-1590" yMin="1820" xMax="-1110" yMax="2299">
      <contour>
        <pt x="-1440" y="1969" on="1"/>
        <pt x="-1590" y="1969" on="1"/>
        <pt x="-1590" y="2150" on="1"/>
        <pt x="-1440" y="2150" on="1"/>
        <pt x="-1440" y="2299" on="1"/>
        <pt x="-1260" y="2299" on="1"/>
        <pt x="-1260" y="2150" on="1"/>
        <pt x="-1110" y="2150" on="1"/>
        <pt x="-1110" y="1969" on="1"/>
        <pt x="-1260" y="1969" on="1"/>
        <pt x="-1260" y="1820" on="1"/>
        <pt x="-1440" y="1820" on="1"/>
      </contour>
    </TTGlyph>
    <TTGlyph name="glyph254" xMin="83" yMin="0" xMax="2000" yMax="1500">
      <contour>
        <pt x="900" y="857" on="1"/>
        <pt x="900" y="990" on="0"/>
        <pt x="1200" y="1100" on="0"/>
        <pt x="1400" y="1100" on="1"/>
        <pt x="1600" y="1100" on="0"/>
        <pt x="1900" y="990" on="0"/>
        <pt x="1900" y="857" on="1"/>
        <pt x="1900" y="0" on="1"/>
        <pt x="1650" y="0" on="1"/>
        <pt x="1650" y="857" on="1"/>
        <pt x="1650" y="937" on="0"/>
        <pt x="1500" y="1000" on="0"/>
        <pt x="1400" y="1000" on="1"/>
        <pt x="1300" y="1000" on="0"/>
        <pt x="1150" y="937" on="0"/>
        <pt x="1150" y="857" on="1"/>
        <pt x="1150" y="0" on="1"/>
        <pt x="900" y="0" on="1"/>
      </contour>
      <contour>
        <pt x="981" y="1049" on="1"/>
        <pt x="800" y="1100" on="0"/>
        <pt x="800" y="1209" on="1"/>
        <pt x="800" y="1244" on="1"/>
        <pt x="800" y="1289" on="0"/>
        <pt x="868" y="1341" on="1"/>
        <pt x="937" y="1393" on="1"/>
        <pt x="1073" y="1500" on="0"/>
        <pt x="1107" y="1500" on="1"/>
        <pt x="1142" y="1500" on="0"/>
        <pt x="1253" y="1431" on="1"/>
        <pt x="1365" y="1361" on="0"/>
        <pt x="1394" y="1361" on="1"/>
        <pt x="1420" y="1361" on="0"/>
        <pt x="1502" y="1431" on="1"/>
        <pt x="1585" y="1500" on="0"/>
        <pt x="1622" y="1500" on="1"/>
        <pt x="1659" y="1500" on="0"/>
        <pt x="1718" y="1447" on="1"/>
        <pt x="1863" y="1316" on="0"/>
        <pt x="1959" y="1316" on="1"/>
        <pt x="1981" y="1316" on="0"/>
        <pt x="2000" y="1323" on="1"/>
        <pt x="1926" y="1179" on="0"/>
        <pt x="1822" y="1179" on="1"/>
        <pt x="1719" y="1179" on="0"/>
        <pt x="1648" y="1239" on="1"/>
        <pt x="1577" y="1298" on="0"/>
        <pt x="1542" y="1298" on="1"/>
        <pt x="1507" y="1298" on="0"/>
        <pt x="1404" y="1179" on="0"/>
        <pt x="1348" y="1179" on="1"/>
        <pt x="1252" y="1179" on="0"/>
        <pt x="1172" y="1239" on="1"/>
        <pt x="1092" y="1298" on="0"/>
        <pt x="1047" y="1298" on="1"/>
        <pt x="1002" y="1298" on="0"/>
        <pt x="957" y="1255" on="0"/>
        <pt x="957" y="1223" on="1"/>
        <pt x="957" y="1170" on="0"/>
        <pt x="1097" y="1086" on="1"/>
      </contour>
      <contour>
        <pt x="550" y="250" on="1"/>
        <pt x="550" y="350" on="0"/>
        <pt x="500" y="350" on="1"/>
        <pt x="450" y="350" on="0"/>
        <pt x="450" y="250" on="1"/>
        <pt x="450" y="150" on="0"/>
        <pt x="500" y="150" on="1"/>
        <pt x="550" y="150" on="0"/>
      </contour>
      <contour>
        <pt x="500" y="500" on="1"/>
        <pt x="650" y="500" on="0"/>
        <pt x="650" y="250" on="1"/>
        <pt x="650" y="0" on="0"/>
        <pt x="450" y="0" on="1"/>
        <pt x="250" y="0" on="0"/>
        <pt x="250" y="200" on="1"/>
        <pt x="250" y="963" on="1"/>
        <pt x="250" y="1020" on="0"/>
        <pt x="83" y="1073" on="1"/>
        <pt x="83" y="1206" on="1"/>
        <pt x="267" y="1500" on="1"/>
        <pt x="507" y="1382" on="0"/>
        <pt x="579" y="1382" on="1"/>
        <pt x="592" y="1382" on="0"/>
        <pt x="600" y="1386" on="1"/>
        <pt x="531" y="1191" on="0"/>
        <pt x="470" y="1183" on="1"/>
        <pt x="464" y="1182" on="0"/>
        <pt x="458" y="1182" on="1"/>
        <pt x="395" y="1182" on="0"/>
        <pt x="264" y="1253" on="1"/>
        <pt x="209" y="1170" on="1"/>
        <pt x="282" y="1138" on="1"/>
        <pt x="355" y="1106" on="1"/>
        <pt x="500" y="1041" on="0"/>
        <pt x="500" y="980" on="1"/>
      </contour>
    </TTGlyph>
    <TTGlyph name="glyph255" xMin="83" yMin="0" xMax="1900" yMax="1500">
      <contour>
        <pt x="900" y="1150" on="1"/>
        <pt x="900" y="1500" on="0"/>
        <pt x="1400" y="1500" on="1"/>
        <pt x="1900" y="1500" on="0"/>
        <pt x="1900" y="1150" on="1"/>
        <pt x="1900" y="833" on="0"/>
        <pt x="1486" y="627" on="1"/>
        <pt x="1203" y="483" on="1"/>
        <pt x="1150" y="452" on="0"/>
        <pt x="1150" y="350" on="1"/>
        <pt x="1150" y="276" on="0"/>
        <pt x="1281" y="130" on="0"/>
        <pt x="1380" y="130" on="1"/>
        <pt x="1450" y="130" on="0"/>
        <pt x="1650" y="314" on="0"/>
        <pt x="1650" y="531" on="1"/>
        <pt x="1900" y="685" on="1"/>
        <pt x="1900" y="510" on="1"/>
        <pt x="1900" y="381" on="0"/>
        <pt x="1776" y="178" on="0"/>
        <pt x="1633" y="98" on="1"/>
        <pt x="1459" y="0" on="0"/>
        <pt x="1350" y="0" on="1"/>
        <pt x="1198" y="0" on="0"/>
        <pt x="900" y="267" on="0"/>
        <pt x="900" y="350" on="1"/>
        <pt x="900" y="504" on="0"/>
        <pt x="1127" y="616" on="1"/>
        <pt x="1414" y="760" on="1"/>
        <pt x="1650" y="883" on="0"/>
        <pt x="1650" y="1150" on="1"/>
        <pt x="1650" y="1400" on="0"/>
        <pt x="1400" y="1400" on="1"/>
        <pt x="1150" y="1400" on="0"/>
        <pt x="1150" y="1150" on="1"/>
        <pt x="1150" y="1030" on="0"/>
        <pt x="1220" y="1030" on="1"/>
        <pt x="1220" y="1042" on="1"/>
        <pt x="1220" y="1122" on="0"/>
        <pt x="1300" y="1135" on="1"/>
        <pt x="1313" y="1137" on="0"/>
        <pt x="1324" y="1137" on="1"/>
        <pt x="1389" y="1137" on="0"/>
        <pt x="1408" y="1073" on="1"/>
        <pt x="1415" y="1051" on="0"/>
        <pt x="1415" y="1031" on="1"/>
        <pt x="1415" y="982" on="0"/>
        <pt x="1376" y="944" on="1"/>
        <pt x="1320" y="890" on="0"/>
        <pt x="1220" y="890" on="1"/>
        <pt x="900" y="890" on="0"/>
      </contour>
      <contour>
        <pt x="550" y="250" on="1"/>
        <pt x="550" y="350" on="0"/>
        <pt x="500" y="350" on="1"/>
        <pt x="450" y="350" on="0"/>
        <pt x="450" y="250" on="1"/>
        <pt x="450" y="150" on="0"/>
        <pt x="500" y="150" on="1"/>
        <pt x="550" y="150" on="0"/>
      </contour>
      <contour>
        <pt x="500" y="500" on="1"/>
        <pt x="650" y="500" on="0"/>
        <pt x="650" y="250" on="1"/>
        <pt x="650" y="0" on="0"/>
        <pt x="450" y="0" on="1"/>
        <pt x="250" y="0" on="0"/>
        <pt x="250" y="200" on="1"/>
        <pt x="250" y="963" on="1"/>
        <pt x="250" y="1020" on="0"/>
        <pt x="83" y="1073" on="1"/>
        <pt x="83" y="1206" on="1"/>
        <pt x="267" y="1500" on="1"/>
        <pt x="507" y="1382" on="0"/>
        <pt x="579" y="1382" on="1"/>
        <pt x="592" y="1382" on="0"/>
        <pt x="600" y="1386" on="1"/>
        <pt x="531" y="1191" on="0"/>
        <pt x="470" y="1183" on="1"/>
        <pt x="464" y="1182" on="0"/>
        <pt x="458" y="1182" on="1"/>
        <pt x="395" y="1182" on="0"/>
        <pt x="264" y="1253" on="1"/>
        <pt x="209" y="1170" on="1"/>
        <pt x="282" y="1138" on="1"/>
        <pt x="355" y="1106" on="1"/>
        <pt x="500" y="1041" on="0"/>
        <pt x="500" y="980" on="1"/>
      </contour>
    </TTGlyph>
    <TTGlyph name="glyph256" xMin="83" yMin="0" xMax="2000" yMax="1500">
      <contour>
        <pt x="981" y="1049" on="1"/>
        <pt x="800" y="1100" on="0"/>
        <pt x="800" y="1209" on="1"/>
        <pt x="800" y="1244" on="1"/>
        <pt x="800" y="1289" on="0"/>
        <pt x="868" y="1341" on="1"/>
        <pt x="937" y="1393" on="1"/>
        <pt x="1073" y="1500" on="0"/>
        <pt x="1107" y="1500" on="1"/>
        <pt x="1142" y="1500" on="0"/>
        <pt x="1253" y="1431" on="1"/>
        <pt x="1365" y="1361" on="0"/>
        <pt x="1394" y="1361" on="1"/>
        <pt x="1420" y="1361" on="0"/>
        <pt x="1502" y="1431" on="1"/>
        <pt x="1585" y="1500" on="0"/>
        <pt x="1622" y="1500" on="1"/>
        <pt x="1659" y="1500" on="0"/>
        <pt x="1718" y="1447" on="1"/>
        <pt x="1863" y="1316" on="0"/>
        <pt x="1959" y="1316" on="1"/>
        <pt x="1981" y="1316" on="0"/>
        <pt x="2000" y="1323" on="1"/>
        <pt x="1926" y="1179" on="0"/>
        <pt x="1822" y="1179" on="1"/>
        <pt x="1719" y="1179" on="0"/>
        <pt x="1648" y="1239" on="1"/>
        <pt x="1577" y="1298" on="0"/>
        <pt x="1542" y="1298" on="1"/>
        <pt x="1507" y="1298" on="0"/>
        <pt x="1404" y="1179" on="0"/>
        <pt x="1348" y="1179" on="1"/>
        <pt x="1252" y="1179" on="0"/>
        <pt x="1172" y="1239" on="1"/>
        <pt x="1092" y="1298" on="0"/>
        <pt x="1047" y="1298" on="1"/>
        <pt x="1002" y="1298" on="0"/>
        <pt x="957" y="1255" on="0"/>
        <pt x="957" y="1223" on="1"/>
        <pt x="957" y="1170" on="0"/>
        <pt x="1097" y="1086" on="1"/>
      </contour>
      <contour>
        <pt x="1150" y="378" on="1"/>
        <pt x="1246" y="500" on="0"/>
        <pt x="1370" y="500" on="1"/>
        <pt x="1500" y="500" on="0"/>
        <pt x="1500" y="375" on="1"/>
        <pt x="1500" y="250" on="0"/>
        <pt x="1390" y="250" on="1"/>
        <pt x="1390" y="350" on="0"/>
        <pt x="1320" y="350" on="1"/>
        <pt x="1249" y="350" on="0"/>
        <pt x="1200" y="225" on="1"/>
        <pt x="1150" y="100" on="0"/>
        <pt x="1150" y="0" on="1"/>
        <pt x="900" y="0" on="1"/>
        <pt x="900" y="857" on="1"/>
        <pt x="900" y="990" on="0"/>
        <pt x="1200" y="1100" on="0"/>
        <pt x="1400" y="1100" on="1"/>
        <pt x="1600" y="1100" on="0"/>
        <pt x="1900" y="990" on="0"/>
        <pt x="1900" y="857" on="1"/>
        <pt x="1900" y="0" on="1"/>
        <pt x="1650" y="0" on="1"/>
        <pt x="1650" y="857" on="1"/>
        <pt x="1650" y="937" on="0"/>
        <pt x="1500" y="1000" on="0"/>
        <pt x="1400" y="1000" on="1"/>
        <pt x="1300" y="1000" on="0"/>
        <pt x="1150" y="937" on="0"/>
        <pt x="1150" y="857" on="1"/>
      </contour>
      <contour>
        <pt x="550" y="250" on="1"/>
        <pt x="550" y="350" on="0"/>
        <pt x="500" y="350" on="1"/>
        <pt x="450" y="350" on="0"/>
        <pt x="450" y="250" on="1"/>
        <pt x="450" y="150" on="0"/>
        <pt x="500" y="150" on="1"/>
        <pt x="550" y="150" on="0"/>
      </contour>
      <contour>
        <pt x="500" y="500" on="1"/>
        <pt x="650" y="500" on="0"/>
        <pt x="650" y="250" on="1"/>
        <pt x="650" y="0" on="0"/>
        <pt x="450" y="0" on="1"/>
        <pt x="250" y="0" on="0"/>
        <pt x="250" y="200" on="1"/>
        <pt x="250" y="963" on="1"/>
        <pt x="250" y="1020" on="0"/>
        <pt x="83" y="1073" on="1"/>
        <pt x="83" y="1206" on="1"/>
        <pt x="267" y="1500" on="1"/>
        <pt x="507" y="1382" on="0"/>
        <pt x="579" y="1382" on="1"/>
        <pt x="592" y="1382" on="0"/>
        <pt x="600" y="1386" on="1"/>
        <pt x="531" y="1191" on="0"/>
        <pt x="470" y="1183" on="1"/>
        <pt x="464" y="1182" on="0"/>
        <pt x="458" y="1182" on="1"/>
        <pt x="395" y="1182" on="0"/>
        <pt x="264" y="1253" on="1"/>
        <pt x="209" y="1170" on="1"/>
        <pt x="282" y="1138" on="1"/>
        <pt x="355" y="1106" on="1"/>
        <pt x="500" y="1041" on="0"/>
        <pt x="500" y="980" on="1"/>
      </contour>
    </TTGlyph>
    <TTGlyph name="glyph257" xMin="83" yMin="0" xMax="2700" yMax="1500">
      <contour>
        <pt x="900" y="1250" on="1"/>
        <pt x="900" y="1150" on="0"/>
        <pt x="950" y="1150" on="1"/>
        <pt x="1000" y="1150" on="0"/>
        <pt x="1000" y="1250" on="1"/>
        <pt x="1000" y="1350" on="0"/>
        <pt x="950" y="1350" on="1"/>
        <pt x="900" y="1350" on="0"/>
      </contour>
      <contour>
        <pt x="2350" y="963" on="1"/>
        <pt x="2350" y="1020" on="0"/>
        <pt x="2183" y="1073" on="1"/>
        <pt x="2183" y="1206" on="1"/>
        <pt x="2367" y="1500" on="1"/>
        <pt x="2607" y="1382" on="0"/>
        <pt x="2679" y="1382" on="1"/>
        <pt x="2692" y="1382" on="0"/>
        <pt x="2700" y="1386" on="1"/>
        <pt x="2631" y="1191" on="0"/>
        <pt x="2570" y="1183" on="1"/>
        <pt x="2564" y="1182" on="0"/>
        <pt x="2558" y="1182" on="1"/>
        <pt x="2495" y="1182" on="0"/>
        <pt x="2364" y="1253" on="1"/>
        <pt x="2309" y="1170" on="1"/>
        <pt x="2382" y="1138" on="1"/>
        <pt x="2455" y="1106" on="1"/>
        <pt x="2600" y="1041" on="0"/>
        <pt x="2600" y="980" on="1"/>
        <pt x="2600" y="243" on="1"/>
        <pt x="2600" y="0" on="0"/>
        <pt x="2125" y="0" on="1"/>
        <pt x="1894" y="0" on="0"/>
        <pt x="1775" y="58" on="1"/>
        <pt x="1656" y="0" on="0"/>
        <pt x="1425" y="0" on="1"/>
        <pt x="950" y="0" on="0"/>
        <pt x="950" y="243" on="1"/>
        <pt x="950" y="1000" on="1"/>
        <pt x="800" y="1000" on="0"/>
        <pt x="800" y="1250" on="1"/>
        <pt x="800" y="1500" on="0"/>
        <pt x="1000" y="1500" on="1"/>
        <pt x="1200" y="1500" on="0"/>
        <pt x="1200" y="1300" on="1"/>
        <pt x="1200" y="243" on="1"/>
        <pt x="1200" y="100" on="0"/>
        <pt x="1425" y="100" on="1"/>
        <pt x="1650" y="100" on="0"/>
        <pt x="1650" y="243" on="1"/>
        <pt x="1650" y="963" on="1"/>
        <pt x="1650" y="1020" on="0"/>
        <pt x="1483" y="1073" on="1"/>
        <pt x="1483" y="1206" on="1"/>
        <pt x="1667" y="1500" on="1"/>
        <pt x="1907" y="1382" on="0"/>
        <pt x="1979" y="1382" on="1"/>
        <pt x="1992" y="1382" on="0"/>
        <pt x="2000" y="1386" on="1"/>
        <pt x="1931" y="1191" on="0"/>
        <pt x="1870" y="1183" on="1"/>
        <pt x="1864" y="1182" on="0"/>
        <pt x="1858" y="1182" on="1"/>
        <pt x="1795" y="1182" on="0"/>
        <pt x="1664" y="1253" on="1"/>
        <pt x="1609" y="1170" on="1"/>
        <pt x="1682" y="1138" on="1"/>
        <pt x="1755" y="1106" on="1"/>
        <pt x="1900" y="1041" on="0"/>
        <pt x="1900" y="980" on="1"/>
        <pt x="1900" y="243" on="1"/>
        <pt x="1900" y="100" on="0"/>
        <pt x="2125" y="100" on="1"/>
        <pt x="2350" y="100" on="0"/>
        <pt x="2350" y="243" on="1"/>
      </contour>
      <contour>
        <pt x="550" y="250" on="1"/>
        <pt x="550" y="350" on="0"/>
        <pt x="500" y="350" on="1"/>
        <pt x="450" y="350" on="0"/>
        <pt x="450" y="250" on="1"/>
        <pt x="450" y="150" on="0"/>
        <pt x="500" y="150" on="1"/>
        <pt x="550" y="150" on="0"/>
      </contour>
      <contour>
        <pt x="500" y="500" on="1"/>
        <pt x="650" y="500" on="0"/>
        <pt x="650" y="250" on="1"/>
        <pt x="650" y="0" on="0"/>
        <pt x="450" y="0" on="1"/>
        <pt x="250" y="0" on="0"/>
        <pt x="250" y="200" on="1"/>
        <pt x="250" y="963" on="1"/>
        <pt x="250" y="1020" on="0"/>
        <pt x="83" y="1073" on="1"/>
        <pt x="83" y="1206" on="1"/>
        <pt x="267" y="1500" on="1"/>
        <pt x="507" y="1382" on="0"/>
        <pt x="579" y="1382" on="1"/>
        <pt x="592" y="1382" on="0"/>
        <pt x="600" y="1386" on="1"/>
        <pt x="531" y="1191" on="0"/>
        <pt x="470" y="1183" on="1"/>
        <pt x="464" y="1182" on="0"/>
        <pt x="458" y="1182" on="1"/>
        <pt x="395" y="1182" on="0"/>
        <pt x="264" y="1253" on="1"/>
        <pt x="209" y="1170" on="1"/>
        <pt x="282" y="1138" on="1"/>
        <pt x="355" y="1106" on="1"/>
        <pt x="500" y="1041" on="0"/>
        <pt x="500" y="980" on="1"/>
      </contour>
    </TTGlyph>
    <TTGlyph name="glyph258" xMin="83" yMin="0" xMax="1900" yMax="1800">
      <contour>
        <pt x="1610" y="1320" on="1"/>
        <pt x="1610" y="1380" on="0"/>
        <pt x="1570" y="1380" on="1"/>
        <pt x="1530" y="1380" on="0"/>
        <pt x="1530" y="1320" on="1"/>
        <pt x="1530" y="1276" on="0"/>
        <pt x="1583" y="1231" on="1"/>
        <pt x="1610" y="1273" on="0"/>
      </contour>
      <contour>
        <pt x="1650" y="192" on="1"/>
        <pt x="1650" y="900" on="1"/>
        <pt x="1650" y="1008" on="0"/>
        <pt x="1614" y="1065" on="0"/>
        <pt x="1578" y="1089" on="1"/>
        <pt x="1436" y="1000" on="0"/>
        <pt x="1320" y="1000" on="1"/>
        <pt x="1122" y="1000" on="0"/>
        <pt x="900" y="1144" on="0"/>
        <pt x="900" y="1300" on="1"/>
        <pt x="900" y="1375" on="0"/>
        <pt x="950" y="1520" on="0"/>
        <pt x="950" y="1600" on="1"/>
        <pt x="950" y="1700" on="0"/>
        <pt x="850" y="1700" on="1"/>
        <pt x="850" y="1800" on="0"/>
        <pt x="980" y="1800" on="1"/>
        <pt x="1200" y="1800" on="0"/>
        <pt x="1200" y="1600" on="1"/>
        <pt x="1200" y="1505" on="0"/>
        <pt x="1150" y="1380" on="0"/>
        <pt x="1150" y="1300" on="1"/>
        <pt x="1150" y="1201" on="0"/>
        <pt x="1195" y="1151" on="1"/>
        <pt x="1240" y="1100" on="0"/>
        <pt x="1320" y="1100" on="1"/>
        <pt x="1384" y="1100" on="0"/>
        <pt x="1485" y="1156" on="1"/>
        <pt x="1340" y="1244" on="0"/>
        <pt x="1340" y="1320" on="1"/>
        <pt x="1340" y="1500" on="0"/>
        <pt x="1570" y="1500" on="1"/>
        <pt x="1790" y="1500" on="0"/>
        <pt x="1790" y="1320" on="1"/>
        <pt x="1790" y="1243" on="0"/>
        <pt x="1682" y="1172" on="1"/>
        <pt x="1703" y="1161" on="0"/>
        <pt x="1725" y="1150" on="1"/>
        <pt x="1900" y="1063" on="0"/>
        <pt x="1900" y="900" on="1"/>
        <pt x="1900" y="100" on="1"/>
        <pt x="1900" y="0" on="0"/>
        <pt x="1775" y="0" on="1"/>
        <pt x="1700" y="0" on="0"/>
        <pt x="1625" y="75" on="1"/>
        <pt x="1400" y="300" on="1"/>
        <pt x="1175" y="75" on="1"/>
        <pt x="1100" y="0" on="0"/>
        <pt x="1025" y="0" on="1"/>
        <pt x="900" y="0" on="0"/>
        <pt x="900" y="100" on="1"/>
        <pt x="900" y="600" on="1"/>
        <pt x="800" y="630" on="0"/>
        <pt x="800" y="750" on="1"/>
        <pt x="800" y="900" on="0"/>
        <pt x="975" y="900" on="1"/>
        <pt x="1150" y="900" on="0"/>
        <pt x="1150" y="730" on="1"/>
        <pt x="1150" y="191" on="1"/>
        <pt x="1330" y="371" on="1"/>
        <pt x="1365" y="406" on="0"/>
        <pt x="1400" y="406" on="1"/>
        <pt x="1436" y="406" on="0"/>
        <pt x="1471" y="371" on="1"/>
      </contour>
      <contour>
        <pt x="911" y="780" on="0"/>
        <pt x="911" y="740" on="1"/>
        <pt x="911" y="700" on="0"/>
        <pt x="942" y="700" on="1"/>
        <pt x="973" y="700" on="0"/>
        <pt x="973" y="740" on="1"/>
        <pt x="973" y="780" on="0"/>
        <pt x="942" y="780" on="1"/>
      </contour>
      <contour>
        <pt x="550" y="250" on="1"/>
        <pt x="550" y="350" on="0"/>
        <pt x="500" y="350" on="1"/>
        <pt x="450" y="350" on="0"/>
        <pt x="450" y="250" on="1"/>
        <pt x="450" y="150" on="0"/>
        <pt x="500" y="150" on="1"/>
        <pt x="550" y="150" on="0"/>
      </contour>
      <contour>
        <pt x="500" y="500" on="1"/>
        <pt x="650" y="500" on="0"/>
        <pt x="650" y="250" on="1"/>
        <pt x="650" y="0" on="0"/>
        <pt x="450" y="0" on="1"/>
        <pt x="250" y="0" on="0"/>
        <pt x="250" y="200" on="1"/>
        <pt x="250" y="963" on="1"/>
        <pt x="250" y="1020" on="0"/>
        <pt x="83" y="1073" on="1"/>
        <pt x="83" y="1206" on="1"/>
        <pt x="267" y="1500" on="1"/>
        <pt x="507" y="1382" on="0"/>
        <pt x="579" y="1382" on="1"/>
        <pt x="592" y="1382" on="0"/>
        <pt x="600" y="1386" on="1"/>
        <pt x="531" y="1191" on="0"/>
        <pt x="470" y="1183" on="1"/>
        <pt x="464" y="1182" on="0"/>
        <pt x="458" y="1182" on="1"/>
        <pt x="395" y="1182" on="0"/>
        <pt x="264" y="1253" on="1"/>
        <pt x="209" y="1170" on="1"/>
        <pt x="282" y="1138" on="1"/>
        <pt x="355" y="1106" on="1"/>
        <pt x="500" y="1041" on="0"/>
        <pt x="500" y="980" on="1"/>
      </contour>
    </TTGlyph>
    <TTGlyph name="glyph259" xMin="83" yMin="0" xMax="2000" yMax="1500">
      <contour>
        <pt x="1650" y="820" on="1"/>
        <pt x="1700" y="820" on="0"/>
        <pt x="1700" y="900" on="1"/>
        <pt x="1700" y="960" on="0"/>
        <pt x="1650" y="960" on="1"/>
        <pt x="1600" y="960" on="0"/>
        <pt x="1600" y="890" on="1"/>
        <pt x="1600" y="820" on="0"/>
      </contour>
      <contour>
        <pt x="1650" y="720" on="1"/>
        <pt x="1500" y="720" on="0"/>
        <pt x="1500" y="890" on="1"/>
        <pt x="1500" y="1090" on="0"/>
        <pt x="1700" y="1090" on="1"/>
        <pt x="1900" y="1090" on="0"/>
        <pt x="1900" y="900" on="1"/>
        <pt x="1900" y="243" on="1"/>
        <pt x="1900" y="110" on="0"/>
        <pt x="1600" y="0" on="0"/>
        <pt x="1400" y="0" on="1"/>
        <pt x="1200" y="0" on="0"/>
        <pt x="900" y="110" on="0"/>
        <pt x="900" y="243" on="1"/>
        <pt x="900" y="1079" on="1"/>
        <pt x="800" y="1128" on="0"/>
        <pt x="800" y="1209" on="1"/>
        <pt x="800" y="1244" on="1"/>
        <pt x="800" y="1289" on="0"/>
        <pt x="868" y="1341" on="1"/>
        <pt x="937" y="1393" on="1"/>
        <pt x="1073" y="1500" on="0"/>
        <pt x="1107" y="1500" on="1"/>
        <pt x="1142" y="1500" on="0"/>
        <pt x="1253" y="1431" on="1"/>
        <pt x="1365" y="1361" on="0"/>
        <pt x="1394" y="1361" on="1"/>
        <pt x="1420" y="1361" on="0"/>
        <pt x="1502" y="1431" on="1"/>
        <pt x="1585" y="1500" on="0"/>
        <pt x="1622" y="1500" on="1"/>
        <pt x="1659" y="1500" on="0"/>
        <pt x="1718" y="1447" on="1"/>
        <pt x="1863" y="1316" on="0"/>
        <pt x="1959" y="1316" on="1"/>
        <pt x="1981" y="1316" on="0"/>
        <pt x="2000" y="1323" on="1"/>
        <pt x="1926" y="1179" on="0"/>
        <pt x="1822" y="1179" on="1"/>
        <pt x="1719" y="1179" on="0"/>
        <pt x="1648" y="1239" on="1"/>
        <pt x="1577" y="1298" on="0"/>
        <pt x="1542" y="1298" on="1"/>
        <pt x="1507" y="1298" on="0"/>
        <pt x="1404" y="1179" on="0"/>
        <pt x="1348" y="1179" on="1"/>
        <pt x="1252" y="1179" on="0"/>
        <pt x="1172" y="1239" on="1"/>
        <pt x="1092" y="1298" on="0"/>
        <pt x="1047" y="1298" on="1"/>
        <pt x="1002" y="1298" on="0"/>
        <pt x="957" y="1255" on="0"/>
        <pt x="957" y="1223" on="1"/>
        <pt x="957" y="1170" on="0"/>
        <pt x="1087" y="1086" on="1"/>
        <pt x="1150" y="1050" on="1"/>
        <pt x="1150" y="243" on="1"/>
        <pt x="1150" y="163" on="0"/>
        <pt x="1300" y="100" on="0"/>
        <pt x="1400" y="100" on="1"/>
        <pt x="1500" y="100" on="0"/>
        <pt x="1650" y="163" on="0"/>
        <pt x="1650" y="243" on="1"/>
      </contour>
      <contour>
        <pt x="550" y="250" on="1"/>
        <pt x="550" y="350" on="0"/>
        <pt x="500" y="350" on="1"/>
        <pt x="450" y="350" on="0"/>
        <pt x="450" y="250" on="1"/>
        <pt x="450" y="150" on="0"/>
        <pt x="500" y="150" on="1"/>
        <pt x="550" y="150" on="0"/>
      </contour>
      <contour>
        <pt x="500" y="500" on="1"/>
        <pt x="650" y="500" on="0"/>
        <pt x="650" y="250" on="1"/>
        <pt x="650" y="0" on="0"/>
        <pt x="450" y="0" on="1"/>
        <pt x="250" y="0" on="0"/>
        <pt x="250" y="200" on="1"/>
        <pt x="250" y="963" on="1"/>
        <pt x="250" y="1020" on="0"/>
        <pt x="83" y="1073" on="1"/>
        <pt x="83" y="1206" on="1"/>
        <pt x="267" y="1500" on="1"/>
        <pt x="507" y="1382" on="0"/>
        <pt x="579" y="1382" on="1"/>
        <pt x="592" y="1382" on="0"/>
        <pt x="600" y="1386" on="1"/>
        <pt x="531" y="1191" on="0"/>
        <pt x="470" y="1183" on="1"/>
        <pt x="464" y="1182" on="0"/>
        <pt x="458" y="1182" on="1"/>
        <pt x="395" y="1182" on="0"/>
        <pt x="264" y="1253" on="1"/>
        <pt x="209" y="1170" on="1"/>
        <pt x="282" y="1138" on="1"/>
        <pt x="355" y="1106" on="1"/>
        <pt x="500" y="1041" on="0"/>
        <pt x="500" y="980" on="1"/>
      </contour>
    </TTGlyph>
    <TTGlyph name="glyph260" xMin="83" yMin="0" xMax="2050" yMax="1500">
      <contour>
        <pt x="900" y="250" on="1"/>
        <pt x="900" y="170" on="0"/>
        <pt x="925" y="170" on="1"/>
        <pt x="950" y="170" on="0"/>
        <pt x="950" y="240" on="1"/>
        <pt x="950" y="400" on="1"/>
        <pt x="900" y="400" on="0"/>
      </contour>
      <contour>
        <pt x="1700" y="820" on="1"/>
        <pt x="1750" y="820" on="0"/>
        <pt x="1750" y="900" on="1"/>
        <pt x="1750" y="960" on="0"/>
        <pt x="1700" y="960" on="1"/>
        <pt x="1650" y="960" on="0"/>
        <pt x="1650" y="890" on="1"/>
        <pt x="1650" y="820" on="0"/>
      </contour>
      <contour>
        <pt x="950" y="1079" on="1"/>
        <pt x="850" y="1128" on="0"/>
        <pt x="850" y="1209" on="1"/>
        <pt x="850" y="1244" on="1"/>
        <pt x="850" y="1289" on="0"/>
        <pt x="918" y="1341" on="1"/>
        <pt x="987" y="1393" on="1"/>
        <pt x="1123" y="1500" on="0"/>
        <pt x="1157" y="1500" on="1"/>
        <pt x="1192" y="1500" on="0"/>
        <pt x="1303" y="1431" on="1"/>
        <pt x="1415" y="1361" on="0"/>
        <pt x="1444" y="1361" on="1"/>
        <pt x="1470" y="1361" on="0"/>
        <pt x="1552" y="1431" on="1"/>
        <pt x="1635" y="1500" on="0"/>
        <pt x="1672" y="1500" on="1"/>
        <pt x="1709" y="1500" on="0"/>
        <pt x="1768" y="1447" on="1"/>
        <pt x="1913" y="1316" on="0"/>
        <pt x="2009" y="1316" on="1"/>
        <pt x="2031" y="1316" on="0"/>
        <pt x="2050" y="1323" on="1"/>
        <pt x="1976" y="1179" on="0"/>
        <pt x="1872" y="1179" on="1"/>
        <pt x="1769" y="1179" on="0"/>
        <pt x="1698" y="1239" on="1"/>
        <pt x="1627" y="1298" on="0"/>
        <pt x="1592" y="1298" on="1"/>
        <pt x="1557" y="1298" on="0"/>
        <pt x="1454" y="1179" on="0"/>
        <pt x="1398" y="1179" on="1"/>
        <pt x="1302" y="1179" on="0"/>
        <pt x="1222" y="1239" on="1"/>
        <pt x="1142" y="1298" on="0"/>
        <pt x="1097" y="1298" on="1"/>
        <pt x="1052" y="1298" on="0"/>
        <pt x="1007" y="1255" on="0"/>
        <pt x="1007" y="1223" on="1"/>
        <pt x="1007" y="1170" on="0"/>
        <pt x="1137" y="1086" on="1"/>
        <pt x="1200" y="1050" on="1"/>
        <pt x="1200" y="500" on="1"/>
        <pt x="1480" y="500" on="0"/>
        <pt x="1480" y="250" on="1"/>
        <pt x="1480" y="100" on="0"/>
        <pt x="1600" y="100" on="1"/>
        <pt x="1700" y="100" on="0"/>
        <pt x="1700" y="250" on="1"/>
        <pt x="1700" y="720" on="1"/>
        <pt x="1550" y="720" on="0"/>
        <pt x="1550" y="890" on="1"/>
        <pt x="1550" y="1090" on="0"/>
        <pt x="1750" y="1090" on="1"/>
        <pt x="1950" y="1090" on="0"/>
        <pt x="1950" y="900" on="1"/>
        <pt x="1950" y="250" on="1"/>
        <pt x="1950" y="0" on="0"/>
        <pt x="1600" y="0" on="1"/>
        <pt x="1330" y="0" on="0"/>
        <pt x="1330" y="250" on="1"/>
        <pt x="1330" y="400" on="0"/>
        <pt x="1200" y="400" on="1"/>
        <pt x="1200" y="200" on="1"/>
        <pt x="1200" y="0" on="0"/>
        <pt x="960" y="0" on="1"/>
        <pt x="800" y="0" on="0"/>
        <pt x="800" y="250" on="1"/>
        <pt x="800" y="500" on="0"/>
        <pt x="950" y="500" on="1"/>
      </contour>
      <contour>
        <pt x="550" y="250" on="1"/>
        <pt x="550" y="350" on="0"/>
        <pt x="500" y="350" on="1"/>
        <pt x="450" y="350" on="0"/>
        <pt x="450" y="250" on="1"/>
        <pt x="450" y="150" on="0"/>
        <pt x="500" y="150" on="1"/>
        <pt x="550" y="150" on="0"/>
      </contour>
      <contour>
        <pt x="500" y="500" on="1"/>
        <pt x="650" y="500" on="0"/>
        <pt x="650" y="250" on="1"/>
        <pt x="650" y="0" on="0"/>
        <pt x="450" y="0" on="1"/>
        <pt x="250" y="0" on="0"/>
        <pt x="250" y="200" on="1"/>
        <pt x="250" y="963" on="1"/>
        <pt x="250" y="1020" on="0"/>
        <pt x="83" y="1073" on="1"/>
        <pt x="83" y="1206" on="1"/>
        <pt x="267" y="1500" on="1"/>
        <pt x="507" y="1382" on="0"/>
        <pt x="579" y="1382" on="1"/>
        <pt x="592" y="1382" on="0"/>
        <pt x="600" y="1386" on="1"/>
        <pt x="531" y="1191" on="0"/>
        <pt x="470" y="1183" on="1"/>
        <pt x="464" y="1182" on="0"/>
        <pt x="458" y="1182" on="1"/>
        <pt x="395" y="1182" on="0"/>
        <pt x="264" y="1253" on="1"/>
        <pt x="209" y="1170" on="1"/>
        <pt x="282" y="1138" on="1"/>
        <pt x="355" y="1106" on="1"/>
        <pt x="500" y="1041" on="0"/>
        <pt x="500" y="980" on="1"/>
      </contour>
    </TTGlyph>
    <TTGlyph name="glyph261" xMin="83" yMin="0" xMax="1900" yMax="1720">
      <contour>
        <pt x="1775" y="1225" on="1"/>
        <pt x="1672" y="1157" on="0"/>
        <pt x="1520" y="1157" on="1"/>
        <pt x="1487" y="1157" on="0"/>
        <pt x="1451" y="1161" on="1"/>
        <pt x="1252" y="1179" on="0"/>
        <pt x="1172" y="1239" on="1"/>
        <pt x="1092" y="1298" on="0"/>
        <pt x="1047" y="1298" on="1"/>
        <pt x="1002" y="1298" on="0"/>
        <pt x="957" y="1255" on="0"/>
        <pt x="957" y="1223" on="1"/>
        <pt x="957" y="1170" on="0"/>
        <pt x="1087" y="1086" on="1"/>
        <pt x="1150" y="1050" on="1"/>
        <pt x="1150" y="191" on="1"/>
        <pt x="1330" y="371" on="1"/>
        <pt x="1365" y="406" on="0"/>
        <pt x="1400" y="406" on="1"/>
        <pt x="1436" y="406" on="0"/>
        <pt x="1471" y="371" on="1"/>
        <pt x="1650" y="192" on="1"/>
        <pt x="1650" y="1060" on="1"/>
        <pt x="1900" y="1060" on="1"/>
        <pt x="1900" y="100" on="1"/>
        <pt x="1900" y="0" on="0"/>
        <pt x="1775" y="0" on="1"/>
        <pt x="1700" y="0" on="0"/>
        <pt x="1625" y="75" on="1"/>
        <pt x="1400" y="300" on="1"/>
        <pt x="1175" y="75" on="1"/>
        <pt x="1100" y="0" on="0"/>
        <pt x="1025" y="0" on="1"/>
        <pt x="900" y="0" on="0"/>
        <pt x="900" y="100" on="1"/>
        <pt x="900" y="1079" on="1"/>
        <pt x="800" y="1128" on="0"/>
        <pt x="800" y="1209" on="1"/>
        <pt x="800" y="1244" on="1"/>
        <pt x="800" y="1289" on="0"/>
        <pt x="868" y="1341" on="1"/>
        <pt x="937" y="1393" on="1"/>
        <pt x="1073" y="1500" on="0"/>
        <pt x="1107" y="1500" on="1"/>
        <pt x="1142" y="1500" on="0"/>
        <pt x="1253" y="1431" on="1"/>
        <pt x="1473" y="1280" on="0"/>
        <pt x="1530" y="1280" on="1"/>
        <pt x="1592" y="1280" on="0"/>
        <pt x="1650" y="1370" on="0"/>
        <pt x="1650" y="1476" on="1"/>
        <pt x="1650" y="1630" on="0"/>
        <pt x="1500" y="1645" on="1"/>
        <pt x="1500" y="1720" on="0"/>
        <pt x="1630" y="1720" on="1"/>
        <pt x="1900" y="1720" on="0"/>
        <pt x="1900" y="1476" on="1"/>
        <pt x="1900" y="1308" on="0"/>
      </contour>
      <contour>
        <pt x="550" y="250" on="1"/>
        <pt x="550" y="350" on="0"/>
        <pt x="500" y="350" on="1"/>
        <pt x="450" y="350" on="0"/>
        <pt x="450" y="250" on="1"/>
        <pt x="450" y="150" on="0"/>
        <pt x="500" y="150" on="1"/>
        <pt x="550" y="150" on="0"/>
      </contour>
      <contour>
        <pt x="500" y="500" on="1"/>
        <pt x="650" y="500" on="0"/>
        <pt x="650" y="250" on="1"/>
        <pt x="650" y="0" on="0"/>
        <pt x="450" y="0" on="1"/>
        <pt x="250" y="0" on="0"/>
        <pt x="250" y="200" on="1"/>
        <pt x="250" y="963" on="1"/>
        <pt x="250" y="1020" on="0"/>
        <pt x="83" y="1073" on="1"/>
        <pt x="83" y="1206" on="1"/>
        <pt x="267" y="1500" on="1"/>
        <pt x="507" y="1382" on="0"/>
        <pt x="579" y="1382" on="1"/>
        <pt x="592" y="1382" on="0"/>
        <pt x="600" y="1386" on="1"/>
        <pt x="531" y="1191" on="0"/>
        <pt x="470" y="1183" on="1"/>
        <pt x="464" y="1182" on="0"/>
        <pt x="458" y="1182" on="1"/>
        <pt x="395" y="1182" on="0"/>
        <pt x="264" y="1253" on="1"/>
        <pt x="209" y="1170" on="1"/>
        <pt x="282" y="1138" on="1"/>
        <pt x="355" y="1106" on="1"/>
        <pt x="500" y="1041" on="0"/>
        <pt x="500" y="980" on="1"/>
      </contour>
    </TTGlyph>
    <TTGlyph name="glyph262" xMin="83" yMin="0" xMax="3250" yMax="1500">
      <contour>
        <pt x="1231" y="375" on="1"/>
        <pt x="1213" y="400" on="0"/>
        <pt x="1175" y="400" on="1"/>
        <pt x="1150" y="400" on="1"/>
        <pt x="1150" y="200" on="1"/>
        <pt x="1150" y="140" on="0"/>
        <pt x="1175" y="140" on="1"/>
        <pt x="1200" y="140" on="0"/>
        <pt x="1225" y="190" on="1"/>
        <pt x="1250" y="240" on="0"/>
        <pt x="1250" y="300" on="1"/>
        <pt x="1250" y="350" on="0"/>
      </contour>
      <contour>
        <pt x="2250" y="963" on="1"/>
        <pt x="2250" y="1020" on="0"/>
        <pt x="2083" y="1073" on="1"/>
        <pt x="2083" y="1206" on="1"/>
        <pt x="2267" y="1500" on="1"/>
        <pt x="2507" y="1382" on="0"/>
        <pt x="2579" y="1382" on="1"/>
        <pt x="2592" y="1382" on="0"/>
        <pt x="2600" y="1386" on="1"/>
        <pt x="2531" y="1191" on="0"/>
        <pt x="2470" y="1183" on="1"/>
        <pt x="2464" y="1182" on="0"/>
        <pt x="2458" y="1182" on="1"/>
        <pt x="2395" y="1182" on="0"/>
        <pt x="2264" y="1253" on="1"/>
        <pt x="2209" y="1170" on="1"/>
        <pt x="2282" y="1138" on="1"/>
        <pt x="2355" y="1106" on="1"/>
        <pt x="2500" y="1041" on="0"/>
        <pt x="2500" y="980" on="1"/>
        <pt x="2500" y="243" on="1"/>
        <pt x="2500" y="100" on="0"/>
        <pt x="2700" y="100" on="1"/>
        <pt x="2900" y="100" on="0"/>
        <pt x="2900" y="243" on="1"/>
        <pt x="2900" y="963" on="1"/>
        <pt x="2900" y="1020" on="0"/>
        <pt x="2733" y="1073" on="1"/>
        <pt x="2733" y="1206" on="1"/>
        <pt x="2917" y="1500" on="1"/>
        <pt x="3157" y="1382" on="0"/>
        <pt x="3229" y="1382" on="1"/>
        <pt x="3242" y="1382" on="0"/>
        <pt x="3250" y="1386" on="1"/>
        <pt x="3181" y="1191" on="0"/>
        <pt x="3120" y="1183" on="1"/>
        <pt x="3114" y="1182" on="0"/>
        <pt x="3108" y="1182" on="1"/>
        <pt x="3045" y="1182" on="0"/>
        <pt x="2914" y="1253" on="1"/>
        <pt x="2859" y="1170" on="1"/>
        <pt x="2932" y="1138" on="1"/>
        <pt x="3005" y="1106" on="1"/>
        <pt x="3150" y="1041" on="0"/>
        <pt x="3150" y="980" on="1"/>
        <pt x="3150" y="243" on="1"/>
        <pt x="3150" y="0" on="0"/>
        <pt x="2700" y="0" on="1"/>
        <pt x="2487" y="0" on="0"/>
        <pt x="2375" y="54" on="1"/>
        <pt x="2263" y="0" on="0"/>
        <pt x="2050" y="0" on="1"/>
        <pt x="1600" y="0" on="0"/>
        <pt x="1600" y="243" on="1"/>
        <pt x="1600" y="1257" on="1"/>
        <pt x="1600" y="1337" on="0"/>
        <pt x="1450" y="1400" on="0"/>
        <pt x="1375" y="1400" on="1"/>
        <pt x="1300" y="1400" on="0"/>
        <pt x="1150" y="1337" on="0"/>
        <pt x="1150" y="1257" on="1"/>
        <pt x="1150" y="500" on="1"/>
        <pt x="1175" y="500" on="1"/>
        <pt x="1263" y="500" on="0"/>
        <pt x="1306" y="450" on="1"/>
        <pt x="1350" y="400" on="0"/>
        <pt x="1350" y="300" on="1"/>
        <pt x="1350" y="150" on="0"/>
        <pt x="1300" y="75" on="1"/>
        <pt x="1250" y="0" on="0"/>
        <pt x="1150" y="0" on="1"/>
        <pt x="900" y="0" on="0"/>
        <pt x="900" y="200" on="1"/>
        <pt x="900" y="1257" on="1"/>
        <pt x="900" y="1390" on="0"/>
        <pt x="1200" y="1500" on="0"/>
        <pt x="1375" y="1500" on="1"/>
        <pt x="1550" y="1500" on="0"/>
        <pt x="1850" y="1390" on="0"/>
        <pt x="1850" y="1257" on="1"/>
        <pt x="1850" y="243" on="1"/>
        <pt x="1850" y="100" on="0"/>
        <pt x="2050" y="100" on="1"/>
        <pt x="2250" y="100" on="0"/>
        <pt x="2250" y="243" on="1"/>
      </contour>
      <contour>
        <pt x="550" y="250" on="1"/>
        <pt x="550" y="350" on="0"/>
        <pt x="500" y="350" on="1"/>
        <pt x="450" y="350" on="0"/>
        <pt x="450" y="250" on="1"/>
        <pt x="450" y="150" on="0"/>
        <pt x="500" y="150" on="1"/>
        <pt x="550" y="150" on="0"/>
      </contour>
      <contour>
        <pt x="500" y="500" on="1"/>
        <pt x="650" y="500" on="0"/>
        <pt x="650" y="250" on="1"/>
        <pt x="650" y="0" on="0"/>
        <pt x="450" y="0" on="1"/>
        <pt x="250" y="0" on="0"/>
        <pt x="250" y="200" on="1"/>
        <pt x="250" y="963" on="1"/>
        <pt x="250" y="1020" on="0"/>
        <pt x="83" y="1073" on="1"/>
        <pt x="83" y="1206" on="1"/>
        <pt x="267" y="1500" on="1"/>
        <pt x="507" y="1382" on="0"/>
        <pt x="579" y="1382" on="1"/>
        <pt x="592" y="1382" on="0"/>
        <pt x="600" y="1386" on="1"/>
        <pt x="531" y="1191" on="0"/>
        <pt x="470" y="1183" on="1"/>
        <pt x="464" y="1182" on="0"/>
        <pt x="458" y="1182" on="1"/>
        <pt x="395" y="1182" on="0"/>
        <pt x="264" y="1253" on="1"/>
        <pt x="209" y="1170" on="1"/>
        <pt x="282" y="1138" on="1"/>
        <pt x="355" y="1106" on="1"/>
        <pt x="500" y="1041" on="0"/>
        <pt x="500" y="980" on="1"/>
      </contour>
    </TTGlyph>
    <TTGlyph name="glyph263" xMin="83" yMin="-570" xMax="2500" yMax="1500">
      <contour>
        <pt x="1231" y="375" on="1"/>
        <pt x="1213" y="400" on="0"/>
        <pt x="1175" y="400" on="1"/>
        <pt x="1150" y="400" on="1"/>
        <pt x="1150" y="200" on="1"/>
        <pt x="1150" y="140" on="0"/>
        <pt x="1175" y="140" on="1"/>
        <pt x="1200" y="140" on="0"/>
        <pt x="1225" y="190" on="1"/>
        <pt x="1250" y="240" on="0"/>
        <pt x="1250" y="300" on="1"/>
        <pt x="1250" y="350" on="0"/>
      </contour>
      <contour>
        <pt x="1850" y="0" on="1"/>
        <pt x="1600" y="0" on="1"/>
        <pt x="1600" y="1200" on="1"/>
        <pt x="1600" y="1304" on="0"/>
        <pt x="1553" y="1342" on="1"/>
        <pt x="1545" y="1348" on="0"/>
        <pt x="1534" y="1348" on="1"/>
        <pt x="1483" y="1348" on="0"/>
        <pt x="1375" y="1200" on="1"/>
        <pt x="1268" y="1348" on="0"/>
        <pt x="1217" y="1348" on="1"/>
        <pt x="1206" y="1348" on="0"/>
        <pt x="1198" y="1342" on="1"/>
        <pt x="1150" y="1304" on="0"/>
        <pt x="1150" y="1200" on="1"/>
        <pt x="1150" y="500" on="1"/>
        <pt x="1175" y="500" on="1"/>
        <pt x="1263" y="500" on="0"/>
        <pt x="1306" y="450" on="1"/>
        <pt x="1350" y="400" on="0"/>
        <pt x="1350" y="300" on="1"/>
        <pt x="1350" y="150" on="0"/>
        <pt x="1300" y="75" on="1"/>
        <pt x="1250" y="0" on="0"/>
        <pt x="1150" y="0" on="1"/>
        <pt x="900" y="0" on="0"/>
        <pt x="900" y="200" on="1"/>
        <pt x="900" y="1200" on="1"/>
        <pt x="900" y="1322" on="0"/>
        <pt x="1145" y="1500" on="0"/>
        <pt x="1204" y="1500" on="1"/>
        <pt x="1254" y="1500" on="0"/>
        <pt x="1375" y="1366" on="1"/>
        <pt x="1497" y="1500" on="0"/>
        <pt x="1547" y="1500" on="1"/>
        <pt x="1606" y="1500" on="0"/>
        <pt x="1728" y="1411" on="1"/>
        <pt x="1743" y="1400" on="0"/>
        <pt x="1756" y="1389" on="1"/>
        <pt x="1775" y="1412" on="0"/>
        <pt x="1800" y="1430" on="1"/>
        <pt x="1900" y="1500" on="0"/>
        <pt x="2050" y="1500" on="1"/>
        <pt x="2250" y="1500" on="0"/>
        <pt x="2500" y="1360" on="0"/>
        <pt x="2500" y="1207" on="1"/>
        <pt x="2500" y="0" on="1"/>
        <pt x="2250" y="0" on="1"/>
        <pt x="2250" y="1207" on="1"/>
        <pt x="2250" y="1307" on="0"/>
        <pt x="2150" y="1400" on="0"/>
        <pt x="2050" y="1400" on="1"/>
        <pt x="1950" y="1400" on="0"/>
        <pt x="1850" y="1307" on="0"/>
        <pt x="1850" y="1207" on="1"/>
      </contour>
      <contour>
        <pt x="2205" y="-200" on="1"/>
        <pt x="2205" y="-150" on="0"/>
        <pt x="2235" y="-125" on="1"/>
        <pt x="2266" y="-100" on="0"/>
        <pt x="2329" y="-100" on="1"/>
        <pt x="2413" y="-100" on="0"/>
        <pt x="2456" y="-150" on="1"/>
        <pt x="2500" y="-200" on="0"/>
        <pt x="2500" y="-300" on="1"/>
        <pt x="2500" y="-410" on="0"/>
        <pt x="2288" y="-570" on="0"/>
        <pt x="2115" y="-570" on="1"/>
        <pt x="1980" y="-570" on="0"/>
        <pt x="1873" y="-532" on="1"/>
        <pt x="1766" y="-495" on="0"/>
        <pt x="1543" y="-357" on="1"/>
        <pt x="1320" y="-220" on="0"/>
        <pt x="1203" y="-220" on="1"/>
        <pt x="1112" y="-220" on="0"/>
        <pt x="974" y="-275" on="0"/>
        <pt x="900" y="-340" on="1"/>
        <pt x="900" y="-280" on="0"/>
        <pt x="974" y="-185" on="0"/>
        <pt x="1142" y="-100" on="0"/>
        <pt x="1253" y="-100" on="1"/>
        <pt x="1412" y="-100" on="0"/>
        <pt x="1668" y="-194" on="0"/>
        <pt x="1801" y="-291" on="1"/>
        <pt x="2053" y="-466" on="0"/>
        <pt x="2135" y="-466" on="1"/>
        <pt x="2205" y="-466" on="0"/>
        <pt x="2300" y="-400" on="0"/>
        <pt x="2300" y="-300" on="1"/>
        <pt x="2300" y="-273" on="1"/>
        <pt x="2284" y="-276" on="0"/>
        <pt x="2271" y="-276" on="1"/>
        <pt x="2254" y="-276" on="0"/>
        <pt x="2244" y="-270" on="1"/>
        <pt x="2225" y="-259" on="0"/>
        <pt x="2205" y="-221" on="0"/>
      </contour>
      <contour>
        <pt x="550" y="250" on="1"/>
        <pt x="550" y="350" on="0"/>
        <pt x="500" y="350" on="1"/>
        <pt x="450" y="350" on="0"/>
        <pt x="450" y="250" on="1"/>
        <pt x="450" y="150" on="0"/>
        <pt x="500" y="150" on="1"/>
        <pt x="550" y="150" on="0"/>
      </contour>
      <contour>
        <pt x="500" y="500" on="1"/>
        <pt x="650" y="500" on="0"/>
        <pt x="650" y="250" on="1"/>
        <pt x="650" y="0" on="0"/>
        <pt x="450" y="0" on="1"/>
        <pt x="250" y="0" on="0"/>
        <pt x="250" y="200" on="1"/>
        <pt x="250" y="963" on="1"/>
        <pt x="250" y="1020" on="0"/>
        <pt x="83" y="1073" on="1"/>
        <pt x="83" y="1206" on="1"/>
        <pt x="267" y="1500" on="1"/>
        <pt x="507" y="1382" on="0"/>
        <pt x="579" y="1382" on="1"/>
        <pt x="592" y="1382" on="0"/>
        <pt x="600" y="1386" on="1"/>
        <pt x="531" y="1191" on="0"/>
        <pt x="470" y="1183" on="1"/>
        <pt x="464" y="1182" on="0"/>
        <pt x="458" y="1182" on="1"/>
        <pt x="395" y="1182" on="0"/>
        <pt x="264" y="1253" on="1"/>
        <pt x="209" y="1170" on="1"/>
        <pt x="282" y="1138" on="1"/>
        <pt x="355" y="1106" on="1"/>
        <pt x="500" y="1041" on="0"/>
        <pt x="500" y="980" on="1"/>
      </contour>
    </TTGlyph>
</ttFont>
